<?xml version="1.0" encoding="iso-8859-1"?>
<!-- Generator: Adobe Illustrator 24.1.2, SVG Export Plug-In . SVG Version: 6.00 Build 0)  -->
<svg version="1.1" xmlns="http://www.w3.org/2000/svg" xmlns:xlink="http://www.w3.org/1999/xlink" x="0px" y="0px"
	 viewBox="0 0 50 50" style="enable-background:new 0 0 50 50;" xml:space="preserve">
<g id="nintendo_switch">
</g>
<g id="settings">
</g>
<g id="camera">
</g>
<g id="shazam">
</g>
<g id="ios_x5F_out">
</g>
<g id="ios_x5F_filled">
	<path style="fill:none;stroke:#000000;stroke-width:2;stroke-miterlimit:10;" d="M36,44.99H14c-4.971,0-9-4.029-9-9v-22
		c0-4.971,4.029-9,9-9h22c4.971,0,9,4.029,9,9v22C45,40.961,40.971,44.99,36,44.99z"/>
	<path d="M36,44.99H14c-4.971,0-9-4.029-9-9v-22c0-4.971,4.029-9,9-9h22c4.971,0,9,4.029,9,9v22C45,40.961,40.971,44.99,36,44.99z
		 M34.556,37.001c0.803,0,3.564-1.443,3.41-5.007c-0.027-0.628-0.38-1.204-0.923-1.552c-0.618-0.396-1.577-1.011-2.828-1.811
		c-1.141-0.729-2.615-0.781-3.805-0.129l-2.083,1.464c-0.564,0.396-1.287,0.475-1.923,0.209c-0.99-0.414-2.511-1.216-3.937-2.642
		c-1.426-1.426-2.228-2.947-2.642-3.937c-0.266-0.636-0.187-1.359,0.209-1.923l1.464-2.083c0.652-1.19,0.601-2.664-0.129-3.805
		c-0.8-1.251-1.415-2.21-1.811-2.828c-0.348-0.543-0.924-0.896-1.552-0.923c-3.564-0.154-5.007,2.607-5.007,3.41
		c0,0.556-0.761,7.239,6.778,14.778S34,37.001,34.556,37.001z"/>
</g>
</svg>