<svg width="24" height="24" viewBox="0 0 24 24" fill="none" xmlns="http://www.w3.org/2000/svg">
<g clip-path="url(#clip0_40_940)">
<path d="M20.449 20.4495H16.893V14.8804C16.893 13.5525 16.8693 11.8429 15.0435 11.8429C13.1914 11.8429 12.908 13.2899 12.908 14.7838V20.4491H9.35203V8.99697H12.7657V10.562H12.8136C13.1552 9.97789 13.6489 9.49736 14.242 9.17158C14.8352 8.84581 15.5056 8.687 16.1818 8.71206C19.786 8.71206 20.4505 11.0828 20.4505 14.167L20.449 20.4495ZM5.33953 7.43162C4.19981 7.43181 3.27572 6.508 3.27553 5.36828C3.27534 4.22856 4.19906 3.30447 5.33878 3.30428C6.4785 3.304 7.40259 4.22781 7.40278 5.36753C7.40288 5.91484 7.18556 6.43978 6.79863 6.82687C6.4117 7.21396 5.88685 7.4315 5.33953 7.43162ZM7.11759 20.4496H3.55781V8.99697H7.1175L7.11759 20.4496ZM22.2218 0.00174674H1.77094C0.804373 -0.00912826 0.0117171 0.765153 -9.53674e-05 1.73172V22.2679C0.0113421 23.235 0.803905 24.01 1.77084 23.9999H22.2218C23.1908 24.0119 23.9865 23.2368 23.9999 22.2679V1.73012C23.9861 0.761684 23.1904 -0.0125033 22.2218 0.00015299" fill="#A9D6FF"/>
</g>
<defs>
<clipPath id="clip0_40_940">
<rect width="24" height="24" fill="white"/>
</clipPath>
</defs>
</svg>
