<svg width="24" height="24" viewBox="0 0 24 24" fill="none" xmlns="http://www.w3.org/2000/svg">
<g clip-path="url(#clip0_40_942)">
<path d="M12 0C8.81812 0 5.76375 1.26506 3.51562 3.51469C1.2652 5.76522 0.000643966 8.81734 0 12C0 15.1813 1.26562 18.2357 3.51562 20.4853C5.76375 22.7349 8.81812 24 12 24C15.1819 24 18.2362 22.7349 20.4844 20.4853C22.7344 18.2357 24 15.1813 24 12C24 8.81869 22.7344 5.76431 20.4844 3.51469C18.2362 1.26506 15.1819 0 12 0Z" fill="url(#paint0_linear_40_942)"/>
<path d="M5.43188 11.8733C8.93062 10.3493 11.2631 9.34454 12.4294 8.85904C15.7631 7.47285 16.455 7.2321 16.9069 7.22395C17.0062 7.22235 17.2275 7.24692 17.3719 7.36364C17.4919 7.46207 17.5256 7.5952 17.5425 7.68867C17.5575 7.78204 17.5781 7.99485 17.5612 8.16098C17.3813 10.0585 16.5994 14.6631 16.2019 16.7884C16.035 17.6877 15.7031 17.9892 15.3825 18.0186C14.685 18.0827 14.1563 17.5581 13.4813 17.1158C12.4256 16.4234 11.8294 15.9925 10.8038 15.3169C9.61875 14.5362 10.3875 14.107 11.0625 13.4057C11.2388 13.2222 14.31 10.4294 14.3681 10.176C14.3756 10.1444 14.3831 10.0262 14.3119 9.96398C14.2425 9.90154 14.1394 9.92292 14.0644 9.93979C13.9575 9.96379 12.2719 11.079 9.00187 13.2854C8.52375 13.6142 8.09063 13.7745 7.70063 13.7661C7.27313 13.7569 6.44813 13.5239 5.835 13.3247C5.085 13.0804 4.48688 12.9512 4.53938 12.5363C4.56563 12.3203 4.86375 12.0992 5.43188 11.8733Z" fill="white"/>
</g>
<defs>
<linearGradient id="paint0_linear_40_942" x1="1200" y1="0" x2="1200" y2="2400" gradientUnits="userSpaceOnUse">
<stop stop-color="#2AABEE"/>
<stop offset="1" stop-color="#229ED9"/>
</linearGradient>
<clipPath id="clip0_40_942">
<rect width="24" height="24" fill="white"/>
</clipPath>
</defs>
</svg>
