<svg width="32" height="32" viewBox="0 0 32 32" fill="none" xmlns="http://www.w3.org/2000/svg">
<path d="M28.44 17.2134C28.56 19.2801 27.6133 21.2668 25.92 22.4801L26.9466 24.4668C27.2533 25.0668 27.2933 25.7734 27.0266 26.4001C26.7733 27.0268 26.2533 27.5201 25.6133 27.7334L24.56 28.0668C24.1213 28.2139 23.648 28.2225 23.2043 28.0913C22.7606 27.9601 22.368 27.6955 22.08 27.3334L19.2533 24.0001C18.0666 23.8001 16.9466 23.2934 16 22.5334C15.3333 22.7334 14.6666 22.8401 14 22.8401C12.8266 22.8401 11.6533 22.4801 10.6666 21.7868C9.95995 22.0001 9.23995 22.0934 8.50662 22.0801C7.45329 22.0934 6.41329 21.8801 5.43995 21.4801C4.5026 21.0627 3.70164 20.39 3.12867 19.5388C2.5557 18.6876 2.23386 17.6923 2.19995 16.6668C2.09329 15.7068 2.25329 14.7334 2.66662 13.8534C2.27995 12.8534 2.23995 11.7601 2.57329 10.7468C3.06662 9.4801 3.99995 8.42676 5.15995 7.7601C5.93329 5.50676 8.10662 4.0001 10.4933 4.1601C12.6266 2.1601 15.8933 1.94676 18.2666 3.66676C18.8266 3.5201 19.4133 3.4401 20 3.4401C21.8133 3.4001 23.5333 4.2001 24.6666 5.62676C27.3866 6.33343 29.3333 8.76009 29.44 11.5868C29.5066 13.0668 29.1066 14.5201 28.2933 15.7601C28.3866 16.2401 28.44 16.7201 28.44 17.2134ZM21.7733 15.3334C22.5333 15.4268 23.1333 16.0001 23.1333 16.7601C23.1333 17.1137 22.9928 17.4529 22.7428 17.7029C22.4927 17.953 22.1536 18.0934 21.8 18.0934H20.96C20.5333 19.2934 19.7866 20.3468 18.8 21.1468C19.1333 21.2668 19.48 21.3334 19.8266 21.4268C26.6666 21.3334 25.8666 17.1601 25.8666 17.0934C25.8494 16.6398 25.743 16.1941 25.5534 15.7816C25.3638 15.3692 25.0947 14.9982 24.7616 14.6898C24.4285 14.3815 24.0378 14.1418 23.612 13.9846C23.1862 13.8273 22.7335 13.7556 22.28 13.7734C21.9263 13.7734 21.5872 13.633 21.3371 13.3829C21.0871 13.1329 20.9466 12.7937 20.9466 12.4401C20.9466 12.0865 21.0871 11.7473 21.3371 11.4973C21.5872 11.2472 21.9263 11.1068 22.28 11.1068C23.92 11.1468 25.4933 11.7601 26.72 12.8401C26.7866 12.4534 26.8266 12.0534 26.8266 11.6534C26.7466 10.0001 26 8.56009 23 8.2801C21.3333 4.33343 17.1333 6.5201 17.1333 7.74676C17.0933 8.05343 17.4133 8.70676 17.4666 8.74676C17.8202 8.74676 18.1594 8.88724 18.4094 9.13729C18.6595 9.38733 18.8 9.72647 18.8 10.0801C18.8 10.8134 18.2 11.4134 17.4666 11.4134C16.76 11.3868 16.0933 11.1201 15.56 10.6668C14.92 11.0801 14.1866 11.3334 13.4266 11.4134C12.6666 11.4801 12.04 10.9468 12 10.2134C11.9758 10.0393 11.9874 9.86211 12.034 9.69262C12.0806 9.52313 12.1613 9.36492 12.2711 9.22766C12.3809 9.0904 12.5175 8.97696 12.6726 8.89428C12.8278 8.8116 12.9981 8.7614 13.1733 8.74676C13.3866 8.7201 14.4266 8.5601 14.4266 7.7201C14.4266 6.8401 14.76 6.0001 15.3333 5.33343C14.1066 5.0001 12.7866 5.4401 11.4533 7.05343C8.99995 6.66676 7.99995 7.00009 7.26662 9.60009C5.99995 10.2268 5.33329 10.6668 5.03995 12.0001C6.47995 11.7068 7.95995 11.8268 9.33329 12.3334C9.99995 12.5868 10.3733 13.3334 10.12 14.0534C9.86662 14.7468 9.09329 15.0934 8.39995 14.8401C7.42662 14.4134 6.33329 14.3868 5.33329 14.7601C4.90662 15.1201 4.90662 15.8668 4.90662 16.4534C4.90662 17.4401 5.39995 18.3601 6.23995 18.8934C6.94662 19.2534 7.73329 19.4401 8.51995 19.4268C8.31995 19.0801 8.14662 18.7201 7.99995 18.3468C7.89499 18.0042 7.92696 17.6343 8.08915 17.3148C8.25134 16.9953 8.5311 16.7512 8.86959 16.6338C9.20809 16.5163 9.57893 16.5347 9.90413 16.6851C10.2293 16.8355 10.4835 17.1061 10.6133 17.4401C11.1466 18.9601 12.5066 20.0001 14.1066 20.1734C15.9333 20.0801 17.56 19.0001 18.36 17.3334C18.6666 15.4934 20.1466 15.3334 21.7733 15.3334ZM24.44 25.2934L23.6133 23.5601L22.6666 23.7734L24 25.4401L24.44 25.2934ZM18.24 13.8134C18.2515 13.4728 18.1323 13.1407 17.9066 12.8853C17.681 12.6299 17.3661 12.4706 17.0266 12.4401C16.08 12.3868 15.16 12.7068 14.4533 13.3334C13.6933 14.1068 13.2933 15.1734 13.3333 16.2534C13.3333 16.607 13.4738 16.9462 13.7238 17.1962C13.9739 17.4463 14.313 17.5868 14.6666 17.5868C15.4266 17.5868 16 16.9868 16 16.2534C16 15.8934 16.0933 15.5334 16.3066 15.2401C16.4666 15.1068 16.6666 15.0401 16.88 15.0401C17.6133 15.0801 18.24 14.5334 18.24 13.8134Z" fill="#144278"/>
</svg>
