<svg width="32" height="32" viewBox="0 0 32 32" fill="none" xmlns="http://www.w3.org/2000/svg">
<path d="M21 25.5066C19.8934 25.5066 19 24.3866 19 22.9999C19 21.6266 19.8934 20.5066 21 20.5066C22.1067 20.5066 23 21.6266 23 22.9999C23 24.3866 22.1067 25.5066 21 25.5066ZM16 14.9999C14.3467 14.9999 13 13.8799 13 12.5066C13 11.1199 14.3467 9.99991 16 9.99991C17.6533 9.99991 19 11.1199 19 12.5066C19 13.8799 17.6533 14.9999 16 14.9999ZM11 25.5066C9.89335 25.5066 9.00002 24.3866 9.00002 22.9999C9.00002 21.6266 9.89335 20.5066 11 20.5066C12.1067 20.5066 13 21.6266 13 22.9999C13 24.3866 12.1067 25.5066 11 25.5066ZM16 10.9999C16.5467 10.9999 17 11.4532 17 11.9999C17 12.5466 16.5467 12.9999 16 12.9999C15.4534 12.9999 15 12.5466 15 11.9999C15 11.4532 15.4534 10.9999 16 10.9999ZM25 15.9999C24.5733 15.9999 24.16 16.0932 23.7867 16.2666C23.1467 15.4532 22.28 14.7599 21.24 14.2266C22 13.1599 22.4534 11.8666 22.4534 10.4666V10.3866C23.9067 10.0799 25 8.78657 25 7.22657C25 5.45324 23.5467 3.99991 21.7733 3.99991C20.8533 3.99991 20 4.38657 19.44 4.99991C18.4117 4.34636 17.2185 3.99927 16 3.99927C14.7816 3.99927 13.5883 4.34636 12.56 4.99991C12 4.38657 11.1467 3.99991 10.2267 3.99991C8.45335 3.99991 7.00002 5.45324 7.00002 7.22657C7.00002 8.77324 8.09335 10.0666 9.53335 10.3866V10.4666C9.53335 11.8666 10 13.1732 10.7467 14.2266C9.72002 14.7599 8.85335 15.4532 8.21335 16.2666C7.7577 16.0613 7.25784 15.9737 6.75954 16.0117C6.26124 16.0497 5.78045 16.2121 5.3612 16.4841C4.94195 16.7561 4.59765 17.1289 4.35984 17.5685C4.12203 18.008 3.99831 18.5002 4.00002 18.9999C4.00002 20.6666 5.33335 21.9999 7.00002 21.9999H7.08002C7.02668 22.3199 7.00002 22.6666 7.00002 22.9999C7.00002 25.7599 8.78668 27.9999 11 27.9999C12.3467 27.9999 13.5333 27.1599 14.2667 25.8799C14.8267 25.9599 15.4 25.9999 16 25.9999C16.6 25.9999 17.1734 25.9599 17.7334 25.8799C18.4667 27.1599 19.6533 27.9999 21 27.9999C23.2134 27.9999 25 25.7599 25 22.9999C25 22.6666 24.9734 22.3199 24.92 21.9999H25C26.6667 21.9999 28 20.6666 28 18.9999C28 17.3332 26.6667 15.9999 25 15.9999Z" fill="#144278"/>
</svg>
