<svg width="32" height="32" viewBox="0 0 32 32" fill="none" xmlns="http://www.w3.org/2000/svg">
<path d="M17.4667 2.66675C17.9971 2.66675 18.5058 2.87746 18.8809 3.25253C19.256 3.62761 19.4667 4.13631 19.4667 4.66675V7.91808C19.4667 8.47341 19.276 9.01141 18.9087 9.44475C18.576 9.83808 18.182 10.0481 17.902 10.1621C17.376 10.3767 16.8047 10.4307 16.4287 10.4554C16.0254 10.4807 15.5734 10.4841 15.1667 10.4867H15.118C14.6747 10.4901 14.2527 10.4934 13.8387 10.5154C12.9507 10.5621 12.4067 10.6854 12.1267 10.8387C12.0931 10.856 12.0618 10.8773 12.0334 10.9021C12.15 10.9467 12.3087 10.9954 12.516 11.0407C13.4614 11.2507 14.756 11.2921 16.3474 11.3434L16.732 11.3561C18.34 11.4087 20.2827 11.4854 21.83 11.9547C22.624 12.1947 23.4994 12.5901 24.19 13.2967C24.9374 14.0601 25.3334 15.0501 25.3334 16.1747C25.3334 17.3681 24.8594 18.4001 23.98 19.1294C23.1947 19.7801 22.2294 20.0714 21.396 20.2214C19.7994 20.5087 17.784 20.4147 16.0694 20.3347L15.9074 20.3274C13.9907 20.2381 12.4187 20.1774 11.318 20.3787C11.1253 20.411 10.936 20.4612 10.7527 20.5287C10.7194 20.5421 10.6909 20.5543 10.6674 20.5654C10.6714 20.6887 10.6874 20.7681 10.7 20.8147C10.7065 20.8423 10.7173 20.8686 10.732 20.8927C10.7354 20.8981 10.774 20.9567 10.952 21.0347C11.4014 21.2334 12.1934 21.3254 13.3514 21.2974C13.878 21.2841 14.4114 21.2507 14.9567 21.2154L15.01 21.2121C15.55 21.1774 16.1327 21.1401 16.65 21.1387C17.1187 21.1387 17.7807 21.1607 18.3814 21.3687C18.7014 21.4801 19.1474 21.6907 19.5214 22.1121C19.9354 22.5774 20.1334 23.1547 20.1334 23.7334V27.3334C20.1334 27.8638 19.9226 28.3726 19.5476 28.7476C19.1725 29.1227 18.6638 29.3334 18.1334 29.3334C17.6029 29.3334 17.0942 29.1227 16.7191 28.7476C16.3441 28.3726 16.1334 27.8638 16.1334 27.3334V25.1534C15.8441 25.1674 15.555 25.1841 15.266 25.2034L15.188 25.2087C14.6614 25.2421 14.0574 25.2814 13.4487 25.2961C12.24 25.3254 10.6654 25.2794 9.34002 24.6961C8.63402 24.3854 7.93135 23.8941 7.41535 23.1287C6.89535 22.3574 6.66669 21.4581 6.66669 20.5061C6.66669 19.3141 7.13735 18.2801 8.01402 17.5467C8.79802 16.8914 9.76402 16.5967 10.5987 16.4441C12.2054 16.1507 14.232 16.2447 15.9534 16.3247L16.0934 16.3314C18.0107 16.4207 19.584 16.4834 20.6867 16.2847C20.8798 16.253 21.0695 16.2032 21.2534 16.1361L21.3294 16.1041L21.3274 16.0907C21.284 16.0481 21.1154 15.9174 20.67 15.7827C19.7174 15.4941 18.3267 15.4101 16.6014 15.3534L16.1347 15.3394C14.6694 15.2941 12.986 15.2421 11.6507 14.9461C10.9027 14.7807 10.028 14.4927 9.31069 13.9094C8.50002 13.2494 8.00002 12.2961 8.00002 11.1454C8.00002 10.3154 8.18869 9.52541 8.61069 8.82875C9.03069 8.13541 9.61069 7.65541 10.2067 7.32941C11.3267 6.71675 12.6494 6.57275 13.628 6.52075C14.1474 6.49408 14.6587 6.49008 15.0907 6.48741L15.4667 6.48408V4.66675C15.4667 4.13631 15.6774 3.62761 16.0525 3.25253C16.4275 2.87746 16.9363 2.66675 17.4667 2.66675Z" fill="#144278"/>
</svg>
