<svg width="32" height="32" viewBox="0 0 32 32" fill="none" xmlns="http://www.w3.org/2000/svg">
<path d="M26.6667 29.3335V25.3335C26.6667 21.5628 26.6667 19.6762 25.4947 18.5055C24.324 17.3335 22.4374 17.3335 18.6667 17.3335L16 20.0002L13.3334 17.3335C9.56271 17.3335 7.67604 17.3335 6.50537 18.5055C5.33337 19.6762 5.33337 21.5628 5.33337 25.3335V29.3335M21.3334 17.3335V24.6668" stroke="#144278" stroke-width="2" stroke-linecap="round" stroke-linejoin="round"/>
<path d="M11.3334 17.3334V22.6667M11.3334 22.6667C12.0407 22.6667 12.7189 22.9477 13.219 23.4478C13.7191 23.9479 14.0001 24.6262 14.0001 25.3334V26.6667M11.3334 22.6667C10.6262 22.6667 9.94789 22.9477 9.4478 23.4478C8.9477 23.9479 8.66675 24.6262 8.66675 25.3334V26.6667M20.6667 8.66675V7.33341C20.6667 6.72058 20.546 6.11374 20.3115 5.54756C20.077 4.98137 19.7333 4.46692 19.2999 4.03358C18.8666 3.60024 18.3521 3.2565 17.7859 3.02198C17.2198 2.78745 16.6129 2.66675 16.0001 2.66675C15.3872 2.66675 14.7804 2.78745 14.2142 3.02198C13.648 3.2565 13.1336 3.60024 12.7003 4.03358C12.2669 4.46692 11.9232 4.98137 11.6886 5.54756C11.4541 6.11374 11.3334 6.72058 11.3334 7.33341V8.66675C11.3334 9.27958 11.4541 9.88642 11.6886 10.4526C11.9232 11.0188 12.2669 11.5332 12.7003 11.9666C13.1336 12.3999 13.648 12.7437 14.2142 12.9782C14.7804 13.2127 15.3872 13.3334 16.0001 13.3334C16.6129 13.3334 17.2198 13.2127 17.7859 12.9782C18.3521 12.7437 18.8666 12.3999 19.2999 11.9666C19.7333 11.5332 20.077 11.0188 20.3115 10.4526C20.546 9.88642 20.6667 9.27958 20.6667 8.66675ZM22.3334 25.6667C22.3334 25.932 22.2281 26.1863 22.0405 26.3739C21.853 26.5614 21.5986 26.6667 21.3334 26.6667C21.0682 26.6667 20.8138 26.5614 20.6263 26.3739C20.4388 26.1863 20.3334 25.932 20.3334 25.6667C20.3334 25.4015 20.4388 25.1472 20.6263 24.9596C20.8138 24.7721 21.0682 24.6667 21.3334 24.6667C21.5986 24.6667 21.853 24.7721 22.0405 24.9596C22.2281 25.1472 22.3334 25.4015 22.3334 25.6667Z" stroke="#144278" stroke-width="2" stroke-linecap="round" stroke-linejoin="round"/>
</svg>
