<svg width="32" height="32" viewBox="0 0 32 32" fill="none" xmlns="http://www.w3.org/2000/svg">
<path d="M8 11.3334C8 9.03487 8.91309 6.83047 10.5384 5.20516C12.1637 3.57984 14.3681 2.66675 16.6667 2.66675C18.9652 2.66675 21.1696 3.57984 22.7949 5.20516C24.4202 6.83047 25.3333 9.03487 25.3333 11.3334C25.3333 19.3334 17.3333 19.3334 17.3333 24.6667C17.3333 25.2796 17.2126 25.8864 16.9781 26.4526C16.7436 27.0188 16.3998 27.5332 15.9665 27.9666C15.5332 28.3999 15.0187 28.7437 14.4525 28.9782C13.8863 29.2127 13.2795 29.3334 12.6667 29.3334C12.0538 29.3334 11.447 29.2127 10.8808 28.9782C10.3146 28.7437 9.80018 28.3999 9.36684 27.9666C8.9335 27.5332 8.58975 27.0188 8.35523 26.4526C8.12071 25.8864 8 25.2796 8 24.6667" stroke="#144278" stroke-width="2" stroke-linecap="round" stroke-linejoin="round"/>
<path d="M20 11.3333C20 10.4493 19.6488 9.60143 19.0237 8.97631C18.3985 8.35119 17.5507 8 16.6666 8C15.7826 8 14.9347 8.35119 14.3096 8.97631C13.6845 9.60143 13.3333 10.4493 13.3333 11.3333V12.6667C14.0406 12.6667 14.7188 12.9476 15.2189 13.4477C15.719 13.9478 16 14.6261 16 15.3333C16 16.0406 15.719 16.7189 15.2189 17.219C14.7188 17.719 14.0406 18 13.3333 18" stroke="#144278" stroke-width="2" stroke-linecap="round" stroke-linejoin="round"/>
</svg>
