<svg width="25" height="24" viewBox="0 0 25 24" fill="none" xmlns="http://www.w3.org/2000/svg">
<path d="M19.5 4H5.5C4.70435 4 3.94129 4.31607 3.37868 4.87868C2.81607 5.44129 2.5 6.20435 2.5 7V17C2.5 17.7956 2.81607 18.5587 3.37868 19.1213C3.94129 19.6839 4.70435 20 5.5 20H19.5C20.2956 20 21.0587 19.6839 21.6213 19.1213C22.1839 18.5587 22.5 17.7956 22.5 17V7C22.5 6.20435 22.1839 5.44129 21.6213 4.87868C21.0587 4.31607 20.2956 4 19.5 4ZM18.83 6L12.5 10.75L6.17 6H18.83ZM19.5 18H5.5C5.23478 18 4.98043 17.8946 4.79289 17.7071C4.60536 17.5196 4.5 17.2652 4.5 17V7.25L11.9 12.8C12.0731 12.9298 12.2836 13 12.5 13C12.7164 13 12.9269 12.9298 13.1 12.8L20.5 7.25V17C20.5 17.2652 20.3946 17.5196 20.2071 17.7071C20.0196 17.8946 19.7652 18 19.5 18Z" fill="#B9D9FF"/>
</svg>
