<svg width="32" height="32" viewBox="0 0 32 32" fill="none" xmlns="http://www.w3.org/2000/svg">
<path d="M13.3334 22.6666C13.7112 22.6666 14.028 22.5386 14.284 22.2826C14.54 22.0266 14.6676 21.7102 14.6667 21.3333C14.6667 20.3333 14.428 19.4169 13.9507 18.584C13.4734 17.7511 12.8232 17.0897 12 16.6V21.3333C12 21.7111 12.128 22.028 12.384 22.284C12.64 22.54 12.9565 22.6675 13.3334 22.6666ZM18.6667 22.6666C19.0445 22.6666 19.3614 22.5386 19.6174 22.2826C19.8734 22.0266 20.0009 21.7102 20 21.3333V16.6C19.1778 17.0889 18.5276 17.7502 18.0494 18.584C17.5712 19.4177 17.3325 20.3342 17.3334 21.3333C17.3334 21.7111 17.4614 22.028 17.7174 22.284C17.9734 22.54 18.2898 22.6675 18.6667 22.6666ZM5.33337 21.1333V7.19997C4.93337 6.75553 4.56137 6.28886 4.21737 5.79997C3.87337 5.31108 3.55649 4.78886 3.26671 4.2333C3.11115 3.92219 3.11115 3.61686 3.26671 3.3173C3.42226 3.01775 3.66671 2.80086 4.00004 2.66664C4.33337 2.53241 4.66671 2.5213 5.00004 2.6333C5.33337 2.7453 5.58893 2.95641 5.76671 3.26664C6.81115 5.1333 8.23915 6.61108 10.0507 7.69997C11.8623 8.78886 13.8454 9.3333 16 9.3333C18.1112 9.3333 20.0503 8.81108 21.8174 7.76664C23.5845 6.72219 25.0009 5.31108 26.0667 3.5333C26.2889 3.17775 26.5725 2.90575 26.9174 2.7173C27.2623 2.52886 27.6232 2.51197 28 2.66664C28.3556 2.82219 28.5889 3.07775 28.7 3.4333C28.8112 3.78886 28.7778 4.1333 28.6 4.46664C28.3334 4.97775 28.0387 5.45553 27.716 5.89997C27.3934 6.34441 27.0436 6.77775 26.6667 7.19997V21.1333C26.6667 21.9111 26.8503 22.628 27.2174 23.284C27.5845 23.94 28.0898 24.4786 28.7334 24.9C29.0223 25.0777 29.2223 25.3333 29.3334 25.6666C29.4445 26 29.4445 26.3333 29.3334 26.6666C29.2223 27.0222 29.0169 27.2835 28.7174 27.4506C28.4178 27.6177 28.112 27.6231 27.8 27.4666C26.6223 26.8444 25.6947 25.972 25.0174 24.8493C24.34 23.7266 24.0009 22.488 24 21.1333V9.5333C22.8223 10.3111 21.5609 10.9169 20.216 11.3506C18.8712 11.7844 17.4658 12.0009 16 12C14.5343 11.9991 13.1232 11.7822 11.7667 11.3493C10.4103 10.9164 9.15471 10.3111 8.00004 9.5333V21.1333C8.00004 22.4889 7.6556 23.728 6.96671 24.8506C6.27782 25.9733 5.34449 26.8453 4.16671 27.4666C3.8556 27.6222 3.5556 27.6169 3.26671 27.4506C2.97782 27.2844 2.77782 27.0231 2.66671 26.6666C2.5556 26.3333 2.5556 26 2.66671 25.6666C2.77782 25.3333 2.97782 25.0777 3.26671 24.9C3.91115 24.5 4.41693 23.9666 4.78404 23.3C5.15115 22.6333 5.33426 21.9111 5.33337 21.1333ZM13.3334 25.3333C12.2223 25.3333 11.2778 24.9444 10.5 24.1666C9.72226 23.3889 9.33337 22.4444 9.33337 21.3333V14.2333C9.33337 13.9 9.46137 13.6333 9.71737 13.4333C9.97337 13.2333 10.2565 13.1777 10.5667 13.2666L11.1334 13.4C12.1556 13.6444 13.0836 14.0724 13.9174 14.684C14.7512 15.2955 15.4454 16.0231 16 16.8666C16.5556 16.0222 17.2503 15.2942 18.084 14.6826C18.9178 14.0711 19.8454 13.6435 20.8667 13.4L21.4334 13.2666C21.7445 13.1777 22.028 13.2333 22.284 13.4333C22.54 13.6333 22.6676 13.9 22.6667 14.2333V21.3333C22.6667 22.4444 22.2778 23.3889 21.5 24.1666C20.7223 24.9444 19.7778 25.3333 18.6667 25.3333C18.1556 25.3333 17.672 25.2386 17.216 25.0493C16.76 24.86 16.3547 24.6106 16 24.3013C15.6445 24.6124 15.2387 24.8626 14.7827 25.052C14.3267 25.2413 13.8436 25.3351 13.3334 25.3333Z" fill="#144278"/>
</svg>
