<svg width="32" height="32" viewBox="0 0 32 32" fill="none" xmlns="http://www.w3.org/2000/svg">
<path d="M16 6.40015C19.3444 6.40015 22.3156 7.90855 24.4312 9.77575C25.4932 10.7129 26.368 11.7653 26.9848 12.8129C27.5908 13.8413 28 14.9561 28 16.0001C28 17.0441 27.592 18.1589 26.9848 19.1873C26.368 20.2349 25.4932 21.2873 24.4312 22.2245C22.3156 24.0917 19.3432 25.6001 16 25.6001C12.6556 25.6001 9.6844 24.0917 7.5688 22.2245C6.5068 21.2873 5.632 20.2349 5.0152 19.1873C4.408 18.1589 4 17.0441 4 16.0001C4 14.9561 4.408 13.8413 5.0152 12.8129C5.632 11.7653 6.5068 10.7129 7.5688 9.77575C9.6844 7.90855 12.6568 6.40015 16 6.40015ZM16 8.80015C13.3792 8.80015 10.9504 9.99175 9.1576 11.5745C8.2648 12.3617 7.5592 13.2221 7.0828 14.0309C6.5956 14.8589 6.4 15.5441 6.4 16.0001C6.4 16.4561 6.5956 17.1413 7.0828 17.9693C7.5592 18.7781 8.2648 19.6373 9.1576 20.4257C10.9504 22.0085 13.3792 23.2001 16 23.2001C18.6208 23.2001 21.0496 22.0085 22.8424 20.4257C23.7352 19.6373 24.4408 18.7781 24.9172 17.9693C25.4044 17.1413 25.6 16.4561 25.6 16.0001C25.6 15.5441 25.4044 14.8589 24.9172 14.0309C24.4408 13.2221 23.7352 12.3629 22.8424 11.5745C21.0496 9.99175 18.6208 8.80015 16 8.80015ZM16 12.4001C16.1056 12.4001 16.21 12.4045 16.3132 12.4133C16.0527 12.8704 15.9495 13.4003 16.0196 13.9217C16.0897 14.4431 16.3292 14.927 16.7011 15.299C17.0731 15.671 17.557 15.9104 18.0784 15.9805C18.5998 16.0506 19.1298 15.9475 19.5868 15.6869C19.6499 16.4095 19.4933 17.1344 19.1374 17.7664C18.7815 18.3985 18.243 18.9083 17.5924 19.229C16.9418 19.5498 16.2095 19.6665 15.4915 19.564C14.7734 19.4614 14.1031 19.1444 13.5683 18.6543C13.0335 18.1643 12.6592 17.5241 12.4945 16.8177C12.3298 16.1113 12.3823 15.3716 12.6452 14.6956C12.908 14.0195 13.369 13.4386 13.9676 13.029C14.5662 12.6194 15.2746 12.4002 16 12.4001Z" fill="#144278"/>
</svg>
