<svg width="522" height="455" viewBox="0 0 522 455" fill="none" xmlns="http://www.w3.org/2000/svg">
<path d="M46.2976 161.202C59.7906 100.028 120.527 54.2767 165.148 54.1091C215.433 53.9175 258.282 92.4249 292.057 95.8254C321.844 98.8308 358.731 55.0311 411.781 66.0828C454.882 75.0631 478.827 139.505 471.644 180.384C458.318 256.249 423.754 301.557 375.481 310.31C354.337 314.154 344.352 307.46 333.96 309.412C287.711 318.069 256.427 376.057 156.768 381.254C80.1438 385.169 17.0369 293.846 46.2976 161.202Z" fill="#217CE6"/>
<path opacity="0.9" d="M45.9799 161.693C59.4729 100.52 120.209 54.7683 164.831 54.6007C215.115 54.4091 257.965 92.9165 291.739 96.317C321.526 99.3224 358.414 55.5227 411.464 66.5744C454.565 75.5546 478.51 139.997 471.326 180.875C458.001 256.74 423.436 302.049 375.163 310.802C354.02 314.645 344.035 307.952 333.643 309.904C287.393 318.561 256.109 376.549 156.45 381.746C79.8261 385.661 16.7191 294.338 45.9799 161.693Z" fill="white"/>
<path d="M253.816 425.078C382.021 425.078 485.951 419.009 485.951 411.524C485.951 404.038 382.021 397.969 253.816 397.969C125.612 397.969 21.6821 404.038 21.6821 411.524C21.6821 419.009 125.612 425.078 253.816 425.078Z" fill="#F5F5F5"/>
<path d="M389.644 88.4017H350.662L323.125 403.609H362.108C367.579 403.503 372.822 401.399 376.85 397.694C380.877 393.988 383.409 388.937 383.969 383.493L408.022 108.506C408.301 105.943 408.032 103.351 407.231 100.901C406.43 98.4517 405.117 96.2007 403.378 94.2985C401.639 92.3963 399.515 90.8866 397.146 89.8698C394.778 88.853 392.221 88.3525 389.644 88.4017Z" fill="#217CE6"/>
<path d="M381.695 88.4016H249.758C244.286 88.5041 239.042 90.605 235.012 94.3084C230.983 98.0117 228.447 103.061 227.884 108.505L203.831 383.493C203.554 386.053 203.825 388.643 204.625 391.091C205.425 393.539 206.736 395.788 208.472 397.691C210.208 399.593 212.328 401.104 214.692 402.125C217.057 403.145 219.611 403.651 222.185 403.609H354.11C359.574 403.492 364.808 401.383 368.827 397.679C372.846 393.975 375.374 388.93 375.936 383.493L399.989 108.505C400.267 105.95 399.999 103.365 399.203 100.922C398.408 98.4778 397.101 96.2311 395.372 94.3303C393.642 92.4294 391.528 90.9179 389.17 89.8958C386.812 88.8737 384.264 88.3644 381.695 88.4016Z" fill="#217CE6"/>
<path opacity="0.3" d="M381.695 88.4016H249.758C244.286 88.5041 239.042 90.605 235.012 94.3084C230.983 98.0117 228.447 103.061 227.884 108.505L203.831 383.493C203.554 386.053 203.825 388.643 204.625 391.091C205.425 393.539 206.736 395.788 208.472 397.691C210.208 399.593 212.328 401.104 214.692 402.125C217.057 403.145 219.611 403.651 222.185 403.609H354.11C359.574 403.492 364.808 401.383 368.827 397.679C372.846 393.975 375.374 388.93 375.936 383.493L399.989 108.505C400.267 105.95 399.999 103.365 399.203 100.922C398.408 98.4778 397.101 96.2311 395.372 94.3303C393.642 92.4294 391.528 90.9179 389.17 89.8958C386.812 88.8737 384.264 88.3644 381.695 88.4016Z" fill="white"/>
<path opacity="0.4" d="M381.132 94.8435H346.34C345.303 94.852 344.292 95.1715 343.438 95.7606C342.584 96.3498 341.927 97.1815 341.551 98.1483C340.179 101.699 337.78 104.761 334.66 106.943C331.54 109.125 327.841 110.327 324.035 110.397H303.514C299.93 110.47 296.432 109.289 293.624 107.06C290.816 104.831 288.873 101.692 288.13 98.1842C287.932 97.2351 287.408 96.3852 286.649 95.7817C285.89 95.1782 284.944 94.859 283.975 94.8795H249.195C245.476 94.9452 241.911 96.3718 239.173 98.8894C236.435 101.407 234.715 104.841 234.337 108.541L210.273 383.529C210.08 385.27 210.261 387.032 210.803 388.698C211.345 390.364 212.236 391.895 213.417 393.189C214.598 394.483 216.041 395.51 217.65 396.202C219.259 396.895 220.997 397.236 222.748 397.203H354.685C358.405 397.134 361.97 395.705 364.708 393.186C367.446 390.666 369.166 387.231 369.543 383.529L393.595 108.541C393.791 106.799 393.614 105.036 393.074 103.368C392.534 101.7 391.645 100.167 390.465 98.8701C389.285 97.5736 387.842 96.5438 386.233 95.8494C384.624 95.155 382.884 94.8121 381.132 94.8435Z" fill="white"/>
<path d="M348.255 244.263H255.924C255.289 244.274 254.66 244.149 254.077 243.898C253.494 243.646 252.971 243.274 252.543 242.805C252.115 242.336 251.792 241.782 251.595 241.179C251.397 240.575 251.33 239.937 251.398 239.306L251.865 234.014C252.002 232.672 252.626 231.426 253.619 230.513C254.611 229.6 255.904 229.082 257.253 229.057H349.596C350.231 229.046 350.861 229.171 351.443 229.422C352.026 229.673 352.549 230.046 352.977 230.515C353.405 230.983 353.728 231.538 353.926 232.141C354.123 232.744 354.19 233.383 354.122 234.014L353.667 239.306C353.527 240.651 352.899 241.898 351.902 242.811C350.904 243.725 349.607 244.241 348.255 244.263Z" fill="white"/>
<path d="M346.268 267.013H253.924C253.29 267.024 252.661 266.899 252.079 266.648C251.497 266.396 250.975 266.024 250.547 265.555C250.12 265.086 249.798 264.531 249.602 263.928C249.406 263.325 249.341 262.687 249.411 262.056L249.866 256.764C250.005 255.423 250.63 254.179 251.622 253.266C252.614 252.353 253.906 251.834 255.253 251.807H347.597C348.232 251.796 348.861 251.921 349.444 252.172C350.027 252.424 350.549 252.796 350.977 253.265C351.405 253.733 351.729 254.288 351.926 254.891C352.124 255.494 352.191 256.133 352.123 256.764L351.656 262.056C351.516 263.397 350.891 264.641 349.899 265.554C348.907 266.466 347.616 266.985 346.268 267.013Z" fill="white"/>
<path opacity="0.1" d="M320.204 99.9923C320.052 101.482 319.358 102.865 318.255 103.878C317.152 104.891 315.715 105.464 314.218 105.488C313.514 105.501 312.815 105.364 312.169 105.085C311.522 104.807 310.942 104.394 310.468 103.874C309.993 103.354 309.635 102.739 309.416 102.07C309.198 101.4 309.125 100.692 309.201 99.9923C309.353 98.5022 310.047 97.1197 311.15 96.1068C312.254 95.0939 313.69 94.5209 315.188 94.4964C315.891 94.4837 316.59 94.6211 317.236 94.8995C317.883 95.1778 318.463 95.5907 318.938 96.1107C319.412 96.6306 319.771 97.2457 319.989 97.915C320.207 98.5843 320.281 99.2925 320.204 99.9923Z" fill="black"/>
<path opacity="0.1" d="M317.714 99.9922C317.629 100.806 317.25 101.56 316.648 102.114C316.046 102.667 315.263 102.982 314.445 102.998C314.06 103.005 313.678 102.93 313.324 102.778C312.971 102.626 312.653 102.4 312.394 102.116C312.134 101.831 311.938 101.495 311.819 101.129C311.7 100.762 311.661 100.375 311.704 99.9922C311.786 99.1778 312.164 98.4219 312.766 97.8679C313.369 97.3138 314.154 97.0003 314.972 96.9869C315.356 96.9813 315.738 97.0574 316.091 97.2101C316.443 97.3628 316.76 97.5886 317.019 97.8727C317.278 98.1567 317.474 98.4925 317.594 98.8579C317.714 99.2233 317.754 99.6099 317.714 99.9922Z" fill="black"/>
<g opacity="0.8">
<path d="M364.885 109.164C364.679 109.167 364.474 109.126 364.284 109.044C364.094 108.962 363.924 108.84 363.785 108.687C363.646 108.535 363.541 108.354 363.477 108.157C363.412 107.961 363.391 107.753 363.413 107.548L363.676 104.602C363.72 104.167 363.922 103.763 364.245 103.467C364.567 103.171 364.987 103.004 365.424 102.998C365.63 102.995 365.833 103.036 366.022 103.117C366.211 103.199 366.38 103.319 366.519 103.471C366.658 103.622 366.764 103.801 366.829 103.996C366.894 104.191 366.917 104.398 366.897 104.602L366.633 107.548C366.589 107.984 366.388 108.389 366.066 108.687C365.744 108.985 365.324 109.155 364.885 109.164Z" fill="white"/>
<path d="M377.768 109.164C377.561 109.167 377.356 109.126 377.166 109.044C376.977 108.962 376.807 108.84 376.668 108.687C376.528 108.535 376.423 108.354 376.359 108.158C376.295 107.961 376.273 107.753 376.295 107.548L376.906 100.639C376.95 100.204 377.152 99.7997 377.474 99.5039C377.797 99.2081 378.216 99.041 378.654 99.0344C378.859 99.0317 379.063 99.0725 379.252 99.154C379.44 99.2354 379.61 99.3558 379.749 99.5073C379.888 99.6587 379.993 99.8378 380.058 100.033C380.123 100.228 380.146 100.434 380.126 100.639L379.516 107.548C379.472 107.984 379.27 108.389 378.948 108.687C378.626 108.985 378.206 109.155 377.768 109.164Z" fill="white"/>
<path d="M371.326 109.164C371.12 109.167 370.915 109.126 370.725 109.044C370.536 108.962 370.366 108.84 370.226 108.687C370.087 108.535 369.982 108.354 369.918 108.157C369.854 107.961 369.832 107.753 369.854 107.548L370.285 102.627C370.329 102.188 370.533 101.781 370.857 101.483C371.182 101.185 371.604 101.017 372.045 101.01C372.251 101.007 372.455 101.048 372.645 101.13C372.834 101.213 373.003 101.334 373.141 101.487C373.28 101.64 373.384 101.821 373.446 102.018C373.509 102.214 373.529 102.422 373.505 102.627L373.074 107.548C373.031 107.984 372.829 108.389 372.507 108.687C372.185 108.985 371.765 109.155 371.326 109.164Z" fill="white"/>
</g>
<g opacity="0.8">
<path d="M254.583 109.164H246.489C246.373 109.167 246.257 109.144 246.15 109.098C246.043 109.052 245.947 108.984 245.869 108.897C245.791 108.811 245.732 108.709 245.696 108.598C245.661 108.487 245.65 108.37 245.663 108.254L246.034 103.908C246.061 103.661 246.176 103.432 246.359 103.265C246.542 103.097 246.78 103.002 247.028 102.998H255.122C255.238 102.995 255.354 103.018 255.461 103.064C255.568 103.11 255.664 103.178 255.742 103.264C255.82 103.351 255.879 103.453 255.915 103.564C255.95 103.675 255.961 103.792 255.948 103.908L255.565 108.254C255.544 108.501 255.431 108.731 255.25 108.899C255.068 109.068 254.83 109.162 254.583 109.164Z" fill="white"/>
<path d="M258.33 107.979C258.213 107.981 258.097 107.958 257.99 107.913C257.882 107.867 257.786 107.798 257.706 107.712C257.627 107.626 257.567 107.525 257.53 107.414C257.493 107.303 257.48 107.185 257.492 107.069L257.672 105.081C257.695 104.833 257.81 104.603 257.994 104.435C258.177 104.267 258.417 104.173 258.665 104.171C258.782 104.169 258.898 104.191 259.005 104.237C259.112 104.283 259.208 104.352 259.286 104.438C259.364 104.524 259.423 104.626 259.459 104.737C259.494 104.848 259.505 104.965 259.492 105.081L259.324 107.069C259.298 107.315 259.182 107.544 258.999 107.712C258.816 107.879 258.578 107.974 258.33 107.979Z" fill="white"/>
</g>
<path d="M333.041 209.456C349.152 194.032 350.759 169.562 336.63 154.802C322.501 140.041 297.987 140.579 281.876 156.003C265.766 171.428 264.159 195.898 278.288 210.658C292.416 225.419 316.931 224.881 333.041 209.456Z" fill="white"/>
<path d="M307.597 181.258C297.444 181.258 288.86 185.125 288.13 193.519L287.316 202.846H324.107L324.921 193.519C325.651 185.125 317.762 181.258 307.597 181.258Z" fill="#217CE6"/>
<path d="M307.932 177.414C312.649 177.414 314.828 173.594 315.235 168.877C315.642 164.159 314.146 160.34 309.429 160.34C304.712 160.34 302.545 164.171 302.126 168.877C301.706 173.582 303.215 177.414 307.932 177.414Z" fill="#217CE6"/>
<path d="M344.041 236.337C341.539 236.337 339.42 237.295 339.252 239.366L339.049 241.677H348.136L348.339 239.366C348.507 237.295 346.555 236.337 344.041 236.337Z" fill="#217CE6"/>
<path d="M344.125 235.391C345.322 235.391 345.825 234.445 345.933 233.283C346.041 232.122 345.657 231.176 344.496 231.176C343.335 231.176 342.796 232.122 342.688 233.283C342.581 234.445 342.964 235.391 344.125 235.391Z" fill="#217CE6"/>
<path d="M316.073 289.763H280.156C279.182 289.781 278.216 289.591 277.321 289.206C276.426 288.821 275.623 288.25 274.967 287.53C274.31 286.811 273.813 285.96 273.511 285.034C273.208 284.108 273.106 283.128 273.212 282.16C273.425 280.101 274.384 278.191 275.908 276.79C277.432 275.39 279.416 274.595 281.485 274.557H317.402C318.376 274.541 319.341 274.732 320.235 275.118C321.129 275.503 321.931 276.075 322.587 276.793C323.244 277.512 323.74 278.362 324.044 279.288C324.347 280.213 324.45 281.192 324.346 282.16C324.136 284.22 323.178 286.131 321.653 287.532C320.129 288.933 318.144 289.727 316.073 289.763Z" fill="#217CE6"/>
<path d="M311.727 374.561H273.284C272.252 374.589 271.227 374.394 270.278 373.99C269.328 373.586 268.477 372.983 267.782 372.22C267.087 371.458 266.564 370.555 266.249 369.572C265.934 368.59 265.834 367.551 265.957 366.526L268.411 338.484C268.63 336.309 269.64 334.289 271.249 332.809C272.857 331.328 274.953 330.489 277.139 330.45H315.595C316.623 330.432 317.644 330.633 318.588 331.04C319.533 331.447 320.38 332.051 321.073 332.811C321.767 333.571 322.29 334.47 322.609 335.448C322.927 336.427 323.034 337.461 322.922 338.484L320.467 366.526C320.243 368.702 319.23 370.72 317.62 372.2C316.01 373.68 313.914 374.52 311.727 374.561Z" fill="#217CE6"/>
<g opacity="0.6">
<path d="M299.875 345.561C299.938 344.949 299.87 344.33 299.676 343.747C299.482 343.163 299.166 342.627 298.75 342.174C298.333 341.721 297.826 341.362 297.26 341.12C296.694 340.878 296.084 340.759 295.469 340.771C294.159 340.79 292.902 341.287 291.933 342.17C290.965 343.052 290.353 344.258 290.213 345.561C290.137 346.289 290.245 347.025 290.527 347.701C290.81 348.377 291.257 348.971 291.829 349.428L290.991 359.091C290.95 359.457 290.988 359.827 291.102 360.178C291.215 360.528 291.403 360.85 291.651 361.122C291.899 361.394 292.203 361.61 292.541 361.755C292.879 361.901 293.245 361.972 293.613 361.965C294.393 361.948 295.14 361.647 295.714 361.117C296.287 360.588 296.647 359.867 296.726 359.091L297.576 349.428C298.217 348.99 298.755 348.416 299.153 347.748C299.55 347.08 299.796 346.334 299.875 345.561Z" fill="white"/>
</g>
<path d="M315.93 336.293H310.973L312.17 322.415C312.379 320.489 312.177 318.541 311.575 316.699C310.974 314.858 309.988 313.165 308.682 311.734C307.377 310.302 305.782 309.165 304.003 308.397C302.225 307.63 300.303 307.249 298.366 307.281C294.25 307.361 290.305 308.944 287.275 311.732C284.245 314.52 282.339 318.32 281.916 322.415L280.719 336.293H275.762L276.959 322.415C277.517 316.98 280.045 311.937 284.066 308.237C288.087 304.538 293.323 302.439 298.785 302.336C301.356 302.292 303.907 302.795 306.268 303.813C308.63 304.831 310.747 306.339 312.481 308.239C314.215 310.138 315.524 312.384 316.323 314.828C317.122 317.273 317.392 319.859 317.115 322.415L315.93 336.293Z" fill="#217CE6"/>
<path d="M344.652 257.59L344.807 256.237C344.839 255.923 344.805 255.606 344.706 255.307C344.607 255.008 344.446 254.733 344.234 254.5C344.021 254.267 343.762 254.082 343.473 253.956C343.184 253.83 342.872 253.767 342.557 253.77C341.886 253.784 341.243 254.042 340.749 254.497C340.256 254.951 339.945 255.57 339.875 256.237L339.755 257.566C339.487 257.573 339.231 257.678 339.034 257.861C338.838 258.044 338.716 258.293 338.689 258.56L338.378 262.152C338.363 262.277 338.374 262.405 338.413 262.525C338.451 262.646 338.515 262.757 338.601 262.85C338.686 262.943 338.791 263.017 338.907 263.066C339.024 263.115 339.15 263.138 339.276 263.134H344.209C344.476 263.129 344.732 263.027 344.928 262.846C345.125 262.665 345.248 262.418 345.274 262.152L345.586 258.56C345.596 258.433 345.579 258.305 345.536 258.185C345.494 258.065 345.426 257.956 345.337 257.864C345.249 257.772 345.142 257.701 345.024 257.653C344.906 257.606 344.779 257.584 344.652 257.59ZM342.413 254.405C342.65 254.402 342.886 254.449 343.104 254.544C343.322 254.638 343.518 254.777 343.678 254.953C343.838 255.128 343.96 255.335 344.035 255.56C344.11 255.786 344.137 256.024 344.113 256.261L343.993 257.59H340.282L340.402 256.261C340.454 255.76 340.687 255.295 341.057 254.953C341.427 254.612 341.909 254.417 342.413 254.405Z" fill="#217CE6"/>
<path d="M270.399 259.015L268.674 258.656C268.626 258.646 268.581 258.625 268.542 258.595C268.504 258.566 268.472 258.527 268.45 258.483C268.428 258.44 268.416 258.391 268.416 258.342C268.415 258.293 268.426 258.245 268.447 258.201L269.165 256.5C269.195 256.427 269.198 256.345 269.173 256.27C269.149 256.195 269.098 256.13 269.031 256.089C268.963 256.047 268.883 256.031 268.805 256.042C268.727 256.054 268.655 256.093 268.603 256.153L267.298 257.494C267.266 257.534 267.226 257.566 267.181 257.588C267.135 257.611 267.085 257.622 267.034 257.622C266.984 257.622 266.933 257.611 266.888 257.588C266.842 257.566 266.802 257.534 266.771 257.494L265.705 256.153C265.478 255.866 264.987 256.153 265.071 256.5L265.49 258.201C265.502 258.25 265.504 258.302 265.495 258.352C265.487 258.403 265.468 258.451 265.44 258.493C265.411 258.536 265.375 258.573 265.332 258.601C265.289 258.628 265.241 258.647 265.19 258.656L263.407 259.015C263.023 259.087 262.976 259.625 263.347 259.697L265.071 260.057C265.119 260.066 265.164 260.086 265.203 260.116C265.242 260.146 265.273 260.185 265.294 260.229C265.315 260.274 265.326 260.322 265.324 260.371C265.323 260.42 265.31 260.468 265.286 260.512L264.592 262.224C264.562 262.297 264.559 262.379 264.584 262.454C264.608 262.53 264.659 262.594 264.726 262.635C264.794 262.677 264.874 262.693 264.952 262.682C265.031 262.67 265.102 262.631 265.155 262.571L266.46 261.23C266.493 261.194 266.534 261.165 266.579 261.145C266.625 261.125 266.673 261.115 266.723 261.115C266.772 261.115 266.821 261.125 266.867 261.145C266.912 261.165 266.953 261.194 266.986 261.23L268.052 262.571C268.279 262.858 268.77 262.571 268.674 262.224L268.255 260.523C268.238 260.422 268.26 260.318 268.319 260.233C268.377 260.148 268.466 260.089 268.567 260.069L270.351 259.709C270.722 259.625 270.77 259.087 270.399 259.015Z" fill="#263238"/>
<path d="M281.724 259.015L280 258.656C279.952 258.646 279.907 258.625 279.868 258.595C279.829 258.566 279.798 258.527 279.776 258.483C279.754 258.44 279.742 258.391 279.742 258.342C279.741 258.293 279.752 258.245 279.773 258.201L280.491 256.5C280.521 256.427 280.524 256.345 280.499 256.27C280.475 256.195 280.424 256.13 280.357 256.089C280.289 256.047 280.209 256.031 280.131 256.042C280.052 256.054 279.981 256.093 279.929 256.153L278.624 257.494C278.592 257.534 278.552 257.566 278.507 257.588C278.461 257.611 278.411 257.622 278.36 257.622C278.309 257.622 278.259 257.611 278.214 257.588C278.168 257.566 278.128 257.534 278.097 257.494L277.031 256.153C276.804 255.866 276.313 256.153 276.409 256.5L276.828 258.201C276.838 258.251 276.838 258.303 276.828 258.353C276.818 258.404 276.798 258.452 276.769 258.494C276.74 258.537 276.702 258.573 276.659 258.601C276.616 258.628 276.567 258.647 276.516 258.656L274.732 259.015C274.349 259.087 274.301 259.625 274.673 259.697L276.397 260.057C276.445 260.066 276.49 260.087 276.529 260.117C276.568 260.147 276.599 260.185 276.621 260.229C276.643 260.273 276.655 260.321 276.655 260.37C276.656 260.419 276.645 260.467 276.624 260.512L275.906 262.212C275.876 262.285 275.873 262.367 275.898 262.442C275.922 262.518 275.973 262.582 276.04 262.623C276.108 262.665 276.188 262.681 276.266 262.67C276.345 262.658 276.416 262.619 276.469 262.559L277.774 261.218C277.807 261.182 277.848 261.153 277.893 261.133C277.939 261.113 277.987 261.103 278.037 261.103C278.086 261.103 278.135 261.113 278.181 261.133C278.226 261.153 278.267 261.182 278.3 261.218L279.366 262.559C279.593 262.846 280.084 262.559 280 262.212L279.581 260.512C279.571 260.462 279.57 260.411 279.58 260.361C279.589 260.311 279.608 260.264 279.636 260.222C279.664 260.179 279.7 260.143 279.742 260.115C279.784 260.086 279.831 260.067 279.881 260.057L281.665 259.697C282.048 259.625 282.096 259.087 281.724 259.015Z" fill="#263238"/>
<path d="M293.05 259.015L291.338 258.656C291.289 258.648 291.242 258.629 291.202 258.6C291.162 258.57 291.129 258.532 291.107 258.487C291.084 258.442 291.073 258.393 291.074 258.343C291.075 258.293 291.087 258.245 291.111 258.201L291.829 256.5C291.875 256.424 291.889 256.333 291.868 256.246C291.846 256.16 291.792 256.085 291.715 256.039C291.639 255.993 291.548 255.979 291.461 256.001C291.375 256.022 291.301 256.077 291.255 256.153L289.961 257.494C289.929 257.534 289.888 257.566 289.841 257.589C289.795 257.611 289.744 257.622 289.692 257.622C289.641 257.622 289.59 257.611 289.543 257.589C289.496 257.566 289.455 257.534 289.423 257.494L288.357 256.153C288.13 255.866 287.639 256.153 287.735 256.5L288.154 258.201C288.164 258.25 288.165 258.301 288.155 258.351C288.146 258.401 288.127 258.448 288.099 258.491C288.071 258.533 288.035 258.569 287.993 258.598C287.951 258.626 287.904 258.646 287.854 258.656L286.07 259.015C285.687 259.087 285.639 259.625 286.011 259.697L287.723 260.057C287.771 260.066 287.816 260.087 287.855 260.117C287.894 260.147 287.925 260.185 287.947 260.229C287.969 260.272 287.981 260.321 287.981 260.37C287.982 260.419 287.971 260.467 287.95 260.512L287.232 262.212C287.186 262.288 287.172 262.379 287.193 262.466C287.215 262.552 287.269 262.627 287.346 262.673C287.422 262.719 287.513 262.733 287.6 262.711C287.686 262.69 287.76 262.635 287.806 262.559L289.099 261.218C289.133 261.182 289.174 261.153 289.219 261.133C289.264 261.113 289.313 261.103 289.363 261.103C289.412 261.103 289.461 261.113 289.507 261.133C289.552 261.153 289.593 261.182 289.626 261.218L290.704 262.559C290.931 262.846 291.422 262.559 291.326 262.212L290.907 260.512C290.889 260.412 290.91 260.309 290.966 260.224C291.022 260.14 291.108 260.079 291.207 260.057L292.991 259.697C293.326 259.625 293.422 259.087 293.05 259.015Z" fill="#263238"/>
<path d="M304.388 259.015L302.664 258.656C302.616 258.646 302.571 258.625 302.532 258.595C302.493 258.566 302.462 258.527 302.44 258.483C302.418 258.44 302.406 258.391 302.406 258.342C302.405 258.293 302.416 258.245 302.437 258.201L303.155 256.5C303.185 256.427 303.188 256.345 303.163 256.27C303.139 256.195 303.088 256.13 303.021 256.089C302.953 256.047 302.873 256.031 302.795 256.042C302.716 256.054 302.645 256.093 302.592 256.153L301.287 257.494C301.256 257.534 301.216 257.566 301.17 257.588C301.125 257.611 301.075 257.622 301.024 257.622C300.973 257.622 300.923 257.611 300.878 257.588C300.832 257.566 300.792 257.534 300.761 257.494L299.695 256.153C299.468 255.866 298.977 256.153 299.061 256.5L299.48 258.201C299.492 258.25 299.494 258.302 299.485 258.352C299.476 258.403 299.457 258.451 299.429 258.493C299.401 258.536 299.365 258.573 299.322 258.601C299.279 258.628 299.231 258.647 299.18 258.656L297.396 259.015C297.013 259.087 296.965 259.625 297.396 259.697L299.12 260.057C299.169 260.066 299.214 260.086 299.253 260.116C299.292 260.146 299.323 260.185 299.344 260.229C299.365 260.274 299.375 260.322 299.374 260.371C299.372 260.42 299.359 260.468 299.336 260.512L298.63 262.212C298.6 262.285 298.597 262.367 298.621 262.442C298.646 262.518 298.697 262.582 298.764 262.623C298.832 262.665 298.912 262.681 298.99 262.67C299.068 262.658 299.14 262.619 299.192 262.559L300.497 261.218C300.531 261.182 300.572 261.153 300.617 261.133C300.662 261.113 300.711 261.103 300.761 261.103C300.81 261.103 300.859 261.113 300.904 261.133C300.95 261.153 300.99 261.182 301.024 261.218L302.09 262.559C302.317 262.846 302.808 262.559 302.712 262.212L302.293 260.512C302.275 260.41 302.298 260.306 302.356 260.221C302.414 260.136 302.503 260.077 302.604 260.057L304.388 259.697C304.712 259.625 304.759 259.087 304.388 259.015Z" fill="#263238"/>
<path d="M315.714 259.015L313.99 258.656C313.942 258.646 313.897 258.625 313.858 258.595C313.819 258.566 313.788 258.527 313.766 258.483C313.744 258.44 313.732 258.391 313.732 258.342C313.731 258.293 313.742 258.245 313.763 258.201L314.481 256.5C314.511 256.427 314.514 256.345 314.489 256.27C314.465 256.195 314.414 256.13 314.347 256.089C314.279 256.047 314.199 256.031 314.121 256.042C314.042 256.054 313.971 256.093 313.918 256.153L312.613 257.494C312.582 257.534 312.542 257.566 312.496 257.588C312.451 257.611 312.401 257.622 312.35 257.622C312.299 257.622 312.249 257.611 312.204 257.588C312.158 257.566 312.118 257.534 312.087 257.494L311.021 256.153C310.794 255.866 310.303 256.153 310.399 256.5L310.818 258.201C310.828 258.251 310.828 258.303 310.818 258.353C310.808 258.404 310.788 258.452 310.758 258.494C310.729 258.537 310.692 258.573 310.649 258.601C310.605 258.628 310.557 258.647 310.506 258.656L308.722 259.015C308.339 259.087 308.291 259.625 308.663 259.697L310.387 260.057C310.435 260.066 310.48 260.087 310.519 260.117C310.557 260.147 310.589 260.185 310.611 260.229C310.633 260.273 310.645 260.321 310.645 260.37C310.646 260.419 310.635 260.467 310.614 260.512L309.896 262.212C309.866 262.285 309.863 262.367 309.888 262.442C309.912 262.518 309.963 262.582 310.03 262.623C310.098 262.665 310.178 262.681 310.256 262.67C310.334 262.658 310.406 262.619 310.458 262.559L311.763 261.218C311.797 261.182 311.838 261.153 311.883 261.133C311.928 261.113 311.977 261.103 312.027 261.103C312.076 261.103 312.125 261.113 312.17 261.133C312.216 261.153 312.257 261.182 312.29 261.218L313.356 262.559C313.583 262.846 314.074 262.559 313.99 262.212L313.571 260.512C313.561 260.462 313.56 260.411 313.57 260.361C313.579 260.311 313.598 260.264 313.626 260.222C313.654 260.179 313.69 260.143 313.732 260.115C313.774 260.086 313.821 260.067 313.871 260.057L315.654 259.697C316.073 259.625 316.073 259.087 315.714 259.015Z" fill="#263238"/>
<path d="M327.04 259.015L325.316 258.656C325.268 258.646 325.223 258.626 325.184 258.596C325.145 258.566 325.114 258.527 325.093 258.483C325.072 258.439 325.061 258.39 325.063 258.341C325.064 258.292 325.077 258.244 325.101 258.201L325.819 256.5C325.842 256.463 325.857 256.421 325.864 256.377C325.87 256.334 325.868 256.289 325.858 256.246C325.847 256.203 325.828 256.163 325.802 256.128C325.776 256.092 325.743 256.062 325.705 256.039C325.668 256.017 325.626 256.001 325.582 255.995C325.539 255.988 325.494 255.99 325.451 256.001C325.409 256.011 325.368 256.03 325.333 256.056C325.297 256.082 325.267 256.115 325.244 256.153L323.951 257.494C323.919 257.534 323.878 257.566 323.831 257.589C323.785 257.611 323.734 257.622 323.682 257.622C323.63 257.622 323.579 257.611 323.533 257.589C323.486 257.566 323.445 257.534 323.413 257.494L322.347 256.153C322.12 255.866 321.629 256.153 321.724 256.5L322.144 258.201C322.154 258.25 322.155 258.301 322.145 258.351C322.136 258.401 322.117 258.448 322.089 258.491C322.061 258.533 322.025 258.569 321.983 258.598C321.941 258.626 321.894 258.646 321.844 258.656L320.06 259.015C319.677 259.087 319.629 259.625 320 259.697L321.713 260.057C321.761 260.066 321.806 260.087 321.845 260.117C321.883 260.147 321.915 260.185 321.937 260.229C321.959 260.272 321.971 260.321 321.971 260.37C321.972 260.419 321.961 260.467 321.94 260.512L321.222 262.212C321.176 262.288 321.162 262.379 321.183 262.466C321.204 262.552 321.259 262.627 321.335 262.673C321.412 262.719 321.503 262.733 321.589 262.711C321.676 262.69 321.75 262.635 321.796 262.559L323.089 261.218C323.123 261.182 323.164 261.153 323.209 261.133C323.254 261.113 323.303 261.103 323.353 261.103C323.402 261.103 323.451 261.113 323.496 261.133C323.542 261.153 323.583 261.182 323.616 261.218L324.682 262.559C324.738 262.622 324.813 262.664 324.896 262.678C324.978 262.692 325.063 262.678 325.137 262.638C325.211 262.598 325.269 262.533 325.301 262.456C325.334 262.379 325.339 262.293 325.316 262.212L324.897 260.512C324.879 260.412 324.9 260.309 324.956 260.224C325.012 260.14 325.098 260.079 325.197 260.057L326.98 259.697C327.364 259.625 327.411 259.087 327.04 259.015Z" fill="#263238"/>
<path d="M299.731 234.217H278.468C277.815 234.228 277.19 234.478 276.709 234.919C276.228 235.361 275.925 235.963 275.858 236.612C275.824 236.917 275.855 237.227 275.95 237.519C276.045 237.811 276.202 238.08 276.41 238.307C276.617 238.534 276.871 238.714 277.153 238.834C277.436 238.955 277.742 239.014 278.049 239.007H299.312C299.964 238.996 300.59 238.746 301.071 238.305C301.552 237.863 301.855 237.261 301.922 236.612C301.954 236.307 301.921 235.998 301.825 235.707C301.73 235.415 301.573 235.148 301.366 234.921C301.159 234.695 300.906 234.515 300.624 234.394C300.342 234.272 300.038 234.212 299.731 234.217Z" fill="#263238"/>
<path d="M321.329 234.217H308.986C308.335 234.229 307.71 234.479 307.231 234.92C306.752 235.362 306.452 235.964 306.388 236.612C306.354 236.917 306.385 237.225 306.479 237.516C306.574 237.808 306.729 238.076 306.936 238.302C307.142 238.529 307.394 238.709 307.675 238.831C307.956 238.952 308.26 239.012 308.567 239.007H320.862C321.514 238.995 322.138 238.745 322.617 238.304C323.096 237.862 323.396 237.26 323.461 236.612C323.494 236.312 323.464 236.007 323.372 235.719C323.281 235.431 323.13 235.166 322.929 234.94C322.728 234.714 322.481 234.533 322.206 234.408C321.93 234.284 321.632 234.219 321.329 234.217Z" fill="#263238"/>
<path d="M337.624 342.759C330.108 345.622 323.324 350.121 317.762 355.93C314.384 353.307 310.358 351.652 306.112 351.14L305.55 351.056L305.31 353.882L305.621 354.002C310.277 355.716 314.215 358.958 316.792 363.198L317.199 363.868L317.642 363.15C322.6 355.234 329.597 348.798 337.899 344.519L338.175 344.375L338.33 342.507L337.624 342.759Z" fill="#263238"/>
</svg>
