<svg width="32" height="32" viewBox="0 0 32 32" fill="none" xmlns="http://www.w3.org/2000/svg">
<path d="M11.7333 14.9333C10.3188 14.9333 8.96229 14.3714 7.96209 13.3712C6.9619 12.371 6.4 11.0145 6.4 9.59997V5.3333C6.4 5.0504 6.51238 4.77909 6.71242 4.57905C6.91245 4.37901 7.18376 4.26663 7.46666 4.26663H8.53333C8.81623 4.26663 9.08754 4.15425 9.28758 3.95421C9.48761 3.75418 9.6 3.48287 9.6 3.19997C9.6 2.91707 9.48761 2.64576 9.28758 2.44572C9.08754 2.24568 8.81623 2.1333 8.53333 2.1333H7.46666C6.61797 2.1333 5.80404 2.47044 5.20392 3.07056C4.6038 3.67068 4.26666 4.48461 4.26666 5.3333V9.59997C4.26803 10.805 4.56189 11.9917 5.12298 13.0582C5.68408 14.1246 6.49565 15.039 7.488 15.7226C8.44237 16.5624 9.21623 17.5873 9.76263 18.7351C10.309 19.8829 10.6166 21.1297 10.6667 22.4C10.6667 24.3803 11.4533 26.2794 12.8536 27.6797C14.2539 29.08 16.153 29.8666 18.1333 29.8666C20.1136 29.8666 22.0128 29.08 23.4131 27.6797C24.8133 26.2794 25.6 24.3803 25.6 22.4V21.184C26.6055 20.9243 27.4818 20.3069 28.0646 19.4474C28.6475 18.5879 28.8968 17.5454 28.766 16.5152C28.6351 15.485 28.133 14.5379 27.3538 13.8514C26.5746 13.1649 25.5718 12.7861 24.5333 12.7861C23.4949 12.7861 22.492 13.1649 21.7128 13.8514C20.9336 14.5379 20.4315 15.485 20.3007 16.5152C20.1698 17.5454 20.4192 18.5879 21.002 19.4474C21.5849 20.3069 22.4612 20.9243 23.4667 21.184V22.4C23.4667 23.8145 22.9048 25.171 21.9046 26.1712C20.9044 27.1714 19.5478 27.7333 18.1333 27.7333C16.7188 27.7333 15.3623 27.1714 14.3621 26.1712C13.3619 25.171 12.8 23.8145 12.8 22.4C12.8528 21.1281 13.1637 19.8803 13.7138 18.7324C14.2639 17.5845 15.0417 16.5605 16 15.7226C16.9884 15.0366 17.7958 14.1212 18.3531 13.0549C18.9104 11.9886 19.201 10.8031 19.2 9.59997V5.3333C19.2 4.48461 18.8629 3.67068 18.2627 3.07056C17.6626 2.47044 16.8487 2.1333 16 2.1333H14.9333C14.6504 2.1333 14.3791 2.24568 14.1791 2.44572C13.979 2.64576 13.8667 2.91707 13.8667 3.19997C13.8667 3.48287 13.979 3.75418 14.1791 3.95421C14.3791 4.15425 14.6504 4.26663 14.9333 4.26663H16C16.2829 4.26663 16.5542 4.37901 16.7542 4.57905C16.9543 4.77909 17.0667 5.0504 17.0667 5.3333V9.59997C17.0667 10.3004 16.9287 10.9939 16.6607 11.6409C16.3927 12.288 15.9998 12.876 15.5046 13.3712C15.0093 13.8665 14.4214 14.2593 13.7743 14.5273C13.1272 14.7954 12.4337 14.9333 11.7333 14.9333ZM24.5333 19.2C23.9675 19.2 23.4249 18.9752 23.0248 18.5751C22.6248 18.1751 22.4 17.6324 22.4 17.0666C22.4 16.5008 22.6248 15.9582 23.0248 15.5581C23.4249 15.1581 23.9675 14.9333 24.5333 14.9333C25.0991 14.9333 25.6417 15.1581 26.0418 15.5581C26.4419 15.9582 26.6667 16.5008 26.6667 17.0666C26.6667 17.6324 26.4419 18.1751 26.0418 18.5751C25.6417 18.9752 25.0991 19.2 24.5333 19.2Z" fill="#144278"/>
</svg>
