<svg width="32" height="32" viewBox="0 0 32 32" fill="none" xmlns="http://www.w3.org/2000/svg">
<path d="M8.36531 20.502C1.12264 17.4473 3.98064 7.13599 9.00864 5.43265C11.0946 4.72599 13.3953 7.07065 13.3813 8.52599C13.3746 9.15532 13.05 9.76932 12.7113 10.4087C12.2673 11.2487 11.7993 12.132 11.998 13.154C12.348 14.954 12.74 17.9913 11.73 19.4327C10.72 20.8747 9.70464 21.0667 8.36531 20.502ZM22.898 5.43265C27.926 7.13599 30.7846 17.4473 23.5413 20.502C22.202 21.0673 21.1866 20.8747 20.1766 19.4327C19.1666 17.9913 19.5586 14.954 19.9086 13.154C20.1073 12.132 19.6393 11.248 19.1953 10.4087C18.8566 9.76932 18.532 9.15532 18.526 8.52599C18.5113 7.07065 20.8126 4.72599 22.898 5.43265ZM19.0786 15.1867L19.1253 15.8513H19.134L19.136 15.8507L19.1193 15.8527C18.9715 15.8795 18.8314 15.9382 18.7086 16.0247C18.5153 16.1627 18.2313 16.468 18.2313 17.2387V26.8827H16.898V17.2387C16.898 16.0613 17.3713 15.3407 17.9346 14.9387C18.2248 14.7333 18.5575 14.5959 18.908 14.5367C18.9434 14.5313 18.979 14.5268 19.0146 14.5233L19.0253 14.522H19.032C19.032 14.5213 19.0333 14.5213 19.0786 15.1867ZM12.828 15.1867C12.7826 15.8513 12.782 15.8513 12.7813 15.8513H12.7733L12.7713 15.8507L12.7873 15.8527C12.9353 15.8794 13.0757 15.9381 13.1986 16.0247C13.392 16.1627 13.676 16.468 13.676 17.2387V26.8827H15.0093V17.2387C15.0093 16.0613 14.536 15.3407 13.972 14.9387C13.6818 14.7333 13.3492 14.5959 12.9986 14.5367C12.9632 14.5313 12.9276 14.5268 12.892 14.5233L12.882 14.522H12.8746C12.8746 14.5213 12.874 14.5213 12.828 15.1867Z" fill="#144278"/>
</svg>
