<svg width="20" height="20" viewBox="0 0 20 20" fill="none" xmlns="http://www.w3.org/2000/svg">
<path d="M12.0833 7.50008C12.0833 8.05262 11.8638 8.58252 11.4731 8.97322C11.0824 9.36392 10.5525 9.58341 9.99996 9.58341C9.44742 9.58341 8.91752 9.36392 8.52682 8.97322C8.13612 8.58252 7.91663 8.05262 7.91663 7.50008C7.91663 6.94755 8.13612 6.41764 8.52682 6.02694C8.91752 5.63624 9.44742 5.41675 9.99996 5.41675C10.5525 5.41675 11.0824 5.63624 11.4731 6.02694C11.8638 6.41764 12.0833 6.94755 12.0833 7.50008Z" stroke="#4C4C4C" stroke-width="1.5" stroke-linecap="round" stroke-linejoin="round"/>
<path d="M15 16.6667C15 17.5876 12.7617 18.3334 9.99999 18.3334C7.23833 18.3334 4.99999 17.5876 4.99999 16.6667M11.0475 14.5784C10.766 14.8492 10.3906 15.0005 9.99999 15.0005C9.60939 15.0005 9.23397 14.8492 8.95249 14.5784C6.37833 12.0842 2.92916 9.29841 4.61083 5.25341C5.52166 3.06591 7.70499 1.66675 9.99999 1.66675C12.295 1.66675 14.4792 3.06675 15.3892 5.25341C17.0692 9.29258 13.6283 12.0926 11.0475 14.5784Z" stroke="#4C4C4C" stroke-width="1.5" stroke-linecap="round" stroke-linejoin="round"/>
</svg>
