<svg width="20" height="20" viewBox="0 0 20 20" fill="none" xmlns="http://www.w3.org/2000/svg">
<path d="M12.0833 7.49984C12.0833 8.05237 11.8638 8.58228 11.4731 8.97298C11.0824 9.36368 10.5525 9.58317 9.99996 9.58317C9.44742 9.58317 8.91752 9.36368 8.52682 8.97298C8.13612 8.58228 7.91663 8.05237 7.91663 7.49984C7.91663 6.9473 8.13612 6.4174 8.52682 6.0267C8.91752 5.636 9.44742 5.4165 9.99996 5.4165C10.5525 5.4165 11.0824 5.636 11.4731 6.0267C11.8638 6.4174 12.0833 6.9473 12.0833 7.49984Z" stroke="#4C4C4C" stroke-width="1.5" stroke-linecap="round" stroke-linejoin="round"/>
<path d="M15 16.6665C15 17.5873 12.7617 18.3332 9.99999 18.3332C7.23833 18.3332 4.99999 17.5873 4.99999 16.6665M11.0475 14.5782C10.766 14.849 10.3906 15.0003 9.99999 15.0003C9.60939 15.0003 9.23397 14.849 8.95249 14.5782C6.37833 12.084 2.92916 9.29817 4.61083 5.25317C5.52166 3.06567 7.70499 1.6665 9.99999 1.6665C12.295 1.6665 14.4792 3.0665 15.3892 5.25317C17.0692 9.29234 13.6283 12.0923 11.0475 14.5782Z" stroke="#4C4C4C" stroke-width="1.5" stroke-linecap="round" stroke-linejoin="round"/>
</svg>
