<svg width="25" height="24" viewBox="0 0 25 24" fill="none" xmlns="http://www.w3.org/2000/svg">
<path d="M7.5 18C5.671 18.412 4.5 19.044 4.5 19.754C4.5 20.994 8.082 22 12.5 22C16.918 22 20.5 20.994 20.5 19.754C20.5 19.044 19.329 18.412 17.5 18M15 9C15 9.66304 14.7366 10.2989 14.2678 10.7678C13.7989 11.2366 13.163 11.5 12.5 11.5C11.837 11.5 11.2011 11.2366 10.7322 10.7678C10.2634 10.2989 10 9.66304 10 9C10 8.33696 10.2634 7.70107 10.7322 7.23223C11.2011 6.76339 11.837 6.5 12.5 6.5C13.163 6.5 13.7989 6.76339 14.2678 7.23223C14.7366 7.70107 15 8.33696 15 9Z" stroke="white" stroke-width="1.5" stroke-linecap="round" stroke-linejoin="round"/>
<path d="M13.757 17.494C13.4192 17.819 12.9687 18.0005 12.5 18.0005C12.0313 18.0005 11.5808 17.819 11.243 17.494C8.15399 14.501 4.01499 11.158 6.03299 6.304C7.12599 3.679 9.74599 2 12.5 2C15.254 2 17.875 3.68 18.967 6.304C20.983 11.151 16.854 14.511 13.757 17.494Z" stroke="white" stroke-width="1.5" stroke-linecap="round" stroke-linejoin="round"/>
</svg>
