<svg width="24" height="24" viewBox="0 0 24 24" fill="none" xmlns="http://www.w3.org/2000/svg">
<path d="M8.8 11.2C7.73913 11.2 6.72172 10.7785 5.97157 10.0284C5.22143 9.27826 4.8 8.26084 4.8 7.19998V3.99998C4.8 3.7878 4.88429 3.58432 5.03432 3.43429C5.18434 3.28426 5.38783 3.19998 5.6 3.19998H6.4C6.61217 3.19998 6.81566 3.11569 6.96569 2.96566C7.11572 2.81563 7.2 2.61215 7.2 2.39998C7.2 2.1878 7.11572 1.98432 6.96569 1.83429C6.81566 1.68426 6.61217 1.59998 6.4 1.59998H5.6C4.96348 1.59998 4.35303 1.85283 3.90294 2.30292C3.45286 2.75301 3.2 3.36346 3.2 3.99998V7.19998C3.20103 8.10377 3.42142 8.9938 3.84224 9.79364C4.26306 10.5935 4.87174 11.2792 5.616 11.792C6.33178 12.4218 6.91217 13.1904 7.32198 14.0513C7.73178 14.9122 7.96245 15.8473 8 16.8C8 18.2852 8.59 19.7096 9.6402 20.7598C10.6904 21.81 12.1148 22.4 13.6 22.4C15.0852 22.4 16.5096 21.81 17.5598 20.7598C18.61 19.7096 19.2 18.2852 19.2 16.8V15.888C19.9541 15.6933 20.6114 15.2302 21.0485 14.5856C21.4856 13.9409 21.6726 13.159 21.5745 12.3864C21.4764 11.6137 21.0998 10.9034 20.5154 10.3885C19.931 9.87365 19.1789 9.58959 18.4 9.58959C17.6211 9.58959 16.869 9.87365 16.2846 10.3885C15.7002 10.9034 15.3236 11.6137 15.2255 12.3864C15.1274 13.159 15.3144 13.9409 15.7515 14.5856C16.1886 15.2302 16.8459 15.6933 17.6 15.888V16.8C17.6 17.8608 17.1786 18.8783 16.4284 19.6284C15.6783 20.3785 14.6609 20.8 13.6 20.8C12.5391 20.8 11.5217 20.3785 10.7716 19.6284C10.0214 18.8783 9.6 17.8608 9.6 16.8C9.63957 15.8461 9.87274 14.9103 10.2853 14.0493C10.6979 13.1884 11.2813 12.4204 12 11.792C12.7413 11.2774 13.3469 10.5909 13.7648 9.79119C14.1828 8.99146 14.4008 8.10235 14.4 7.19998V3.99998C14.4 3.36346 14.1471 2.75301 13.6971 2.30292C13.247 1.85283 12.6365 1.59998 12 1.59998H11.2C10.9878 1.59998 10.7843 1.68426 10.6343 1.83429C10.4843 1.98432 10.4 2.1878 10.4 2.39998C10.4 2.61215 10.4843 2.81563 10.6343 2.96566C10.7843 3.11569 10.9878 3.19998 11.2 3.19998H12C12.2122 3.19998 12.4157 3.28426 12.5657 3.43429C12.7157 3.58432 12.8 3.7878 12.8 3.99998V7.19998C12.8 7.72526 12.6965 8.24541 12.4955 8.73071C12.2945 9.21601 11.9999 9.65697 11.6284 10.0284C11.257 10.3998 10.816 10.6945 10.3307 10.8955C9.84543 11.0965 9.32529 11.2 8.8 11.2ZM18.4 14.4C17.9757 14.4 17.5687 14.2314 17.2686 13.9313C16.9686 13.6313 16.8 13.2243 16.8 12.8C16.8 12.3756 16.9686 11.9687 17.2686 11.6686C17.5687 11.3685 17.9757 11.2 18.4 11.2C18.8243 11.2 19.2313 11.3685 19.5314 11.6686C19.8314 11.9687 20 12.3756 20 12.8C20 13.2243 19.8314 13.6313 19.5314 13.9313C19.2313 14.2314 18.8243 14.4 18.4 14.4Z" fill="white"/>
</svg>
