<svg width="43" height="56" viewBox="0 0 43 56" fill="none" xmlns="http://www.w3.org/2000/svg">
<path d="M42.9885 25.8083V8.15344C42.9886 7.94703 42.9083 7.74868 42.7645 7.60039C42.6207 7.45209 42.4247 7.36549 42.218 7.35893C30.2213 7.00356 23.4741 1.52861 21.9411 0.130262C21.848 0.0464133 21.7271 0 21.6017 0C21.4764 0 21.3555 0.0464133 21.2624 0.130262C19.7113 1.52428 12.8701 7.00573 0.860288 7.36109C0.653641 7.36766 0.457665 7.45426 0.313852 7.60255C0.170038 7.75085 0.0896775 7.9492 0.0897822 8.15561V25.8083C0.0897822 25.8083 -0.800097 48.6327 21.5996 56H21.6198C44.204 48.2715 42.9885 25.8083 42.9885 25.8083ZM21.5533 53.9653H21.5352C1.19598 46.7655 1.93755 26.1023 1.93755 26.1023V9.08736C15.0325 8.9429 21.5352 2.10355 21.5352 2.10355C21.5352 2.10355 28.0552 8.9429 41.1502 9.08736V26.1023C41.1502 26.1023 41.8925 46.7655 21.5533 53.9653Z" fill="#217CE6"/>
<path d="M37.6008 26.8319V12.6375C27.8381 12.1572 21.5366 6.81226 21.5366 6.81226C21.5366 6.81226 15.1772 12.0127 5.48766 12.639V26.8319C5.48766 26.8319 4.88066 44.0715 21.5366 50.0773H21.5518C38.2078 44.0715 37.6008 26.8319 37.6008 26.8319Z" fill="#217CE6"/>
<path d="M17.158 37.8706C17.1276 37.8694 17.0979 37.8803 17.0756 37.9009C17.065 37.9107 17.0566 37.9225 17.051 37.9357C17.0454 37.9489 17.0427 37.9632 17.043 37.9775V38.858C17.0427 38.8724 17.0454 38.8868 17.051 38.9001C17.0566 38.9134 17.065 38.9254 17.0756 38.9353C17.0979 38.9559 17.1276 38.9668 17.158 38.9656C17.1887 38.9668 17.2186 38.9559 17.2412 38.9353C17.2516 38.9253 17.2597 38.9132 17.2652 38.8999C17.2707 38.8866 17.2734 38.8723 17.2731 38.858V37.9768C17.2733 37.9625 17.2707 37.9484 17.2652 37.9352C17.2597 37.922 17.2515 37.9101 17.2412 37.9002C17.2185 37.8798 17.1886 37.8692 17.158 37.8706Z" fill="white"/>
<path d="M19.3286 42.9266C19.3134 42.9259 19.2983 42.9283 19.2842 42.9337C19.27 42.939 19.257 42.9472 19.2461 42.9576C19.2355 42.9673 19.2271 42.9792 19.2214 42.9924C19.2158 43.0056 19.2131 43.0199 19.2135 43.0342V43.9147C19.2131 43.929 19.2158 43.9433 19.2214 43.9565C19.2271 43.9697 19.2355 43.9816 19.2461 43.9912C19.2684 44.012 19.2981 44.0232 19.3286 44.0223C19.3593 44.0232 19.3892 44.0121 19.4118 43.9912C19.4222 43.9814 19.4304 43.9695 19.4358 43.9563C19.4413 43.9431 19.444 43.929 19.4436 43.9147V43.0306C19.444 43.0163 19.4413 43.0021 19.4358 42.9889C19.4304 42.9757 19.4222 42.9639 19.4118 42.954C19.4004 42.9442 19.3872 42.9367 19.3729 42.932C19.3586 42.9273 19.3436 42.9255 19.3286 42.9266Z" fill="white"/>
<path d="M19.3286 37.8706C19.2981 37.8697 19.2684 37.8809 19.2461 37.9017C19.2355 37.9114 19.2271 37.9232 19.2214 37.9364C19.2158 37.9496 19.2131 37.9639 19.2135 37.9783V38.8587C19.2131 38.8731 19.2158 38.8873 19.2214 38.9006C19.2271 38.9138 19.2355 38.9256 19.2461 38.9353C19.257 38.9458 19.27 38.9539 19.2842 38.9592C19.2983 38.9646 19.3134 38.967 19.3286 38.9663C19.3438 38.967 19.359 38.9645 19.3733 38.9592C19.3876 38.9539 19.4007 38.9457 19.4118 38.9353C19.4222 38.9255 19.4304 38.9136 19.4358 38.9004C19.4413 38.8872 19.444 38.873 19.4436 38.8587V37.9761C19.444 37.9618 19.4413 37.9476 19.4358 37.9344C19.4304 37.9212 19.4222 37.9093 19.4118 37.8995C19.3889 37.8795 19.359 37.8691 19.3286 37.8706Z" fill="white"/>
<path d="M23.597 37.8706C23.5665 37.8697 23.5368 37.8809 23.5145 37.9017C23.5039 37.9114 23.4955 37.9232 23.4899 37.9364C23.4843 37.9496 23.4816 37.9639 23.482 37.9783V38.8587C23.4816 38.8731 23.4843 38.8873 23.4899 38.9006C23.4955 38.9138 23.5039 38.9256 23.5145 38.9353C23.5255 38.9458 23.5384 38.9539 23.5526 38.9592C23.5668 38.9646 23.5819 38.967 23.597 38.9663C23.6123 38.967 23.6275 38.9645 23.6418 38.9592C23.656 38.9539 23.6691 38.9457 23.6802 38.9353C23.6906 38.9255 23.6988 38.9136 23.7043 38.9004C23.7098 38.8872 23.7124 38.873 23.712 38.8587V37.9761C23.7124 37.9618 23.7098 37.9476 23.7043 37.9344C23.6988 37.9212 23.6906 37.9093 23.6802 37.8995C23.6573 37.8795 23.6275 37.8691 23.597 37.8706Z" fill="white"/>
<path d="M19.3286 35.3425C19.2981 35.3413 19.2685 35.3523 19.2461 35.3729C19.2355 35.3826 19.2272 35.3945 19.2216 35.4077C19.2159 35.4209 19.2132 35.4351 19.2135 35.4494V36.3299C19.2132 36.3443 19.2159 36.3587 19.2215 36.372C19.2271 36.3853 19.2355 36.3973 19.2461 36.4072C19.2685 36.4278 19.2981 36.4387 19.3286 36.4375C19.3592 36.4387 19.3891 36.4278 19.4118 36.4072C19.4221 36.3972 19.4303 36.3851 19.4357 36.3719C19.4412 36.3586 19.4439 36.3443 19.4436 36.3299V35.4487C19.4439 35.4344 19.4412 35.4203 19.4357 35.4071C19.4302 35.3939 19.4221 35.382 19.4118 35.3721C19.389 35.3518 19.3591 35.3411 19.3286 35.3425Z" fill="white"/>
<path d="M23.597 35.3425C23.5666 35.3413 23.5369 35.3523 23.5145 35.3729C23.504 35.3826 23.4956 35.3945 23.49 35.4077C23.4844 35.4209 23.4816 35.4351 23.482 35.4494V36.3299C23.4816 36.3443 23.4844 36.3587 23.49 36.372C23.4956 36.3853 23.5039 36.3973 23.5145 36.4072C23.5369 36.4278 23.5666 36.4387 23.597 36.4375C23.6276 36.4387 23.6575 36.4278 23.6802 36.4072C23.6905 36.3972 23.6987 36.3851 23.7042 36.3719C23.7096 36.3586 23.7123 36.3443 23.712 36.3299V35.4487C23.7123 35.4344 23.7096 35.4203 23.7041 35.4071C23.6987 35.3939 23.6905 35.382 23.6802 35.3721C23.6574 35.3518 23.6275 35.3411 23.597 35.3425Z" fill="white"/>
<path d="M21.2821 37.8706C21.2515 37.8697 21.2219 37.8809 21.1996 37.9017C21.189 37.9114 21.1806 37.9232 21.1749 37.9364C21.1693 37.9496 21.1666 37.9639 21.167 37.9783V38.8587C21.1666 38.8731 21.1693 38.8873 21.1749 38.9006C21.1806 38.9138 21.189 38.9256 21.1996 38.9353C21.2105 38.9458 21.2235 38.9539 21.2376 38.9592C21.2518 38.9646 21.2669 38.967 21.2821 38.9663C21.2973 38.967 21.3125 38.9645 21.3268 38.9592C21.3411 38.9539 21.3542 38.9457 21.3653 38.9353C21.3757 38.9255 21.3839 38.9136 21.3893 38.9004C21.3948 38.8872 21.3975 38.873 21.3971 38.8587V37.9761C21.3975 37.9618 21.3948 37.9476 21.3893 37.9344C21.3839 37.9212 21.3757 37.9093 21.3653 37.8995C21.3424 37.8795 21.3125 37.8691 21.2821 37.8706Z" fill="white"/>
<path d="M21.2821 35.3425C21.2516 35.3413 21.222 35.3523 21.1996 35.3729C21.189 35.3826 21.1807 35.3945 21.175 35.4077C21.1694 35.4209 21.1667 35.4351 21.167 35.4494V36.3299C21.1667 36.3443 21.1694 36.3587 21.175 36.372C21.1806 36.3853 21.189 36.3973 21.1996 36.4072C21.222 36.4278 21.2516 36.4387 21.2821 36.4375C21.3127 36.4387 21.3426 36.4278 21.3653 36.4072C21.3756 36.3972 21.3837 36.3851 21.3892 36.3719C21.3947 36.3586 21.3974 36.3443 21.3971 36.3299V35.4487C21.3974 35.4344 21.3947 35.4203 21.3892 35.4071C21.3837 35.3939 21.3756 35.382 21.3653 35.3721C21.3425 35.3518 21.3126 35.3411 21.2821 35.3425Z" fill="white"/>
<path d="M23.597 42.9266C23.5819 42.9259 23.5668 42.9283 23.5526 42.9337C23.5384 42.939 23.5255 42.9472 23.5145 42.9576C23.5039 42.9673 23.4955 42.9792 23.4899 42.9924C23.4843 43.0056 23.4816 43.0199 23.482 43.0342V43.9147C23.4816 43.929 23.4843 43.9433 23.4899 43.9565C23.4955 43.9697 23.5039 43.9816 23.5145 43.9912C23.5368 44.012 23.5665 44.0232 23.597 44.0223C23.6278 44.0232 23.6576 44.0121 23.6802 43.9912C23.6906 43.9814 23.6988 43.9695 23.7043 43.9563C23.7098 43.9431 23.7124 43.929 23.712 43.9147V43.0306C23.7124 43.0163 23.7098 43.0021 23.7043 42.9889C23.6988 42.9757 23.6906 42.9639 23.6802 42.954C23.6688 42.9442 23.6556 42.9367 23.6413 42.932C23.6271 42.9273 23.612 42.9255 23.597 42.9266Z" fill="white"/>
<path d="M23.597 45.4503C23.5666 45.4491 23.5369 45.46 23.5145 45.4806C23.5039 45.4905 23.4956 45.5025 23.49 45.5158C23.4844 45.5291 23.4816 45.5435 23.482 45.5579V46.1769H23.712V45.5579C23.7123 45.5435 23.7096 45.5293 23.7042 45.516C23.6987 45.5027 23.6905 45.4906 23.6802 45.4806C23.6575 45.46 23.6276 45.4491 23.597 45.4503Z" fill="white"/>
<path d="M28.1551 37.8706C28.14 37.8701 28.1249 37.8726 28.1108 37.8779C28.0966 37.8832 28.0836 37.8913 28.0726 37.9017C28.062 37.9114 28.0536 37.9232 28.048 37.9364C28.0424 37.9496 28.0397 37.9639 28.0401 37.9783V38.8587C28.0397 38.8731 28.0424 38.8873 28.048 38.9006C28.0536 38.9138 28.062 38.9256 28.0726 38.9353C28.0835 38.9458 28.0965 38.954 28.1107 38.9593C28.1249 38.9646 28.14 38.967 28.1551 38.9663C28.1704 38.967 28.1856 38.9645 28.1999 38.9592C28.2142 38.9539 28.2272 38.9457 28.2383 38.9353C28.2487 38.9255 28.2569 38.9136 28.2624 38.9004C28.2679 38.8872 28.2705 38.873 28.2702 38.8587V37.9761C28.2705 37.9618 28.2679 37.9476 28.2624 37.9344C28.2569 37.9212 28.2487 37.9093 28.2383 37.8995C28.2154 37.8795 28.1856 37.8691 28.1551 37.8706Z" fill="white"/>
<path d="M19.3286 45.4503C19.2981 45.4491 19.2685 45.46 19.2461 45.4806C19.2355 45.4905 19.2271 45.5025 19.2215 45.5158C19.2159 45.5291 19.2132 45.5435 19.2135 45.5579V46.1769H19.4436V45.5579C19.4439 45.5435 19.4412 45.5293 19.4357 45.516C19.4303 45.5027 19.4221 45.4906 19.4118 45.4806C19.3891 45.46 19.3592 45.4491 19.3286 45.4503Z" fill="white"/>
<path d="M24.3148 37.1482V33.1034H23.7599V34.1146H23.5255V33.1034H21.4447V34.1146H21.2103V33.1034H19.4913V34.1146H19.2569V33.1034H18.7729V37.1482H14.5623V42.132H18.7736V46.1768H18.9791V45.5578C18.9783 45.5113 18.9879 45.4651 19.0073 45.4227C19.0261 45.3842 19.0524 45.3499 19.0847 45.3216C19.1174 45.2933 19.1553 45.2715 19.1961 45.2573C19.2388 45.2429 19.2835 45.2356 19.3285 45.2357C19.3736 45.2355 19.4183 45.2428 19.4609 45.2573C19.5018 45.2715 19.5396 45.2933 19.5724 45.3216C19.6048 45.3497 19.6312 45.3841 19.6498 45.4227C19.6697 45.4649 19.6796 45.5112 19.6787 45.5578V46.1768H20.9325V45.5578C20.9317 45.5113 20.9413 45.4651 20.9607 45.4227C20.9795 45.3842 21.0058 45.3499 21.0381 45.3216C21.0708 45.2933 21.1087 45.2715 21.1495 45.2573C21.1922 45.2429 21.2369 45.2356 21.2819 45.2357C21.327 45.2355 21.3717 45.2428 21.4143 45.2573C21.4552 45.2715 21.493 45.2933 21.5258 45.3216C21.5582 45.3497 21.5846 45.3841 21.6032 45.4227C21.6231 45.4649 21.633 45.5112 21.6321 45.5578V46.1768H23.2476V45.5578C23.2468 45.5113 23.2564 45.4651 23.2759 45.4227C23.2947 45.3842 23.321 45.3499 23.3533 45.3216C23.386 45.2933 23.4238 45.2715 23.4647 45.2573C23.5073 45.2429 23.5521 45.2356 23.5971 45.2357C23.6421 45.2355 23.6869 45.2428 23.7295 45.2573C23.7704 45.2715 23.8082 45.2933 23.8409 45.3216C23.8734 45.3497 23.8997 45.3841 23.9183 45.4227C23.9383 45.4649 23.9482 45.5112 23.9472 45.5578V46.1768H24.3148V42.132H28.5254V37.1482H24.3148ZM15.1504 41.6928H14.916V40.4209L14.6809 40.5791V40.3516L14.916 40.1941H15.1504V41.6928ZM15.3371 38.8564C15.338 38.9031 15.3281 38.9493 15.3082 38.9915C15.2896 39.0301 15.2632 39.0646 15.2308 39.0926C15.198 39.1207 15.1602 39.1423 15.1193 39.1562C15.0769 39.1713 15.032 39.1789 14.9869 39.1786C14.9418 39.1788 14.8971 39.1712 14.8545 39.1562C14.8137 39.1423 14.7759 39.1207 14.7431 39.0926C14.7108 39.0644 14.6845 39.03 14.6657 38.9915C14.6463 38.9491 14.6367 38.903 14.6375 38.8564V37.976C14.6364 37.9313 14.6453 37.887 14.6636 37.8463C14.6818 37.8055 14.709 37.7694 14.7431 37.7405C14.7757 37.7119 14.8135 37.6901 14.8545 37.6762C14.8971 37.6612 14.9418 37.6536 14.9869 37.6538C15.032 37.6535 15.0769 37.6611 15.1193 37.6762C15.1604 37.6901 15.1982 37.7119 15.2308 37.7405C15.2648 37.7695 15.292 37.8056 15.3104 37.8463C15.3287 37.887 15.3379 37.9313 15.3371 37.976V38.8564ZM17.5075 41.3844C17.5085 41.4311 17.4986 41.4773 17.4786 41.5195C17.46 41.5582 17.4337 41.5926 17.4012 41.6206C17.3684 41.6487 17.3306 41.6703 17.2898 41.6842C17.2473 41.6993 17.2025 41.7069 17.1574 41.7066C17.1123 41.7068 17.0675 41.6992 17.025 41.6842C16.9841 41.6703 16.9463 41.6487 16.9136 41.6206C16.8813 41.5924 16.855 41.558 16.8362 41.5195C16.8167 41.4772 16.8071 41.431 16.8079 41.3844V40.504C16.8068 40.4593 16.8157 40.415 16.834 40.3743C16.8523 40.3335 16.8795 40.2974 16.9136 40.2685C16.9461 40.2399 16.984 40.2181 17.025 40.2042C17.0675 40.1892 17.1123 40.1816 17.1574 40.1818C17.2025 40.1815 17.2473 40.1891 17.2898 40.2042C17.3308 40.2181 17.3687 40.2399 17.4012 40.2685C17.4352 40.2975 17.4624 40.3336 17.4808 40.3743C17.4992 40.415 17.5083 40.4593 17.5075 40.504V41.3844ZM17.5075 38.8564C17.5085 38.9031 17.4986 38.9493 17.4786 38.9915C17.46 39.0301 17.4337 39.0646 17.4012 39.0926C17.3685 39.1209 17.3307 39.1427 17.2898 39.1569C17.2472 39.1715 17.2024 39.1788 17.1574 39.1786C17.1124 39.1787 17.0676 39.1713 17.025 39.1569C16.9841 39.1427 16.9463 39.1209 16.9136 39.0926C16.8813 39.0644 16.855 39.03 16.8362 38.9915C16.8167 38.9491 16.8071 38.903 16.8079 38.8564V37.9767C16.807 37.9303 16.8167 37.8844 16.8362 37.8423C16.8548 37.8037 16.8811 37.7693 16.9136 37.7412C16.9461 37.7127 16.984 37.6908 17.025 37.6769C17.0675 37.6619 17.1123 37.6543 17.1574 37.6545C17.2025 37.6542 17.2473 37.6618 17.2898 37.6769C17.3308 37.6908 17.3687 37.7127 17.4012 37.7412C17.4338 37.7691 17.4602 37.8036 17.4786 37.8423C17.4987 37.8842 17.5086 37.9302 17.5075 37.9767V38.8564ZM19.678 43.9124C19.679 43.9589 19.6691 44.0049 19.649 44.0468C19.6307 44.0856 19.6043 44.12 19.5716 44.1479C19.5391 44.1765 19.5012 44.1983 19.4602 44.2122C19.4177 44.2273 19.3729 44.2349 19.3278 44.2346C19.2827 44.2348 19.2379 44.2272 19.1954 44.2122C19.1544 44.1983 19.1165 44.1765 19.084 44.1479C19.0516 44.1198 19.0252 44.0854 19.0066 44.0468C18.9871 44.0047 18.9775 43.9588 18.9784 43.9124V43.0305C18.9775 42.984 18.9872 42.9378 19.0066 42.8955C19.0254 42.8569 19.0517 42.8226 19.084 42.7943C19.1168 42.7663 19.1546 42.7447 19.1954 42.7308C19.2379 42.7158 19.2827 42.7082 19.3278 42.7084C19.3729 42.7081 19.4177 42.7156 19.4602 42.7308C19.5011 42.7447 19.5389 42.7663 19.5716 42.7943C19.6041 42.8224 19.6305 42.8568 19.649 42.8955C19.669 42.9376 19.6789 42.9839 19.678 43.0305V43.9124ZM19.0218 40.5805V40.353L19.2569 40.1955H19.4913V41.6943H19.2569V40.4209L19.0218 40.5805ZM19.678 38.8579C19.6789 38.9045 19.669 38.9507 19.649 38.9929C19.6305 39.0316 19.6041 39.066 19.5716 39.0941C19.5389 39.1221 19.5011 39.1437 19.4602 39.1576C19.4177 39.1728 19.3729 39.1803 19.3278 39.18C19.2827 39.1802 19.2379 39.1726 19.1954 39.1576C19.1546 39.1437 19.1168 39.1221 19.084 39.0941C19.0517 39.0658 19.0254 39.0314 19.0066 38.9929C18.9872 38.9506 18.9775 38.9044 18.9784 38.8579V37.976C18.9773 37.9313 18.9862 37.887 19.0044 37.8463C19.0227 37.8055 19.0499 37.7694 19.084 37.7405C19.1165 37.7119 19.1544 37.6901 19.1954 37.6762C19.2379 37.6612 19.2827 37.6536 19.3278 37.6538C19.3729 37.6535 19.4177 37.6611 19.4602 37.6762C19.5012 37.6901 19.5391 37.7119 19.5716 37.7405C19.6057 37.7695 19.6328 37.8056 19.6512 37.8463C19.6696 37.887 19.6788 37.9313 19.678 37.976V38.8579ZM19.678 36.3299C19.6789 36.3765 19.669 36.4227 19.649 36.4649C19.6305 36.5036 19.6041 36.538 19.5716 36.566C19.5389 36.5943 19.5011 36.6162 19.4602 36.6303C19.4176 36.6449 19.3729 36.6522 19.3278 36.652C19.2828 36.6521 19.2381 36.6448 19.1954 36.6303C19.1545 36.6162 19.1167 36.5943 19.084 36.566C19.0517 36.5378 19.0254 36.5034 19.0066 36.4649C18.9872 36.4226 18.9775 36.3764 18.9784 36.3299V35.4487C18.9775 35.4023 18.9871 35.3564 19.0066 35.3143C19.0252 35.2757 19.0516 35.2413 19.084 35.2132C19.1165 35.1846 19.1544 35.1628 19.1954 35.1489C19.2379 35.1339 19.2827 35.1263 19.3278 35.1265C19.3729 35.1262 19.4177 35.1338 19.4602 35.1489C19.5012 35.1628 19.5391 35.1846 19.5716 35.2132C19.6043 35.2411 19.6307 35.2755 19.649 35.3143C19.6691 35.3562 19.679 35.4022 19.678 35.4487V36.3299ZM21.6314 43.9139C21.6324 43.9603 21.6225 44.0063 21.6024 44.0482C21.5841 44.087 21.5577 44.1215 21.525 44.1494C21.4925 44.1779 21.4546 44.1998 21.4136 44.2136C21.3711 44.2288 21.3263 44.2364 21.2812 44.236C21.2361 44.2362 21.1913 44.2287 21.1488 44.2136C21.1078 44.1998 21.0699 44.1779 21.0374 44.1494C21.005 44.1213 20.9786 44.0869 20.96 44.0482C20.9405 44.0062 20.9309 43.9602 20.9318 43.9139V43.0305C20.9309 42.984 20.9406 42.9378 20.96 42.8955C20.9788 42.8569 21.0051 42.8226 21.0374 42.7943C21.0702 42.7663 21.108 42.7447 21.1488 42.7308C21.1913 42.7158 21.2361 42.7082 21.2812 42.7084C21.3263 42.7081 21.3711 42.7156 21.4136 42.7308C21.4545 42.7447 21.4923 42.7663 21.525 42.7943C21.5575 42.8224 21.5839 42.8568 21.6024 42.8955C21.6224 42.9376 21.6323 42.9839 21.6314 43.0305V43.9139ZM20.9752 40.582V40.3544L21.2103 40.197H21.4447V41.6957H21.2103V40.4209L20.9752 40.582ZM21.6314 38.8593C21.6323 38.906 21.6224 38.9522 21.6024 38.9944C21.5839 39.033 21.5575 39.0675 21.525 39.0955C21.4923 39.1236 21.4545 39.1451 21.4136 39.1591C21.3711 39.1742 21.3263 39.1818 21.2812 39.1815C21.2361 39.1817 21.1913 39.1741 21.1488 39.1591C21.108 39.1451 21.0702 39.1236 21.0374 39.0955C21.0051 39.0673 20.9788 39.0329 20.96 38.9944C20.9406 38.952 20.9309 38.9059 20.9318 38.8593V37.976C20.9307 37.9313 20.9396 37.887 20.9578 37.8463C20.9761 37.8055 21.0033 37.7694 21.0374 37.7405C21.0699 37.7119 21.1078 37.6901 21.1488 37.6762C21.1913 37.6612 21.2361 37.6536 21.2812 37.6538C21.3263 37.6535 21.3711 37.6611 21.4136 37.6762C21.4546 37.6901 21.4925 37.7119 21.525 37.7405C21.5591 37.7695 21.5862 37.8056 21.6046 37.8463C21.623 37.887 21.6322 37.9313 21.6314 37.976V38.8593ZM21.6314 36.3313C21.6323 36.378 21.6224 36.4242 21.6024 36.4664C21.5839 36.505 21.5575 36.5395 21.525 36.5675C21.4923 36.5958 21.4545 36.6176 21.4136 36.6318C21.371 36.6463 21.3263 36.6537 21.2812 36.6534C21.2362 36.6535 21.1915 36.6462 21.1488 36.6318C21.1079 36.6176 21.0701 36.5958 21.0374 36.5675C21.0051 36.5393 20.9788 36.5049 20.96 36.4664C20.9406 36.424 20.9309 36.3779 20.9318 36.3313V35.4487C20.9309 35.4023 20.9405 35.3564 20.96 35.3143C20.9786 35.2757 21.005 35.2413 21.0374 35.2132C21.0699 35.1846 21.1078 35.1628 21.1488 35.1489C21.1913 35.1339 21.2361 35.1263 21.2812 35.1265C21.3263 35.1262 21.3711 35.1338 21.4136 35.1489C21.4546 35.1628 21.4925 35.1846 21.525 35.2132C21.5577 35.2411 21.5841 35.2755 21.6024 35.3143C21.6225 35.3562 21.6324 35.4022 21.6314 35.4487V36.3313ZM23.9465 43.9153C23.9476 43.9618 23.9376 44.0078 23.9176 44.0497C23.8992 44.0884 23.8728 44.1229 23.8402 44.1508C23.8076 44.1793 23.7698 44.2012 23.7288 44.2151C23.6863 44.2302 23.6415 44.2378 23.5964 44.2375C23.5513 44.2377 23.5065 44.2301 23.464 44.2151C23.4229 44.2012 23.3851 44.1793 23.3525 44.1508C23.3201 44.1227 23.2938 44.0883 23.2751 44.0497C23.2557 44.0076 23.246 43.9617 23.2469 43.9153V43.0305C23.2461 42.984 23.2557 42.9378 23.2751 42.8955C23.2939 42.8569 23.3203 42.8226 23.3525 42.7943C23.3853 42.7663 23.4231 42.7447 23.464 42.7308C23.5065 42.7158 23.5513 42.7082 23.5964 42.7084C23.6415 42.7081 23.6863 42.7156 23.7288 42.7308C23.7696 42.7447 23.8074 42.7663 23.8402 42.7943C23.8727 42.8224 23.899 42.8568 23.9176 42.8955C23.9375 42.9376 23.9475 42.9839 23.9465 43.0305V43.9153ZM23.2903 40.5834V40.3559L23.5255 40.1984H23.7599V41.6972H23.5255V40.4209L23.2903 40.5834ZM23.9465 38.8608C23.9475 38.9074 23.9375 38.9536 23.9176 38.9958C23.899 39.0345 23.8727 39.0689 23.8402 39.0969C23.8074 39.125 23.7696 39.1466 23.7288 39.1605C23.6863 39.1756 23.6415 39.1832 23.5964 39.1829C23.5513 39.1831 23.5065 39.1755 23.464 39.1605C23.4231 39.1466 23.3853 39.125 23.3525 39.0969C23.3203 39.0687 23.2939 39.0343 23.2751 38.9958C23.2557 38.9535 23.2461 38.9073 23.2469 38.8608V37.976C23.2458 37.9313 23.2547 37.887 23.273 37.8463C23.2913 37.8055 23.3184 37.7694 23.3525 37.7405C23.3851 37.7119 23.4229 37.6901 23.464 37.6762C23.5065 37.6612 23.5513 37.6536 23.5964 37.6538C23.6415 37.6535 23.6863 37.6611 23.7288 37.6762C23.7698 37.6901 23.8076 37.7119 23.8402 37.7405C23.8742 37.7695 23.9014 37.8056 23.9198 37.8463C23.9382 37.887 23.9473 37.9313 23.9465 37.976V38.8608ZM23.9465 36.3327C23.9475 36.3794 23.9375 36.4256 23.9176 36.4678C23.899 36.5065 23.8727 36.5409 23.8402 36.5689C23.8075 36.5972 23.7696 36.619 23.7288 36.6332C23.6861 36.6478 23.6414 36.6551 23.5964 36.6549C23.5513 36.655 23.5066 36.6477 23.464 36.6332C23.4231 36.619 23.3853 36.5972 23.3525 36.5689C23.3203 36.5407 23.2939 36.5063 23.2751 36.4678C23.2557 36.4255 23.2461 36.3793 23.2469 36.3327V35.4487C23.246 35.4023 23.2557 35.3564 23.2751 35.3143C23.2938 35.2757 23.3201 35.2413 23.3525 35.2132C23.3851 35.1846 23.4229 35.1628 23.464 35.1489C23.5065 35.1339 23.5513 35.1263 23.5964 35.1265C23.6415 35.1262 23.6863 35.1338 23.7288 35.1489C23.7698 35.1628 23.8076 35.1846 23.8402 35.2132C23.8728 35.2411 23.8992 35.2755 23.9176 35.3143C23.9376 35.3562 23.9476 35.4022 23.9465 35.4487V36.3327ZM26.1893 41.3888C26.1902 41.4354 26.1803 41.4816 26.1604 41.5238C26.1418 41.5625 26.1154 41.5969 26.083 41.625C26.0502 41.653 26.0124 41.6746 25.9715 41.6885C25.9291 41.7037 25.8842 41.7112 25.8391 41.7109C25.794 41.7111 25.7493 41.7035 25.7067 41.6885C25.6659 41.6746 25.6281 41.653 25.5953 41.625C25.563 41.5967 25.5367 41.5623 25.5179 41.5238C25.4985 41.4815 25.4889 41.4353 25.4897 41.3888V40.504C25.4886 40.4593 25.4975 40.415 25.5158 40.3743C25.534 40.3335 25.5612 40.2974 25.5953 40.2685C25.6279 40.2399 25.6657 40.2181 25.7067 40.2042C25.7493 40.1892 25.794 40.1816 25.8391 40.1818C25.8842 40.1815 25.9291 40.1891 25.9715 40.2042C26.0126 40.2181 26.0504 40.2399 26.083 40.2685C26.117 40.2975 26.1442 40.3336 26.1626 40.3743C26.1809 40.415 26.1901 40.4593 26.1893 40.504V41.3888ZM26.1893 38.8608C26.1902 38.9074 26.1803 38.9536 26.1604 38.9958C26.1418 39.0345 26.1154 39.0689 26.083 39.0969C26.0502 39.1252 26.0124 39.1471 25.9715 39.1612C25.9289 39.1758 25.8842 39.1831 25.8391 39.1829C25.7941 39.183 25.7494 39.1757 25.7067 39.1612C25.6659 39.1471 25.628 39.1252 25.5953 39.0969C25.563 39.0687 25.5367 39.0343 25.5179 38.9958C25.4985 38.9535 25.4889 38.9073 25.4897 38.8608V37.9767C25.4888 37.9303 25.4984 37.8844 25.5179 37.8423C25.5365 37.8037 25.5629 37.7693 25.5953 37.7412C25.6279 37.7127 25.6657 37.6908 25.7067 37.6769C25.7493 37.6619 25.794 37.6543 25.8391 37.6545C25.8842 37.6542 25.9291 37.6618 25.9715 37.6769C26.0126 37.6908 26.0504 37.7127 26.083 37.7412C26.1156 37.7691 26.142 37.8036 26.1604 37.8423C26.1804 37.8842 26.1903 37.9302 26.1893 37.9767V38.8608ZM28.3178 41.6928H28.0834V40.4209L27.8482 40.5791V40.3516L28.0834 40.1941H28.3178V41.6928ZM28.5044 38.8564C28.5054 38.9031 28.4955 38.9493 28.4755 38.9915C28.4569 39.0301 28.4306 39.0646 28.3981 39.0926C28.3653 39.1207 28.3275 39.1423 28.2867 39.1562C28.2442 39.1713 28.1994 39.1789 28.1543 39.1786C28.1092 39.1788 28.0644 39.1712 28.0219 39.1562C27.981 39.1423 27.9432 39.1207 27.9105 39.0926C27.8782 39.0644 27.8519 39.03 27.8331 38.9915C27.8136 38.9491 27.804 38.903 27.8048 38.8564V37.976C27.8037 37.9313 27.8126 37.887 27.8309 37.8463C27.8492 37.8055 27.8764 37.7694 27.9105 37.7405C27.943 37.7119 27.9809 37.6901 28.0219 37.6762C28.0644 37.6612 28.1092 37.6536 28.1543 37.6538C28.1994 37.6535 28.2442 37.6611 28.2867 37.6762C28.3277 37.6901 28.3656 37.7119 28.3981 37.7405C28.4321 37.7695 28.4593 37.8056 28.4777 37.8463C28.4961 37.887 28.5052 37.9313 28.5044 37.976V38.8564Z" fill="white"/>
<path d="M21.2821 45.4503C21.2516 45.4491 21.222 45.46 21.1996 45.4806C21.189 45.4905 21.1806 45.5025 21.175 45.5158C21.1694 45.5291 21.1667 45.5435 21.167 45.5579V46.1769H21.3971V45.5579C21.3974 45.5435 21.3947 45.5293 21.3892 45.516C21.3837 45.5027 21.3756 45.4906 21.3653 45.4806C21.3426 45.46 21.3127 45.4491 21.2821 45.4503Z" fill="white"/>
<path d="M17.158 40.3985C17.1275 40.3976 17.0979 40.4088 17.0756 40.4296C17.0649 40.4393 17.0565 40.4511 17.0509 40.4643C17.0453 40.4775 17.0426 40.4918 17.043 40.5061V41.3866C17.0426 41.401 17.0453 41.4152 17.0509 41.4284C17.0565 41.4417 17.0649 41.4535 17.0756 41.4632C17.0865 41.4736 17.0994 41.4818 17.1136 41.4871C17.1278 41.4925 17.1429 41.4949 17.158 41.4942C17.1733 41.4949 17.1885 41.4924 17.2028 41.4871C17.2171 41.4818 17.2302 41.4736 17.2412 41.4632C17.2516 41.4534 17.2598 41.4415 17.2653 41.4283C17.2708 41.4151 17.2734 41.4009 17.2731 41.3866V40.504C17.2734 40.4897 17.2708 40.4755 17.2653 40.4623C17.2598 40.4491 17.2516 40.4372 17.2412 40.4274C17.2183 40.4074 17.1885 40.397 17.158 40.3985Z" fill="white"/>
<path d="M21.2821 42.9266C21.2669 42.9259 21.2518 42.9283 21.2376 42.9337C21.2235 42.939 21.2105 42.9472 21.1996 42.9576C21.189 42.9673 21.1806 42.9792 21.1749 42.9924C21.1693 43.0056 21.1666 43.0199 21.167 43.0342V43.9147C21.1666 43.929 21.1693 43.9433 21.1749 43.9565C21.1806 43.9697 21.189 43.9816 21.1996 43.9912C21.2219 44.012 21.2515 44.0232 21.2821 44.0223C21.3128 44.0232 21.3427 44.0121 21.3653 43.9912C21.3757 43.9814 21.3839 43.9695 21.3893 43.9563C21.3948 43.9431 21.3975 43.929 21.3971 43.9147V43.0306C21.3975 43.0163 21.3948 43.0021 21.3893 42.9889C21.3839 42.9757 21.3757 42.9639 21.3653 42.954C21.3539 42.9442 21.3407 42.9367 21.3264 42.932C21.3121 42.9273 21.2971 42.9255 21.2821 42.9266Z" fill="white"/>
<path d="M14.9878 37.8706C14.9572 37.8697 14.9276 37.8809 14.9053 37.9017C14.8946 37.9114 14.8862 37.9232 14.8806 37.9364C14.875 37.9496 14.8723 37.9639 14.8727 37.9783V38.8587C14.8723 38.8731 14.875 38.8873 14.8806 38.9006C14.8862 38.9138 14.8946 38.9256 14.9053 38.9353C14.9162 38.9458 14.9292 38.9539 14.9433 38.9592C14.9575 38.9646 14.9726 38.967 14.9878 38.9663C15.003 38.967 15.0182 38.9645 15.0325 38.9592C15.0468 38.9539 15.0599 38.9457 15.071 38.9353C15.0813 38.9255 15.0895 38.9136 15.095 38.9004C15.1005 38.8872 15.1032 38.873 15.1028 38.8587V37.9761C15.1032 37.9618 15.1005 37.9476 15.095 37.9344C15.0895 37.9212 15.0813 37.9093 15.071 37.8995C15.048 37.8795 15.0182 37.8691 14.9878 37.8706Z" fill="white"/>
<path d="M25.8398 40.3985C25.8247 40.398 25.8096 40.4005 25.7955 40.4058C25.7813 40.4111 25.7683 40.4192 25.7573 40.4296C25.7467 40.4393 25.7383 40.4511 25.7327 40.4643C25.7271 40.4775 25.7244 40.4918 25.7248 40.5061V41.3866C25.7244 41.401 25.7271 41.4152 25.7327 41.4284C25.7383 41.4417 25.7467 41.4535 25.7573 41.4632C25.7682 41.4737 25.7812 41.4819 25.7954 41.4872C25.8095 41.4925 25.8247 41.4949 25.8398 41.4942C25.8551 41.4949 25.8703 41.4924 25.8846 41.4871C25.8988 41.4818 25.9119 41.4736 25.923 41.4632C25.9334 41.4534 25.9416 41.4415 25.9471 41.4283C25.9526 41.4151 25.9552 41.4009 25.9548 41.3866V40.504C25.9552 40.4897 25.9526 40.4755 25.9471 40.4623C25.9416 40.4491 25.9334 40.4372 25.923 40.4274C25.9001 40.4074 25.8702 40.397 25.8398 40.3985Z" fill="white"/>
<path d="M25.84 37.8706C25.825 37.8699 25.8099 37.8723 25.7957 37.8775C25.7816 37.8827 25.7686 37.8907 25.7576 37.9009C25.747 37.9107 25.7386 37.9225 25.733 37.9357C25.7274 37.9489 25.7247 37.9632 25.725 37.9775V38.858C25.7247 38.8724 25.7274 38.8868 25.733 38.9001C25.7386 38.9134 25.747 38.9254 25.7576 38.9353C25.7686 38.9455 25.7816 38.9535 25.7957 38.9587C25.8099 38.9639 25.825 38.9663 25.84 38.9656C25.8707 38.9668 25.9006 38.9559 25.9232 38.9353C25.9336 38.9253 25.9417 38.9132 25.9472 38.8999C25.9527 38.8866 25.9554 38.8723 25.9551 38.858V37.9768C25.9554 37.9625 25.9527 37.9484 25.9472 37.9352C25.9417 37.922 25.9336 37.9101 25.9232 37.9002C25.9005 37.8798 25.8706 37.8692 25.84 37.8706Z" fill="white"/>
<path d="M23.0826 28.5112C22.9838 28.4598 22.8898 28.3996 22.8019 28.3313C22.6985 28.2608 22.6254 28.1541 22.5971 28.0323C22.5639 27.8623 22.5508 27.6889 22.5581 27.5158C22.5586 27.506 22.5606 27.4963 22.5639 27.487C22.5986 27.3425 22.6362 27.2038 22.6688 27.0622C22.7484 26.7329 22.8301 26.4042 22.9053 26.0742C22.9729 25.7856 22.9509 25.4833 22.8424 25.2074C22.7681 25.0073 22.7313 24.7953 22.7339 24.5819C22.7247 23.9783 22.7532 23.3748 22.8193 22.7747C22.8547 22.4923 22.8916 22.2106 22.9227 21.9282C22.9756 21.5116 22.9283 21.0885 22.7845 20.6938C22.7284 20.548 22.6943 20.3946 22.6832 20.2388C22.6754 20.1748 22.681 20.1098 22.6999 20.0481C22.7281 19.9694 22.7578 19.8906 22.7881 19.8126C22.8383 19.6954 22.8437 19.5638 22.8033 19.4428C22.7925 19.4103 22.7853 19.3764 22.7751 19.3431C22.7432 19.2425 22.7345 19.136 22.7497 19.0316C22.7649 18.9271 22.8035 18.8275 22.8627 18.74C22.9255 18.6388 22.9742 18.5294 23.0074 18.415C23.1081 18.0657 23.1861 17.7104 23.241 17.3511C23.2505 17.2911 23.2642 17.2312 23.275 17.1727C23.3727 17.1553 23.4632 17.1423 23.5521 17.1236C23.9642 17.0392 24.3493 16.8557 24.6743 16.5891C24.7114 16.5565 24.7587 16.5379 24.8081 16.5363C24.8723 16.5335 24.9362 16.5255 24.9991 16.5125C25.3569 16.4375 25.7012 16.3084 26.0199 16.1297C26.2895 15.9827 26.5495 15.8189 26.7984 15.6393C26.8897 15.5702 26.9969 15.525 27.1102 15.5078C27.1666 15.5006 27.2231 15.5006 27.2802 15.4955C27.4059 15.4814 27.5282 15.446 27.642 15.3908C27.7345 15.3484 27.8341 15.3239 27.9357 15.3186C27.9974 15.316 28.0587 15.306 28.118 15.2889C28.1534 15.2786 28.1849 15.258 28.2085 15.2297C28.217 15.2212 28.223 15.2105 28.2259 15.1988C28.2287 15.1871 28.2283 15.1748 28.2246 15.1633C28.221 15.1519 28.2142 15.1416 28.2051 15.1337C28.196 15.1258 28.1849 15.1205 28.173 15.1185C28.144 15.1124 28.1143 15.1107 28.0847 15.1134C28.0124 15.1134 27.9466 15.1214 27.8771 15.1235C27.8574 15.1253 27.8377 15.1222 27.8195 15.1145C27.8013 15.1068 27.7853 15.0948 27.7729 15.0795C27.8192 15.0325 27.8626 14.9899 27.9046 14.9451C27.9998 14.8338 28.1214 14.7481 28.2584 14.6959C28.3072 14.6723 28.3516 14.6403 28.3893 14.6013C28.4016 14.5923 28.4103 14.5793 28.4141 14.5646C28.418 14.5499 28.4166 14.5343 28.4103 14.5204C28.4041 14.5082 28.3941 14.4983 28.3819 14.4921C28.3697 14.4859 28.3559 14.4837 28.3423 14.4858C28.3051 14.4864 28.2681 14.4902 28.2316 14.4973C28.0623 14.5349 27.8952 14.5797 27.7252 14.6136C27.5025 14.6534 27.2929 14.7469 27.1146 14.8859C26.9828 14.9876 26.8316 15.0613 26.6703 15.1026C26.416 15.1676 26.1576 15.2159 25.8969 15.2471C25.5141 15.3004 25.1393 15.4011 24.7813 15.5468C24.6044 15.6187 24.4404 15.719 24.2959 15.8437C24.2438 15.8884 24.1874 15.9296 24.1316 15.9708C24.0818 16.0081 24.0202 16.0265 23.958 16.0228C23.7902 16.0141 23.6216 16.0076 23.4516 16.0062C23.28 16.0039 23.1098 16.036 22.9509 16.1008C22.8255 16.154 22.7077 16.2237 22.6008 16.3081C22.5583 16.3423 22.5116 16.3709 22.4619 16.3933C22.4318 16.4117 22.3958 16.4178 22.3614 16.4103C22.327 16.4027 22.2969 16.3822 22.2774 16.3529C22.2354 16.2951 22.1891 16.2402 22.1471 16.1824C22.1312 16.1607 22.1197 16.134 22.0799 16.142L22.0263 16.2344C21.9463 16.3718 21.8289 16.4837 21.6877 16.5573C21.6132 16.5906 21.5302 16.6 21.4501 16.5842C21.37 16.5685 21.2968 16.5283 21.2406 16.4692C21.1596 16.3788 21.0886 16.28 21.0286 16.1745C21.0179 16.1581 21.0058 16.1426 20.9925 16.1282C20.9737 16.1477 20.9577 16.1622 20.9454 16.1781C20.8977 16.2388 20.8499 16.298 20.8051 16.3601C20.791 16.3806 20.7707 16.3962 20.7472 16.4045C20.7236 16.4128 20.6981 16.4134 20.6741 16.4063C20.6383 16.398 20.6039 16.3844 20.5721 16.3659C20.5281 16.3381 20.4856 16.308 20.4448 16.2756C20.3124 16.1753 20.1625 16.1003 20.0027 16.0546C19.8098 16.007 19.6102 15.9923 19.4124 16.0112C19.3111 16.017 19.2098 16.017 19.1085 16.0221C19.0641 16.0255 19.02 16.0124 18.9848 15.9852C18.9175 15.9361 18.8481 15.8884 18.7837 15.8343C18.6464 15.7177 18.4922 15.6225 18.3264 15.5519C17.9351 15.3912 17.5238 15.2838 17.1038 15.2326C16.8699 15.2067 16.6386 15.1617 16.4121 15.0983C16.3262 15.0757 16.2424 15.0454 16.1618 15.008C16.0755 14.9597 15.993 14.9049 15.9151 14.844C15.7806 14.7462 15.6274 14.6769 15.4651 14.6403C15.3037 14.602 15.1424 14.563 14.9811 14.5262C14.916 14.511 14.8501 14.4988 14.7836 14.4901C14.7459 14.485 14.6996 14.4785 14.6808 14.5255C14.662 14.5724 14.6924 14.6028 14.725 14.6259C14.7708 14.6633 14.8214 14.6943 14.8754 14.7183C14.9663 14.7517 15.0481 14.8059 15.1142 14.8765C15.1533 14.9177 15.1967 14.9545 15.2372 14.995C15.2716 15.0236 15.2968 15.0618 15.3095 15.1048C15.2763 15.1149 15.2421 15.1219 15.2075 15.1257C15.1562 15.1257 15.1041 15.1199 15.052 15.1185C15.0079 15.1141 14.9636 15.1141 14.9196 15.1185C14.9071 15.1198 14.8952 15.1247 14.8853 15.1324C14.8754 15.1402 14.8678 15.1505 14.8635 15.1623C14.8592 15.1742 14.8584 15.1869 14.861 15.1992C14.8636 15.2115 14.8696 15.2228 14.8783 15.2319C14.9011 15.2576 14.9303 15.2767 14.963 15.2875C15.015 15.304 15.069 15.3135 15.1236 15.3157C15.2476 15.3204 15.3693 15.3507 15.481 15.4045C15.5422 15.4314 15.6056 15.4529 15.6705 15.4688C15.733 15.4836 15.7967 15.4923 15.8608 15.4948C15.9979 15.4954 16.1319 15.5358 16.2464 15.6111C16.3188 15.6595 16.3911 15.71 16.4599 15.7555C16.7894 15.9843 17.1419 16.1779 17.5118 16.3334C17.7557 16.4383 18.0144 16.5045 18.2787 16.5298C18.3301 16.5326 18.3792 16.5521 18.4183 16.5855C18.7694 16.8723 19.1889 17.0636 19.6359 17.1409C19.6945 17.1517 19.7524 17.1597 19.8146 17.1691C19.8219 17.2059 19.8291 17.2413 19.8356 17.2731C19.8899 17.567 19.9326 17.8632 20.0114 18.1521C20.0615 18.3798 20.1452 18.5989 20.2596 18.8022C20.3036 18.8732 20.3324 18.9525 20.3442 19.0351C20.356 19.1178 20.3506 19.202 20.3283 19.2825C20.3146 19.3345 20.303 19.3879 20.2856 19.4399C20.246 19.5557 20.2493 19.6818 20.295 19.7953C20.3146 19.8459 20.3363 19.8957 20.3565 19.9463C20.3961 20.0425 20.4127 20.1466 20.405 20.2503C20.3871 20.4177 20.3485 20.5822 20.29 20.7401C20.2231 20.9266 20.1794 21.1207 20.1597 21.3179C20.1396 21.5918 20.1488 21.8671 20.1872 22.1391C20.2604 22.6132 20.3086 23.0908 20.3319 23.57C20.3392 23.882 20.3493 24.1933 20.3522 24.5046C20.3577 24.7625 20.3145 25.019 20.2249 25.2609C20.143 25.4798 20.12 25.7164 20.1583 25.947C20.1742 26.0474 20.1909 26.1478 20.2147 26.2461C20.3146 26.6573 20.4159 27.0678 20.5186 27.4776C20.5232 27.4916 20.5261 27.5062 20.5273 27.5209C20.5337 27.694 20.5201 27.8673 20.4868 28.0373C20.467 28.1353 20.4144 28.2237 20.3377 28.288C20.243 28.3715 20.1379 28.4426 20.0252 28.4996C19.9953 28.5118 19.9677 28.5289 19.9434 28.5502C19.9316 28.5583 19.9224 28.5698 19.9171 28.5832C19.9118 28.5966 19.9107 28.6112 19.9138 28.6253C19.9169 28.6393 19.9241 28.6521 19.9346 28.662C19.945 28.6719 19.9582 28.6785 19.9724 28.6809C19.991 28.6865 20.0088 28.6948 20.0252 28.7055C20.0777 28.7434 20.1405 28.7648 20.2053 28.7668C20.3488 28.7821 20.4938 28.7623 20.6278 28.7091C20.664 28.6932 20.7002 28.6795 20.7385 28.6665C20.7989 28.6435 20.8639 28.6353 20.9281 28.6426C20.9502 28.6447 20.9725 28.6447 20.9946 28.6426C21.0182 28.6414 21.0412 28.6351 21.0622 28.6243C21.0831 28.6134 21.1015 28.5982 21.116 28.5796C21.1305 28.5611 21.1409 28.5396 21.1464 28.5167C21.152 28.4938 21.1525 28.47 21.148 28.4469C21.1361 28.3759 21.109 28.3084 21.0684 28.249C21.0409 28.2103 21.026 28.1642 21.0257 28.1168C21.0257 27.994 21.02 27.869 21.033 27.747C21.0655 27.457 21.0822 27.1655 21.0829 26.8737C21.0833 26.7525 21.1056 26.6324 21.1487 26.5191C21.2052 26.366 21.2573 26.2114 21.3115 26.0575C21.3654 25.9102 21.3755 25.7504 21.3405 25.5974C21.3079 25.453 21.2681 25.3136 21.2392 25.172C21.229 25.1265 21.2241 25.08 21.2247 25.0333C21.2295 24.912 21.2554 24.7925 21.3014 24.6801C21.438 24.3266 21.4932 23.9469 21.4627 23.5693C21.4555 23.4656 21.4555 23.3616 21.4627 23.258C21.4692 23.0326 21.4786 22.808 21.4881 22.5833C21.4894 22.5664 21.4919 22.5495 21.4953 22.5328H21.5987C21.5987 22.5631 21.6024 22.5898 21.6031 22.6166C21.6067 22.7321 21.6089 22.8484 21.6139 22.9647C21.6314 23.1916 21.6341 23.4193 21.6219 23.6465C21.6006 23.9609 21.644 24.2762 21.7492 24.5732C21.7774 24.6606 21.8093 24.7466 21.8324 24.8347C21.8708 24.9634 21.8708 25.1004 21.8324 25.2291C21.7955 25.3439 21.7745 25.4638 21.7471 25.5823C21.7088 25.7395 21.7173 25.9044 21.7717 26.0568C21.8274 26.2157 21.8816 26.3746 21.9388 26.5328C21.9784 26.6367 21.9992 26.7467 22.0003 26.8578C22.0008 27.1351 22.0157 27.4121 22.0451 27.6877C22.0596 27.8221 22.0589 27.9586 22.061 28.0944C22.0603 28.1538 22.0431 28.2118 22.0111 28.262C21.9832 28.3146 21.959 28.3692 21.9388 28.4252C21.9301 28.452 21.9284 28.4805 21.9337 28.5082C21.9391 28.5358 21.9514 28.5617 21.9694 28.5833C21.9875 28.6049 22.0107 28.6216 22.037 28.6319C22.0633 28.6421 22.0917 28.6456 22.1196 28.6419C22.2207 28.6285 22.3236 28.6456 22.4148 28.691C22.5515 28.7498 22.7005 28.7746 22.8489 28.7632C22.9237 28.7634 22.9968 28.7405 23.058 28.6975C23.0743 28.6872 23.0922 28.6794 23.1108 28.6744C23.1233 28.6713 23.1348 28.6648 23.144 28.6558C23.1532 28.6467 23.1598 28.6354 23.1631 28.6229C23.1664 28.6105 23.1663 28.5974 23.1629 28.5849C23.1594 28.5725 23.1527 28.5613 23.1434 28.5523C23.1257 28.5351 23.1051 28.5212 23.0826 28.5112Z" fill="white"/>
<path d="M26.596 26.8246C26.4773 26.8492 26.3587 26.8744 26.2386 26.8882C26.0839 26.912 25.926 26.9034 25.7748 26.8629C25.749 26.8577 25.7245 26.8477 25.7025 26.8333C25.6225 26.77 25.5596 26.6879 25.5194 26.5942C25.4348 26.3672 25.3683 26.1339 25.3205 25.8965C25.2339 25.3978 25.0444 24.9226 24.7641 24.501C24.6495 24.3309 24.5186 24.1722 24.3734 24.0272C24.2625 23.9242 24.1653 23.8074 24.084 23.6798C24.0503 23.6254 24.0238 23.5669 24.0052 23.5057C23.9632 23.3612 23.9328 23.2168 23.8909 23.0723C23.781 22.6819 23.638 22.3016 23.4633 21.9354C23.3707 21.7411 23.2615 21.555 23.137 21.3793C23.1106 21.3377 23.073 21.3045 23.0285 21.2832C23.0357 21.4277 23.0444 21.5656 23.0509 21.705C23.0616 22.0164 23.0374 22.3279 22.9786 22.6339C22.923 22.9051 22.8836 23.1793 22.8606 23.4551C22.855 23.5063 22.8684 23.5577 22.8983 23.5996C22.9757 23.6993 23.0487 23.8025 23.1305 23.8979C23.2448 24.0308 23.3685 24.1557 23.4828 24.2894C23.6495 24.47 23.7668 24.6904 23.8236 24.9293C23.875 25.1631 23.9957 25.3761 24.1701 25.5404C24.2823 25.648 24.3966 25.7571 24.5015 25.8697C24.5739 25.9507 24.6392 26.0377 24.6968 26.1298C24.8857 26.4245 25.0195 26.7473 25.17 27.0615C25.216 27.1577 25.2424 27.262 25.2474 27.3685C25.2499 27.4826 25.2768 27.5949 25.3263 27.6978C25.339 27.7271 25.3581 27.7531 25.3821 27.7741C25.4061 27.7952 25.4344 27.8106 25.4651 27.8195C25.4958 27.8283 25.528 27.8303 25.5596 27.8252C25.5911 27.8202 25.6211 27.8083 25.6475 27.7903C25.7047 27.7598 25.7514 27.7127 25.7813 27.6552C25.8045 27.6085 25.8442 27.5719 25.8927 27.5527C25.9608 27.5231 26.0295 27.4942 26.0989 27.4674C26.2232 27.422 26.3287 27.3363 26.3985 27.224C26.4178 27.1924 26.4474 27.1685 26.4824 27.1561C26.5291 27.1393 26.5747 27.1198 26.6191 27.0976C26.6506 27.0823 26.6773 27.0588 26.6964 27.0296C26.7155 27.0003 26.7263 26.9664 26.7276 26.9315C26.732 26.8419 26.6828 26.8058 26.596 26.8246Z" fill="white"/>
<path d="M20.2242 23.497C20.2285 23.4353 20.2258 23.3733 20.2163 23.3121C20.1837 23.0896 20.1497 22.8672 20.1099 22.6462C20.0483 22.3206 20.024 21.9891 20.0376 21.6581C20.0441 21.5331 20.0535 21.4082 20.0615 21.2832L20.0477 21.2745C20.0139 21.306 19.982 21.3396 19.9522 21.3749C19.9102 21.4298 19.8726 21.4883 19.8365 21.5468C19.6389 21.8675 19.4794 22.21 19.3611 22.5674C19.2656 22.8506 19.1766 23.1366 19.1028 23.4262C19.0722 23.5581 19.0124 23.6815 18.9278 23.7874C18.8554 23.8791 18.7693 23.9643 18.6897 24.0525C18.6217 24.1247 18.545 24.1969 18.485 24.2778C18.1456 24.7064 17.9115 25.2082 17.8013 25.7433C17.7459 26.0248 17.6709 26.3021 17.577 26.5732C17.536 26.6715 17.4726 26.7587 17.3918 26.8282C17.3783 26.8391 17.3624 26.8467 17.3455 26.8506C17.2464 26.8825 17.1428 26.8981 17.0388 26.8968C16.8529 26.8967 16.6678 26.8725 16.4882 26.8246C16.4064 26.8 16.358 26.839 16.3594 26.9243C16.3596 26.9606 16.3701 26.9961 16.3897 27.0266C16.4093 27.0572 16.4372 27.0816 16.4701 27.0969C16.5135 27.12 16.5613 27.1345 16.6054 27.1561C16.6337 27.1661 16.6587 27.1836 16.6777 27.2067C16.7648 27.3439 16.8987 27.445 17.0547 27.4913C17.1103 27.5122 17.1646 27.5363 17.2175 27.5635C17.253 27.5806 17.2824 27.6084 17.3014 27.643C17.3282 27.6872 17.3619 27.727 17.4012 27.7607C17.4287 27.7882 17.4629 27.8082 17.5004 27.8185C17.5379 27.8289 17.5775 27.8293 17.6152 27.8198C17.653 27.8102 17.6876 27.791 17.7156 27.7641C17.7437 27.7371 17.7642 27.7033 17.7753 27.6661C17.8048 27.5902 17.824 27.5108 17.8324 27.4299C17.8418 27.2916 17.8751 27.156 17.9308 27.029C18.0234 26.8405 18.1131 26.6505 18.2028 26.4606C18.3598 26.1256 18.5856 25.8273 18.8655 25.5852C19.0449 25.4273 19.1771 25.2231 19.2475 24.995C19.27 24.9228 19.2859 24.8506 19.3076 24.7784C19.333 24.688 19.3726 24.6022 19.4248 24.5241C19.5603 24.3381 19.7077 24.161 19.8661 23.994C19.9783 23.869 20.0832 23.7354 20.1837 23.6025C20.2063 23.5715 20.2203 23.5351 20.2242 23.497Z" fill="white"/>
<path d="M17.6725 17.5785C17.8655 17.6127 18.064 17.6003 18.2513 17.5424C18.3321 17.5178 18.4182 17.5158 18.5001 17.5366C18.6579 17.5692 18.8149 17.6017 18.9733 17.6298C19.2023 17.6803 19.4412 17.6601 19.6584 17.572C19.7156 17.5475 19.7221 17.5482 19.7149 17.4861C19.7067 17.4276 19.6939 17.3699 19.6765 17.3135C19.6708 17.297 19.6602 17.2826 19.6461 17.2723C19.632 17.262 19.6151 17.2562 19.5977 17.2557L19.3857 17.2174C19.1711 17.1774 18.9658 17.098 18.7801 16.9834C18.6557 16.9075 18.5363 16.8237 18.4184 16.7414C18.3742 16.706 18.3195 16.6864 18.2628 16.6858C18.2037 16.6846 18.1452 16.6731 18.0899 16.6518C18.0204 16.6194 17.9435 16.606 17.8671 16.6128C17.843 16.6142 17.8189 16.6142 17.7948 16.6128C17.6443 16.6165 17.4931 16.6128 17.3426 16.6258C17.1921 16.6388 17.0568 16.6562 16.915 16.6742C16.711 16.6988 16.5055 16.7154 16.3044 16.7544C16.1079 16.795 15.9073 16.812 15.7068 16.805C15.6724 16.8028 15.6383 16.7977 15.6048 16.7898C15.4796 16.7602 15.3545 16.7313 15.23 16.6973C15.124 16.6707 15.0127 16.6735 14.9081 16.7053C14.7916 16.7364 14.6722 16.7602 14.5543 16.7847C14.508 16.7949 14.461 16.7977 14.4147 16.805C14.3828 16.81 14.3524 16.8252 14.3532 16.8584C14.3552 16.8869 14.3664 16.914 14.385 16.9357C14.4031 16.9524 14.4258 16.9635 14.4501 16.9675C14.4957 16.9805 14.542 16.9892 14.5883 16.9985C14.6896 17.0195 14.7916 17.0383 14.8929 17.0621C14.9159 17.063 14.9383 17.0696 14.9582 17.0814C14.978 17.0931 14.9946 17.1096 15.0065 17.1293C14.9768 17.1719 14.9341 17.1697 14.8965 17.1755C14.8336 17.1856 14.7692 17.1928 14.7062 17.2058C14.6799 17.2117 14.6552 17.2233 14.6339 17.2398C14.6185 17.2486 14.607 17.2628 14.6014 17.2795C14.5958 17.2963 14.5965 17.3145 14.6035 17.3308C14.6165 17.3691 14.6469 17.3749 14.6809 17.372C14.854 17.3689 15.0269 17.3822 15.1975 17.4117C15.3145 17.4345 15.4351 17.4323 15.5512 17.4052C15.6451 17.3748 15.7363 17.3368 15.824 17.2918C15.8553 17.2745 15.8901 17.2645 15.9258 17.2625C15.9615 17.2605 15.9972 17.2666 16.0302 17.2802C16.2962 17.3744 16.5718 17.4389 16.8521 17.4724C17.1226 17.5099 17.3976 17.541 17.6725 17.5785Z" fill="white"/>
<path d="M28.66 16.8036C28.4808 16.7806 28.3038 16.7436 28.1304 16.6931C28.0533 16.6725 27.9723 16.6725 27.8952 16.6931L27.4915 16.7914C27.468 16.7989 27.4438 16.804 27.4192 16.8065C27.2338 16.8184 27.0476 16.807 26.865 16.7726C26.7565 16.7487 26.648 16.7321 26.5358 16.7177C26.3817 16.6967 26.2269 16.678 26.0713 16.6635C25.8673 16.6447 25.6628 16.6289 25.4578 16.6158C25.3638 16.6101 25.2697 16.6158 25.1757 16.6158C25.1417 16.6167 25.1079 16.6215 25.0751 16.6303C25.0066 16.6579 24.9349 16.6769 24.8617 16.6866C24.7723 16.6864 24.6863 16.7205 24.6215 16.782C24.5846 16.8112 24.5462 16.8385 24.5065 16.8636C24.2551 17.0446 23.9668 17.168 23.6622 17.2247C23.6057 17.2334 23.55 17.2464 23.4943 17.2558C23.4552 17.2616 23.422 17.2746 23.4082 17.315C23.3923 17.3771 23.3814 17.44 23.3713 17.5028C23.3648 17.5368 23.3829 17.5548 23.4154 17.5685C23.6054 17.6501 23.8149 17.6752 24.0188 17.6408C24.2048 17.6112 24.3892 17.5765 24.573 17.5382C24.6684 17.5143 24.7686 17.5173 24.8624 17.5469C25.0333 17.5997 25.2144 17.6111 25.3905 17.5801C25.5519 17.5592 25.7139 17.5382 25.876 17.5187C26.2848 17.4703 26.6921 17.4176 27.0806 17.2739C27.1101 17.2611 27.1424 17.2558 27.1745 17.2586C27.2066 17.2614 27.2375 17.2721 27.2644 17.2897C27.2942 17.3075 27.3252 17.3234 27.357 17.3374C27.5019 17.409 27.6644 17.4373 27.8251 17.419C28.024 17.3974 28.2208 17.3555 28.4227 17.3706C28.4361 17.3734 28.4501 17.3713 28.4623 17.3649C28.4744 17.3584 28.4839 17.3479 28.4892 17.3352C28.4956 17.3217 28.4977 17.3065 28.4951 17.2918C28.4925 17.277 28.4854 17.2634 28.4747 17.2529C28.4514 17.2313 28.4234 17.2153 28.393 17.206C28.3308 17.1908 28.2664 17.1843 28.2027 17.1749C28.1622 17.1684 28.1188 17.1706 28.0855 17.128C28.0987 17.1086 28.1161 17.0925 28.1364 17.0807C28.1567 17.069 28.1793 17.0619 28.2027 17.0601C28.3257 17.0326 28.4494 17.0102 28.5731 16.9835C28.6119 16.9756 28.6499 16.9645 28.6867 16.9503C28.7021 16.945 28.7157 16.9354 28.7257 16.9225C28.7357 16.9097 28.7418 16.8942 28.7432 16.878C28.7432 16.8347 28.7229 16.8109 28.66 16.8036Z" fill="white"/>
<path d="M20.9325 15.8459C20.9368 15.8459 20.9405 15.8517 20.939 15.8503C20.9497 15.9051 20.9655 15.9587 20.986 16.0106C21.0727 16.1986 21.2192 16.3528 21.4028 16.4491C21.4461 16.4735 21.4951 16.4863 21.5449 16.4863C21.5947 16.4863 21.6437 16.4735 21.6871 16.4491C21.8037 16.3897 21.9056 16.3052 21.9855 16.2016C22.0653 16.098 22.1211 15.978 22.1487 15.8503L22.174 15.8431C22.2223 15.8349 22.2661 15.8096 22.2972 15.7717C22.3283 15.7339 22.3447 15.6861 22.3433 15.6372C22.3454 15.5829 22.3425 15.5285 22.3346 15.4747C22.3209 15.3656 22.2977 15.3418 22.1899 15.3151C22.1899 15.2515 22.2008 15.1923 22.2008 15.133C22.2052 15.0325 22.1848 14.9325 22.1413 14.8418C22.0977 14.7511 22.0324 14.6725 21.9512 14.613C21.8741 14.555 21.7903 14.5065 21.7016 14.4685C21.6417 14.4464 21.5778 14.4375 21.5142 14.4425C21.375 14.4574 21.2444 14.5167 21.1416 14.6116C21.0554 14.6753 20.987 14.76 20.943 14.8576C20.8989 14.9552 20.8806 15.0625 20.8898 15.1692C20.8898 15.2183 20.897 15.2667 20.9007 15.3136C20.7892 15.3432 20.7733 15.3591 20.756 15.4725C20.7494 15.5165 20.746 15.5609 20.7458 15.6054C20.7408 15.7549 20.8189 15.8286 20.9325 15.8459Z" fill="white"/>
<path d="M29.2489 29.3476H13.8387V13.9629H29.2489V29.3476ZM14.2728 28.9143H28.8148V14.3963H14.2728V28.9143Z" fill="white"/>
<path d="M21.5439 29.3477C19.6908 29.3477 17.8794 28.7991 16.3387 27.7713C14.798 26.7435 13.5971 25.2827 12.888 23.5735C12.1789 21.8643 11.9933 19.9836 12.3548 18.1692C12.7163 16.3548 13.6087 14.6881 14.9189 13.38C16.2292 12.0719 17.8986 11.181 19.7161 10.8201C21.5335 10.4592 23.4173 10.6444 25.1293 11.3524C26.8412 12.0603 28.3045 13.2592 29.334 14.7974C30.3635 16.3356 30.9129 18.144 30.9129 19.994C30.9101 22.4739 29.9221 24.8513 28.1656 26.6049C26.4092 28.3584 24.0278 29.3448 21.5439 29.3477ZM21.5439 11.0738C19.7767 11.0738 18.0492 11.5969 16.5799 12.5771C15.1105 13.5573 13.9653 14.9504 13.289 16.5804C12.6128 18.2103 12.4358 20.0039 12.7806 21.7343C13.1253 23.4646 13.9763 25.0541 15.2259 26.3016C16.4755 27.5491 18.0675 28.3987 19.8007 28.7429C21.534 29.0871 23.3305 28.9104 24.9631 28.2353C26.5958 27.5601 27.9913 26.4168 28.973 24.9499C29.9548 23.4829 30.4789 21.7583 30.4789 19.994C30.4762 17.629 29.534 15.3617 27.8589 13.6894C26.1838 12.0171 23.9128 11.0764 21.5439 11.0738Z" fill="white"/>
</svg>
