<svg width="32" height="32" viewBox="0 0 32 32" fill="none" xmlns="http://www.w3.org/2000/svg">
<path d="M29.3346 22.6667C29.3333 28.0001 29.3333 28.0001 24.0013 28.0001C18.6693 28.0001 17.3346 24.0001 17.3346 20.0001C17.3346 19.4961 17.3106 18.7761 17.3 17.9334L19.9973 19.4921L20 20.0001C20 23.7014 21.088 25.3334 24 25.3334C25.52 25.3334 26.1466 25.3241 26.6173 25.2827C26.6573 24.8147 26.6666 24.1867 26.6666 22.6667C26.6666 18.3934 25.7293 14.6227 24.22 12.1334C23.1026 10.2907 22.0693 9.67741 21.5106 9.86275C21.12 9.99341 20.704 10.7294 20.4026 12.0267L18.016 10.6494C18.508 9.05341 19.3253 7.78141 20.6666 7.33342C24.6666 6.00008 29.3386 12.6667 29.3346 22.6667ZM11.3333 7.33342C12.676 7.78141 13.4933 9.05341 13.9853 10.6494L11.5986 12.0267C11.2973 10.7294 10.88 9.99341 10.4906 9.86275C9.93063 9.67608 8.89729 10.2894 7.78129 12.1321C6.27063 14.6227 5.33329 18.3934 5.33329 22.6667C5.33329 24.1867 5.34263 24.8134 5.38263 25.2827C5.85329 25.3241 6.47996 25.3334 7.99996 25.3334C10.912 25.3334 12 23.7014 12 20.0001L12.0053 19.4907L14.7026 17.9334C14.6893 18.7774 14.6666 19.4961 14.6666 20.0001C14.6666 24.0001 13.3333 28.0001 7.99996 28.0001C2.66663 28.0001 2.66663 28.0001 2.66663 22.6667C2.66663 12.6667 7.33329 6.00008 11.3333 7.33342ZM17.3333 2.66675V12.5627L23.5946 16.1787L22.2613 18.4881L16 14.8734L9.73863 18.4881L8.40529 16.1787L14.6666 12.5627V2.66675H17.3333Z" fill="#144278"/>
</svg>
