<svg width="32" height="32" viewBox="0 0 32 32" fill="none" xmlns="http://www.w3.org/2000/svg">
<path d="M20.6588 18.6032L18.138 15.6966C16.8518 14.2135 16.1413 12.2983 16.1412 10.314V9.3417H14.4301C14.0243 9.3417 13.6224 9.42367 13.2475 9.58291C12.8726 9.74216 12.532 9.97556 12.2451 10.2698C11.9582 10.564 11.7307 10.9133 11.5756 11.2977C11.4205 11.682 11.3409 12.094 11.3412 12.5099C11.3418 14.2315 10.9308 15.927 10.144 17.448L8.79999 20.0502V20.3395L16.1412 21.4971C16.1412 21.4971 16.1412 26.706 18.4 28.8938M17.8353 11.0792H23.2V13.5297C23.2 14.818 22.6805 16.0126 21.8142 16.8669M11.6235 29.5999C11.6235 27.7328 11.8822 25.7534 12.7529 24.1826M14.56 7.02777C14.56 7.02777 12.7529 5.87022 12.7529 4.42329C12.7529 3.88666 12.9609 3.372 13.3312 2.99254C13.7014 2.61308 14.2035 2.3999 14.7271 2.3999C15.2507 2.3999 15.7529 2.61308 16.1231 2.99254C16.4934 3.372 16.7014 3.88666 16.7014 4.42329C16.7014 5.87022 14.8988 7.02777 14.8988 7.02777H14.56ZM20.5154 8.84164C20.5154 8.84164 18.9647 7.82879 18.9647 6.56244C18.9647 5.58431 19.7237 4.79139 20.6611 4.79139C21.5985 4.79139 22.3529 5.58431 22.3529 6.56244C22.3529 7.82879 20.8056 8.8428 20.8056 8.8428L20.5154 8.84164Z" stroke="#144278" stroke-width="2"/>
</svg>
