<svg width="32" height="32" viewBox="0 0 32 32" fill="none" xmlns="http://www.w3.org/2000/svg">
<path fill-rule="evenodd" clip-rule="evenodd" d="M16.9587 5.41542C16.9947 5.4953 17.0145 5.58149 17.0172 5.66906C17.0199 5.75664 17.0052 5.84388 16.9742 5.92579C16.9431 6.0077 16.8961 6.08269 16.8361 6.14646C16.776 6.21022 16.7039 6.26152 16.624 6.29742C16.04 6.56023 15.5441 6.98569 15.1956 7.52291C14.8471 8.06013 14.6607 8.68638 14.6587 9.32675V9.35009C14.663 10.2011 14.9926 11.0182 15.58 11.634C16.1674 12.2498 16.9681 12.6176 17.818 12.662C18.6679 12.7064 19.5025 12.4241 20.1509 11.8729C20.7993 11.3217 21.2123 10.5433 21.3053 9.69742C21.3242 9.52149 21.4121 9.36025 21.5498 9.24917C21.6875 9.13808 21.8637 9.08626 22.0397 9.10509C22.2156 9.12392 22.3768 9.21186 22.4879 9.34958C22.599 9.48729 22.6508 9.66349 22.632 9.83942C22.5296 10.7986 22.1312 11.7022 21.492 12.4248C22.4754 12.6469 23.3605 13.1816 24.0147 13.9488C24.0716 14.0153 24.1148 14.0925 24.1419 14.1758C24.169 14.2591 24.1794 14.3469 24.1726 14.4342C24.1657 14.5215 24.1418 14.6066 24.102 14.6847C24.0623 14.7627 24.0076 14.8322 23.941 14.8891C23.8744 14.946 23.7973 14.9892 23.714 15.0163C23.6307 15.0434 23.5429 15.0538 23.4556 15.047C23.3683 15.0402 23.2831 15.0162 23.2051 14.9765C23.127 14.9367 23.0576 14.882 23.0007 14.8154C22.4489 14.1663 21.6694 13.7531 20.8225 13.6607C19.9755 13.5683 19.1253 13.8037 18.4465 14.3186C17.7677 14.8335 17.3118 15.5887 17.1725 16.4292C17.0332 17.2698 17.221 18.1317 17.6973 18.8381L17.702 18.8434C17.775 18.9384 17.821 19.0512 17.8353 19.1701C18.0573 19.1981 18.2693 19.3054 18.4273 19.4874C18.5793 19.6634 18.7176 19.8428 18.842 20.0254C19.084 20.3788 19.052 20.8374 18.7947 21.1528C18.9942 21.1484 19.19 21.2077 19.3536 21.3221C19.5172 21.4364 19.6402 21.5999 19.7047 21.7888C19.8447 22.1974 19.9527 22.5968 20.0447 22.9594C20.0881 23.1286 20.0836 23.3066 20.0315 23.4733C19.9795 23.64 19.882 23.789 19.75 23.9034C20.0653 23.9488 20.35 24.1521 20.484 24.4661C20.6073 24.7548 20.7253 24.8954 20.8347 24.9728C21.0107 25.0968 21.1307 25.2701 21.19 25.4608C21.3387 25.2648 21.564 25.1274 21.828 25.0954C21.9702 25.0785 22.13 25.051 22.3073 25.0128C22.578 24.9534 22.8467 25.0174 23.0553 25.1668C23.1282 25.0628 23.2293 24.9819 23.3467 24.9334L23.5293 24.8568C23.6968 24.7775 23.8465 24.6652 23.9695 24.5266C24.0924 24.3879 24.186 24.2258 24.2447 24.0501C24.3773 23.6501 24.366 23.0701 23.9833 22.3281C23.9412 22.2501 23.9151 22.1646 23.9065 22.0764C23.8979 21.9882 23.9069 21.8992 23.933 21.8146C23.9592 21.7299 24.002 21.6514 24.0588 21.5834C24.1157 21.5155 24.1855 21.4596 24.2643 21.419C24.343 21.3783 24.429 21.3538 24.5173 21.3468C24.6057 21.3398 24.6945 21.3505 24.7786 21.3782C24.8628 21.406 24.9405 21.4502 25.0074 21.5083C25.0742 21.5664 25.1288 21.6373 25.168 21.7168C25.44 22.2434 25.5953 22.7608 25.6413 23.2514C26.1377 22.6523 26.5374 21.9793 26.826 21.2568C26.859 21.1756 26.9077 21.1018 26.9693 21.0395C27.0309 20.9773 27.1041 20.9277 27.1849 20.8937C27.2656 20.8597 27.3522 20.842 27.4398 20.8415C27.5274 20.841 27.6142 20.8577 27.6953 20.8908C27.7764 20.9238 27.8503 20.9725 27.9125 21.0341C27.9748 21.0957 28.0244 21.1689 28.0584 21.2496C28.0924 21.3303 28.1101 21.417 28.1106 21.5046C28.1111 21.5921 28.0944 21.679 28.0613 21.7601C27.644 22.7834 27.1253 23.5668 26.626 24.1514C26.9507 24.1894 27.2927 24.2694 27.662 24.3981C27.8291 24.456 27.9663 24.5779 28.0435 24.737C28.1207 24.8961 28.1316 25.0793 28.0737 25.2464C28.0158 25.4135 27.8939 25.5507 27.7348 25.6279C27.5757 25.7052 27.3924 25.716 27.2253 25.6581C26.562 25.4274 26.0907 25.4181 25.6313 25.5141C25.2033 25.6028 24.7827 25.7781 24.1953 26.0241L24.0707 26.0761C23.9938 26.1123 23.9153 26.1447 23.8353 26.1734C23.7 26.2241 23.5519 26.2295 23.4133 26.1888C23.367 26.3529 23.2769 26.5014 23.1526 26.6182C23.0284 26.7351 22.8747 26.8159 22.708 26.8521C22.48 26.9019 22.2613 26.9394 22.052 26.9648C21.8336 26.9912 21.6129 26.9403 21.4282 26.8208C21.2436 26.7013 21.1067 26.5208 21.0413 26.3108C20.894 26.5056 20.6766 26.6355 20.4352 26.6728C20.1938 26.7101 19.9473 26.652 19.748 26.5108C19.25 26.1588 18.9527 25.6741 18.7527 25.2061C18.6739 25.0228 18.6556 24.8193 18.7001 24.6249C18.7447 24.4305 18.85 24.2554 19.0007 24.1248C18.816 24.0988 18.6433 24.0185 18.5044 23.8941C18.3655 23.7697 18.2667 23.6068 18.2207 23.4261C18.1355 23.08 18.0366 22.7375 17.924 22.3994C17.8719 22.248 17.8594 22.0858 17.8877 21.9281C17.9159 21.7705 17.984 21.6227 18.0853 21.4988C17.9289 21.5021 17.7741 21.4664 17.635 21.3948C17.4959 21.3232 17.3768 21.218 17.2887 21.0888C17.201 20.9604 17.106 20.8373 17.004 20.7201C16.8982 20.5982 16.8256 20.4511 16.7931 20.293C16.7607 20.1349 16.7695 19.9711 16.8187 19.8174C16.7424 19.7696 16.6766 19.7067 16.6253 19.6328L16.6187 19.6214C16.3071 19.2222 15.9086 18.8994 15.4534 18.6776C14.9982 18.4558 14.4984 18.3408 13.992 18.3414C12.9253 18.3414 11.976 18.8414 11.3653 19.6214C11.3201 19.6871 11.2732 19.7515 11.2247 19.8148C10.8551 20.3647 10.6578 21.0122 10.658 21.6748C10.658 22.3101 10.8353 22.9014 11.1427 23.4061C11.2311 23.557 11.2567 23.7365 11.2139 23.9061C11.1712 24.0756 11.0636 24.2216 10.9142 24.3126C10.7648 24.4035 10.5857 24.4321 10.4155 24.3923C10.2452 24.3524 10.0974 24.2472 10.004 24.0994C9.48766 23.2528 9.25568 22.2633 9.342 21.2754C8.46785 21.6448 7.50216 21.7401 6.57266 21.5488C6.39948 21.5131 6.24754 21.4102 6.15027 21.2625C6.053 21.1149 6.01837 20.9346 6.054 20.7614C6.08963 20.5882 6.19259 20.4363 6.34025 20.339C6.4879 20.2418 6.66815 20.2071 6.84133 20.2428C7.06 20.2881 7.28578 20.311 7.51866 20.3114C8.58533 20.3114 9.53467 19.8114 10.1453 19.0314C10.1907 18.9652 10.2376 18.9008 10.286 18.8381C10.7563 18.139 10.9444 17.2877 10.8125 16.4555C10.6806 15.6234 10.2384 14.872 9.57494 14.3527C8.91147 13.8333 8.07593 13.5845 7.23641 13.6562C6.3969 13.728 5.61571 14.115 5.05 14.7394C4.93109 14.8703 4.76505 14.9487 4.58839 14.9572C4.41173 14.9657 4.23893 14.9037 4.108 14.7848C3.97707 14.6658 3.89874 14.4998 3.89024 14.3231C3.88174 14.1465 3.94376 13.9737 4.06266 13.8428C4.70742 13.1317 5.55573 12.6368 6.492 12.4254C5.87407 11.7252 5.48044 10.8557 5.362 9.92942C5.34238 9.75529 5.3921 9.58043 5.50042 9.44268C5.60875 9.30493 5.76695 9.21537 5.9408 9.19337C6.11465 9.17138 6.29017 9.21872 6.42938 9.32515C6.56859 9.43159 6.6603 9.58855 6.68467 9.76209C6.79388 10.6002 7.21736 11.3656 7.86946 11.9034C8.52155 12.4412 9.35357 12.7113 10.1972 12.6589C11.0408 12.6066 11.8331 12.2357 12.4137 11.6215C12.9943 11.0072 13.3199 10.1953 13.3247 9.35009V9.32675C13.3227 8.6969 13.1423 8.08049 12.8043 7.54895C12.4664 7.01741 11.9848 6.59249 11.4153 6.32342C11.3362 6.28595 11.2652 6.23326 11.2064 6.16835C11.1476 6.10345 11.1022 6.0276 11.0728 5.94514C11.0433 5.86268 11.0304 5.77523 11.0347 5.68777C11.039 5.60031 11.0605 5.51456 11.098 5.43542C11.1355 5.35628 11.1882 5.28529 11.2531 5.22651C11.318 5.16773 11.3938 5.12231 11.4763 5.09284C11.5587 5.06338 11.6462 5.05044 11.7336 5.05477C11.8211 5.0591 11.9069 5.08062 11.986 5.11809C12.8186 5.51285 13.5163 6.14427 13.992 6.93342C14.4829 6.11887 15.21 5.47294 16.0767 5.08142C16.1565 5.04541 16.2427 5.02548 16.3302 5.02278C16.4177 5.02008 16.505 5.03465 16.5869 5.06567C16.6688 5.09668 16.7438 5.14354 16.8076 5.20355C16.8714 5.26356 16.9227 5.33556 16.9587 5.41542ZM13.992 16.0068C14.1254 16.0102 14.2582 15.9869 14.3825 15.9382C14.5068 15.8895 14.6201 15.8164 14.7157 15.7233C14.8113 15.6301 14.8873 15.5187 14.9392 15.3957C14.9911 15.2727 15.0178 15.1406 15.0178 15.0071C15.0178 14.8736 14.9911 14.7415 14.9392 14.6184C14.8873 14.4954 14.8113 14.3841 14.7157 14.2909C14.6201 14.1977 14.5068 14.1247 14.3825 14.076C14.2582 14.0273 14.1254 14.004 13.992 14.0074C13.7268 14.0074 13.4724 14.1128 13.2849 14.3003C13.0974 14.4879 12.992 14.7422 12.992 15.0074C12.992 15.2726 13.0974 15.527 13.2849 15.7145C13.4724 15.9021 13.7268 16.0068 13.992 16.0068Z" fill="#144278"/>
</svg>
