<svg width="32" height="32" viewBox="0 0 32 32" fill="none" xmlns="http://www.w3.org/2000/svg">
<path d="M11.196 14.9801C11.4561 14.9281 11.6849 14.7749 11.832 14.5543C11.9792 14.3336 12.0327 14.0635 11.9807 13.8034C11.9287 13.5433 11.7755 13.3145 11.5549 13.1674C11.3342 13.0202 11.0641 12.9668 10.804 13.0188C9.60002 13.2588 8.69068 14.1014 8.20668 15.2308C7.72668 16.3481 7.65602 17.7454 8.03068 19.2414C8.05994 19.3714 8.11489 19.4943 8.19231 19.6028C8.26972 19.7113 8.36804 19.8032 8.48149 19.8731C8.59493 19.943 8.72121 19.9896 8.8529 20.01C8.98459 20.0305 9.11905 20.0244 9.24835 19.9921C9.37766 19.9599 9.49921 19.9021 9.60587 19.8222C9.71253 19.7423 9.80214 19.6419 9.86943 19.5268C9.93673 19.4118 9.98035 19.2845 9.99774 19.1523C10.0151 19.0202 10.0059 18.8859 9.97068 18.7574C9.67735 17.5868 9.77335 16.6508 10.044 16.0188C10.3107 15.3974 10.7347 15.0734 11.196 14.9801ZM7.29468 4.55875C7.2377 5.50539 7.37629 6.45361 7.7018 7.34435C8.02731 8.23508 8.53277 9.04924 9.18668 9.73608C7.9165 10.1003 6.7793 10.8253 5.91307 11.8231C5.04684 12.8209 4.48881 14.0487 4.30668 15.3574C3.86782 18.4977 4.51211 21.6938 6.13335 24.4188L6.60002 25.2054L6.65735 25.2894L8.54535 27.8307C8.94524 28.3694 9.45772 28.8144 10.0471 29.1347C10.6365 29.4551 11.2886 29.6431 11.9581 29.6858C12.6276 29.7284 13.2983 29.6246 13.9236 29.3816C14.5489 29.1386 15.1137 28.7623 15.5787 28.2788C15.6331 28.2222 15.6983 28.1772 15.7704 28.1465C15.8426 28.1158 15.9202 28.0999 15.9987 28.0999C16.0771 28.0999 16.1548 28.1158 16.2269 28.1465C16.2991 28.1772 16.3643 28.2222 16.4187 28.2788C16.8837 28.7623 17.4485 29.1386 18.0738 29.3816C18.699 29.6246 19.3698 29.7284 20.0392 29.6858C20.7087 29.6431 21.3609 29.4551 21.9503 29.1347C22.5396 28.8144 23.0521 28.3694 23.452 27.8307L25.34 25.2881L25.396 25.2041L25.864 24.4174C27.4863 21.6933 28.132 18.4977 27.6947 15.3574C27.5656 14.4321 27.2479 13.5431 26.7614 12.7455C26.2749 11.948 25.6298 11.2587 24.8661 10.7205C24.1024 10.1823 23.2364 9.80661 22.3216 9.61663C21.4069 9.42666 20.4629 9.42647 19.548 9.61608L17.0134 10.1414H17.0093C17.0493 9.10142 17.212 7.98142 17.5307 7.02408C17.9173 5.86675 18.4534 5.17075 19.0507 4.92275C19.2956 4.82055 19.4898 4.62526 19.5907 4.37984C19.6916 4.13442 19.6909 3.85897 19.5887 3.61408C19.4865 3.3692 19.2912 3.17495 19.0458 3.07405C18.8004 2.97316 18.5249 2.97389 18.28 3.07608C16.8773 3.66142 16.08 5.04942 15.6334 6.39075L15.572 6.58008C15.244 5.9454 14.8199 5.36521 14.3147 4.86008C13.6232 4.16774 12.7926 3.63021 11.8777 3.28312C10.9629 2.93603 9.9847 2.78729 9.00802 2.84675C8.5623 2.87241 8.1415 3.06076 7.82544 3.37608C7.50938 3.6914 7.32005 4.11176 7.29335 4.55742M9.28402 4.83342C9.95309 4.81411 10.619 4.9319 11.2409 5.17954C11.8628 5.42718 12.4274 5.79944 12.9 6.27342C13.374 6.74605 13.7463 7.31067 13.9939 7.93253C14.2415 8.55439 14.3593 9.22034 14.34 9.88942C14.0982 9.89474 13.8563 9.8836 13.616 9.85608L12.7934 9.68542C12.012 9.45086 11.301 9.02618 10.724 8.44942C10.25 7.97678 9.87778 7.41217 9.63014 6.79031C9.3825 6.16845 9.26471 5.50249 9.28402 4.83342ZM12.044 11.5734L12.3133 11.6294C12.6333 11.7201 12.9578 11.7876 13.2867 11.8321L14.58 12.0988C15.5167 12.2928 16.4833 12.2928 17.42 12.0988L19.956 11.5734C20.6029 11.4394 21.2704 11.4395 21.9172 11.5739C22.564 11.7082 23.1764 11.9739 23.7163 12.3545C24.2563 12.7351 24.7124 13.2225 25.0563 13.7865C25.4003 14.3505 25.6248 14.9791 25.716 15.6334C26.0904 18.3237 25.5369 21.0613 24.1467 23.3948L23.7053 24.1374L21.848 26.6388C21.6214 26.9441 21.3308 27.1963 20.9967 27.3779C20.6626 27.5595 20.2929 27.666 19.9134 27.6902C19.5339 27.7143 19.1538 27.6554 18.7993 27.5175C18.4449 27.3797 18.1248 27.1663 17.8614 26.8921C17.6205 26.6414 17.3314 26.442 17.0116 26.3057C16.6917 26.1695 16.3477 26.0992 16 26.0992C15.6524 26.0992 15.3083 26.1695 14.9884 26.3057C14.6686 26.442 14.3796 26.6414 14.1387 26.8921C13.8752 27.1663 13.5551 27.3797 13.2007 27.5175C12.8463 27.6554 12.4661 27.7143 12.0866 27.6902C11.7071 27.666 11.3374 27.5595 11.0033 27.3779C10.6692 27.1963 10.3787 26.9441 10.152 26.6388L8.29468 24.1374L7.85335 23.3948C6.4636 21.0611 5.91054 18.3236 6.28535 15.6334C6.37655 14.9793 6.60104 14.3508 6.94493 13.7869C7.28881 13.223 7.74477 12.7357 8.28458 12.3551C8.82439 11.9745 9.43657 11.7088 10.0832 11.5743C10.7299 11.4399 11.3972 11.4396 12.044 11.5734Z" fill="#144278"/>
</svg>
