<svg width="32" height="32" viewBox="0 0 32 32" fill="none" xmlns="http://www.w3.org/2000/svg">
<path d="M11.8134 19.2721C12.328 18.7574 12.9734 18.4521 13.6427 18.3574M13.6427 18.3574C14.1434 18.2865 14.6538 18.3339 15.1328 18.496C15.6118 18.6582 16.0462 18.9304 16.4009 19.2908C16.7556 19.6513 17.0208 20.0899 17.1753 20.5715C17.3297 21.053 17.369 21.5641 17.29 22.0636C17.2111 22.5631 17.016 23.0372 16.7206 23.4476C16.4252 23.8581 16.0376 24.1935 15.589 24.427C15.1404 24.6604 14.6433 24.7854 14.1376 24.7918C13.6319 24.7983 13.1318 24.686 12.6774 24.4641C12.148 24.2041 11.476 24.1841 11.0587 24.6001L6.32535 29.3334M13.6427 18.3574C13.7136 17.8567 13.6662 17.3463 13.5041 16.8673C13.3419 16.3883 13.0697 15.9539 12.7093 15.5992C12.3488 15.2445 11.9102 14.9793 11.4286 14.8248C10.9471 14.6704 10.436 14.6311 9.93649 14.7101C9.43697 14.789 8.96294 14.9841 8.55249 15.2795C8.14204 15.5749 7.80661 15.9625 7.57315 16.4111C7.33969 16.8597 7.21472 17.3568 7.20827 17.8625C7.20182 18.3682 7.31408 18.8683 7.53602 19.3227C7.79602 19.8521 7.81602 20.5241 7.40002 20.9414L2.66669 25.6747M20.1867 12.7281C19.672 13.2427 19.0267 13.5481 18.3574 13.6427M18.3574 13.6427C17.8566 13.7137 17.3463 13.6662 16.8672 13.5041C16.3882 13.342 15.9539 13.0698 15.5991 12.7093C15.2444 12.3489 14.9792 11.9103 14.8248 11.4287C14.6704 10.9471 14.631 10.4361 14.71 9.93655C14.789 9.43703 14.984 8.963 15.2794 8.55255C15.5749 8.1421 15.9625 7.80667 16.4111 7.57321C16.8597 7.33975 17.3568 7.21478 17.8625 7.20833C18.3681 7.20188 18.8683 7.31414 19.3227 7.53608C19.852 7.79608 20.524 7.81608 20.9414 7.40008L25.6747 2.66675M18.3574 13.6427C18.2864 14.1435 18.3339 14.6538 18.496 15.1329C18.6581 15.6119 18.9303 16.0462 19.2908 16.401C19.6512 16.7557 20.0898 17.0209 20.5714 17.1753C21.053 17.3297 21.564 17.3691 22.0636 17.2901C22.5631 17.2111 23.0371 17.0161 23.4475 16.7207C23.858 16.4252 24.1934 16.0376 24.4269 15.589C24.6603 15.1404 24.7853 14.6433 24.7918 14.1376C24.7982 13.632 24.686 13.1318 24.464 12.6774C24.204 12.1481 24.184 11.4761 24.6 11.0587L29.3334 6.32541M21.3334 24.0001V26.6667M24 21.3334H26.6667M10.6667 8.00008V5.33341M8.00002 10.6667H5.33335" stroke="#144278" stroke-width="2" stroke-linecap="round" stroke-linejoin="round"/>
</svg>
