<svg width="32" height="32" viewBox="0 0 32 32" fill="none" xmlns="http://www.w3.org/2000/svg">
<path d="M8 29.3334V23.6001C6.73333 22.4445 5.75022 21.0947 5.05067 19.5507C4.35111 18.0067 4.00089 16.3787 4 14.6667C4 11.3334 5.16667 8.50008 7.5 6.16675C9.83333 3.83341 12.6667 2.66675 16 2.66675C18.7778 2.66675 21.2391 3.48364 23.384 5.11741C25.5289 6.75119 26.9231 8.87875 27.5667 11.5001L29.3 18.3334C29.4111 18.7556 29.3333 19.1392 29.0667 19.4841C28.8 19.829 28.4444 20.001 28 20.0001H25.3333V24.0001C25.3333 24.7334 25.0724 25.3614 24.5507 25.8841C24.0289 26.4067 23.4009 26.6676 22.6667 26.6667H20V29.3334H17.3333V24.0001H22.6667V17.3334H26.2667L25 12.1667C24.4889 10.1445 23.4 8.50008 21.7333 7.23341C20.0667 5.96675 18.1556 5.33341 16 5.33341C13.4222 5.33341 11.2222 6.23341 9.4 8.03341C7.57778 9.83341 6.66667 12.0223 6.66667 14.6001C6.66667 15.9334 6.93911 17.2001 7.484 18.4001C8.02889 19.6001 8.80089 20.6667 9.8 21.6001L10.6667 22.4001V29.3334H8ZM16 21.3334C16.3778 21.3334 16.6947 21.2054 16.9507 20.9494C17.2067 20.6934 17.3342 20.377 17.3333 20.0001C17.3324 19.6232 17.2044 19.3067 16.9493 19.0507C16.6942 18.7947 16.3778 18.6667 16 18.6667C15.6222 18.6667 15.3058 18.7947 15.0507 19.0507C14.7956 19.3067 14.6676 19.6232 14.6667 20.0001C14.6658 20.377 14.7938 20.6939 15.0507 20.9507C15.3076 21.2076 15.624 21.3352 16 21.3334ZM15 17.0667H17.0333C17.0333 16.5112 17.1058 16.0614 17.2507 15.7174C17.3956 15.3734 17.6898 14.9565 18.1333 14.4667C18.5333 14.0223 18.9222 13.5725 19.3 13.1174C19.6778 12.6623 19.8667 12.0676 19.8667 11.3334C19.8667 10.4001 19.5058 9.61119 18.784 8.96675C18.0622 8.3223 17.1676 8.00008 16.1 8.00008C15.2111 8.00008 14.4058 8.25564 13.684 8.76675C12.9622 9.27786 12.4564 9.94453 12.1667 10.7667L14 11.5334C14.1556 11.0445 14.428 10.6499 14.8173 10.3494C15.2067 10.049 15.6342 9.89919 16.1 9.90008C16.5889 9.90008 16.9947 10.0334 17.3173 10.3001C17.64 10.5667 17.8009 10.9112 17.8 11.3334C17.8 11.8001 17.6613 12.217 17.384 12.5841C17.1067 12.9512 16.7787 13.3232 16.4 13.7001C15.9556 14.1667 15.6111 14.6334 15.3667 15.1001C15.1222 15.5667 15 16.2223 15 17.0667Z" fill="#144278"/>
</svg>
