<svg width="32" height="32" viewBox="0 0 32 32" fill="none" xmlns="http://www.w3.org/2000/svg">
<path d="M6.66667 29.3334C5.93333 29.3334 5.30578 29.0725 4.784 28.5507C4.26222 28.029 4.00089 27.401 4 26.6667V8.00008C4 7.26675 4.26133 6.63919 4.784 6.11741C5.30667 5.59564 5.93422 5.3343 6.66667 5.33341H8V2.66675H10.6667V5.33341H21.3333V2.66675H24V5.33341H25.3333C26.0667 5.33341 26.6947 5.59475 27.2173 6.11741C27.74 6.64008 28.0009 7.26764 28 8.00008V26.6667C28 27.4001 27.7391 28.0281 27.2173 28.5507C26.6956 29.0734 26.0676 29.3343 25.3333 29.3334H6.66667ZM6.66667 26.6667H25.3333V8.00008H6.66667V26.6667ZM12 26.6667V24.2667L9.6 21.4667C9.35556 21.2223 9.13867 20.889 8.94933 20.4667C8.76 20.0445 8.66578 19.5556 8.66667 19.0001C8.66667 18.7112 8.69467 18.4276 8.75067 18.1494C8.80667 17.8712 8.90089 17.5992 9.03333 17.3334C8.92222 17.089 8.83333 16.8281 8.76667 16.5507C8.7 16.2734 8.66667 15.9787 8.66667 15.6667C8.66667 15.1112 8.76133 14.6223 8.95067 14.2001C9.14 13.7779 9.35644 13.4445 9.6 13.2001L12 10.4001V8.00008H14V10.7667C14 10.8779 13.9222 11.089 13.7667 11.4001L11.1 14.5334C10.9444 14.7112 10.8333 14.8947 10.7667 15.0841C10.7 15.2734 10.6667 15.4676 10.6667 15.6667C10.6667 16.1112 10.8111 16.4947 11.1 16.8174C11.3889 17.1401 11.7556 17.301 12.2 17.3001C12.4 17.3001 12.5889 17.2667 12.7667 17.2001C12.9444 17.1334 13.1 17.0223 13.2333 16.8667C13.6111 16.489 14.0387 16.2001 14.516 16.0001C14.9933 15.8001 15.488 15.7001 16 15.7001C16.512 15.7001 17.0067 15.8001 17.484 16.0001C17.9613 16.2001 18.3889 16.489 18.7667 16.8667C18.9222 17.0223 19.0889 17.1334 19.2667 17.2001C19.4444 17.2667 19.6222 17.3001 19.8 17.3001C20.2444 17.3001 20.6111 17.1392 20.9 16.8174C21.1889 16.4956 21.3333 16.1232 21.3333 15.7001C21.3333 15.5001 21.2942 15.3059 21.216 15.1174C21.1378 14.929 21.0324 14.7454 20.9 14.5667L18.2333 11.4001C18.1444 11.3112 18.0836 11.2112 18.0507 11.1001C18.0178 10.989 18.0009 10.8779 18 10.7667V8.00008H20V10.4001L22.4333 13.2667C22.7444 13.6223 22.9724 14.0059 23.1173 14.4174C23.2622 14.829 23.3342 15.2565 23.3333 15.7001C23.3333 15.989 23.2942 16.2725 23.216 16.5507C23.1378 16.829 23.0436 17.0899 22.9333 17.3334C23.0667 17.6001 23.1667 17.8725 23.2333 18.1507C23.3 18.429 23.3333 18.7121 23.3333 19.0001C23.3333 19.5556 23.2387 20.0445 23.0493 20.4667C22.86 20.889 22.6436 21.2223 22.4 21.4667L20 24.2667V26.6667H18V23.9001C18 23.7667 18.0778 23.5556 18.2333 23.2667L20.9 20.1334C21.0556 19.9556 21.1667 19.7667 21.2333 19.5667C21.3 19.3667 21.3333 19.1667 21.3333 18.9667C21.0889 19.0779 20.8444 19.1614 20.6 19.2174C20.3556 19.2734 20.1 19.301 19.8333 19.3001C19.3889 19.3001 18.9444 19.2112 18.5 19.0334C18.0556 18.8556 17.6667 18.589 17.3333 18.2334C17.1778 18.0556 16.9836 17.9223 16.7507 17.8334C16.5178 17.7445 16.2676 17.7001 16 17.7001C15.7556 17.7001 15.5169 17.7445 15.284 17.8334C15.0511 17.9223 14.8453 18.0556 14.6667 18.2334C14.3333 18.589 13.9502 18.8556 13.5173 19.0334C13.0844 19.2112 12.6453 19.3001 12.2 19.3001C11.9333 19.3001 11.672 19.2725 11.416 19.2174C11.16 19.1623 10.9102 19.0783 10.6667 18.9654C10.6667 19.1654 10.7 19.3654 10.7667 19.5654C10.8333 19.7654 10.9444 19.9543 11.1 20.1321L13.7667 23.2654C13.8333 23.3765 13.8889 23.4823 13.9333 23.5827C13.9778 23.6832 14 23.7885 14 23.8987V26.6667H12Z" fill="#144278"/>
</svg>
