<svg width="20" height="20" viewBox="0 0 20 20" fill="none" xmlns="http://www.w3.org/2000/svg">
<g clip-path="url(#clip0_43_1177)">
<path d="M5.00002 12.5H3.12502C2.73825 12.5 2.36731 12.6537 2.09382 12.9272C1.82033 13.2007 1.66669 13.5716 1.66669 13.9584C1.66669 14.3452 1.82033 14.7161 2.09382 14.9896C2.36731 15.2631 2.73825 15.4167 3.12502 15.4167H11.0417C11.4285 15.4167 11.7994 15.5704 12.0729 15.8438C12.3464 16.1173 12.5 16.4883 12.5 16.875C12.5 17.2618 12.3464 17.6328 12.0729 17.9062C11.7994 18.1797 11.4285 18.3334 11.0417 18.3334H9.16669M14.1217 2.64421C14.6109 2.15505 14.855 1.91088 15.1267 1.79338C15.5175 1.62421 15.96 1.62421 16.3509 1.79338C16.6217 1.91005 16.8667 2.15505 17.3559 2.64421C17.845 3.13338 18.0892 3.37838 18.2067 3.64921C18.3759 4.04005 18.3759 4.48255 18.2067 4.87338C18.09 5.14421 17.845 5.38921 17.3559 5.87838L13.1709 10.0634C12.14 11.0942 11.625 11.6092 10.9792 11.915C10.3334 12.2209 9.60752 12.2917 8.15669 12.435L7.50002 12.5L7.56502 11.8434C7.70835 10.3925 7.77919 9.66671 8.08502 9.02088C8.39085 8.37505 8.90585 7.86005 9.93669 6.82921L14.1217 2.64421Z" stroke="white" stroke-width="1.5" stroke-linecap="round" stroke-linejoin="round"/>
</g>
<defs>
<clipPath id="clip0_43_1177">
<rect width="20" height="20" fill="white"/>
</clipPath>
</defs>
</svg>
