<svg width="32" height="32" viewBox="0 0 32 32" fill="none" xmlns="http://www.w3.org/2000/svg">
<path d="M20.4709 30.4207C21.5638 30.0922 22.5813 29.5516 23.4652 28.8298C24.6949 27.8241 25.5863 26.5464 26.112 25.1498C26.2859 24.6885 26.3394 24.1905 26.2674 23.7028C26.1955 23.215 26.0006 22.7537 25.701 22.3621C25.4014 21.9706 25.0071 21.6619 24.5551 21.4649C24.1031 21.268 23.6085 21.1895 23.1177 21.2367C23.5383 21.1407 23.9406 20.9487 24.2972 20.6584C25.5406 19.6458 25.6366 17.3395 24.624 16.0961C23.756 15.0273 22.6463 14.1802 21.3865 13.6246C20.1267 13.069 18.7529 12.8209 17.3783 12.9007L20.3955 5.98181C20.5672 5.58861 20.659 5.16516 20.6655 4.73613C20.6721 4.30711 20.5931 3.88107 20.4334 3.48284C20.2736 3.08462 20.0362 2.72216 19.735 2.41658C19.4338 2.111 19.0748 1.86842 18.6789 1.70295C18.0215 1.42036 17.2862 1.37505 16.5991 1.57477C15.9119 1.7745 15.3156 2.20684 14.912 2.79781C12.6469 6.18523 8.48003 13.0561 8.22175 18.1121C7.86289 25.0835 8.22175 30.4207 8.22175 30.4207" stroke="#144278" stroke-width="2" stroke-linecap="round" stroke-linejoin="round"/>
<path d="M16.3657 19.7487C16.022 20.0308 15.7477 20.3881 15.5639 20.793C15.3801 21.1979 15.2918 21.6396 15.3058 22.084C15.3197 22.5285 15.4356 22.9638 15.6445 23.3563C15.8534 23.7489 16.1496 24.0882 16.5104 24.3481C16.8712 24.608 17.2869 24.7815 17.7254 24.8553C18.1639 24.9291 18.6135 24.9012 19.0395 24.7737C19.4655 24.6462 19.8565 24.4226 20.1823 24.12C20.5082 23.8175 20.7602 23.4441 20.9189 23.0287C21.0877 22.5807 21.3647 22.1813 21.7252 21.8663C22.0857 21.5512 22.5186 21.3302 22.9852 21.223C22.5085 21.2692 22.0278 21.1967 21.5859 21.0121C21.144 20.8274 20.7547 20.5363 20.4526 20.1647C20.2117 19.8692 19.915 19.624 19.5794 19.4431C19.2438 19.2622 18.8758 19.1493 18.4965 19.1106C18.1172 19.072 17.734 19.1085 17.3688 19.218C17.0036 19.3274 16.6612 19.5078 16.3657 19.7487Z" stroke="#144278" stroke-width="2" stroke-linecap="round" stroke-linejoin="round"/>
<path d="M17.3989 12.9051C16.8137 12.9737 15.424 13.232 14.5417 13.712M8.09144 20.5691C6.04572 15.9954 6.13715 8.48227 6.35429 4.59198C6.40195 3.87868 6.6958 3.20406 7.18565 2.68336C7.6755 2.16266 8.33094 1.82821 9.04001 1.73713C9.46494 1.6778 9.89742 1.70361 10.3123 1.81305C10.7271 1.9225 11.1161 2.1134 11.4564 2.37462C11.7968 2.63585 12.0818 2.96219 12.2948 3.33463C12.5078 3.70707 12.6446 4.11817 12.6971 4.54398V6.37027" stroke="#144278" stroke-width="2" stroke-linecap="round" stroke-linejoin="round"/>
</svg>
