<svg width="32" height="32" viewBox="0 0 32 32" fill="none" xmlns="http://www.w3.org/2000/svg">
<path fill-rule="evenodd" clip-rule="evenodd" d="M26 5.33333H6C5.82319 5.33333 5.65362 5.40357 5.5286 5.5286C5.40357 5.65362 5.33333 5.82319 5.33333 6V26C5.33333 26.1768 5.40357 26.3464 5.5286 26.4714C5.65362 26.5964 5.82319 26.6667 6 26.6667H26C26.1768 26.6667 26.3464 26.5964 26.4714 26.4714C26.5964 26.3464 26.6667 26.1768 26.6667 26V6C26.6667 5.82319 26.5964 5.65362 26.4714 5.5286C26.3464 5.40357 26.1768 5.33333 26 5.33333ZM6 4C5.46957 4 4.96086 4.21071 4.58579 4.58579C4.21071 4.96086 4 5.46957 4 6V26C4 26.5304 4.21071 27.0391 4.58579 27.4142C4.96086 27.7893 5.46957 28 6 28H26C26.5304 28 27.0391 27.7893 27.4142 27.4142C27.7893 27.0391 28 26.5304 28 26V6C28 5.46957 27.7893 4.96086 27.4142 4.58579C27.0391 4.21071 26.5304 4 26 4H6Z" fill="#144278"/>
<path fill-rule="evenodd" clip-rule="evenodd" d="M6.86796 18.9607C6.59929 19.6614 6.96063 20.4494 7.67929 20.6654C10.3783 21.477 13.1816 21.8889 16 21.8881C18.8866 21.8881 21.6786 21.4601 24.3206 20.6654C25.0393 20.4494 25.4006 19.6614 25.132 18.9607L21.4733 9.43608C21.226 8.79141 20.5273 8.44741 19.852 8.59275C18.6093 8.85941 17.32 9.00008 15.9993 9.00008C14.6786 9.00008 13.39 8.86008 12.1466 8.59275C11.4713 8.44741 10.7733 8.79141 10.5253 9.43608L6.86796 18.9607ZM22 14.5287C22 15.9874 20.7846 17.1701 19.286 17.1701C19.1717 17.1701 19.0593 17.1634 18.9486 17.1501C18.8466 17.2867 18.738 17.4741 18.612 17.6894C18.072 18.6154 17.2266 20.0627 15.3333 20.3334C13.8553 20.5467 12.8333 19.3021 12.1553 17.9761C12.07 17.8094 11.9866 17.6487 11.9086 17.5001L11.5526 17.6601C11.2413 17.7994 10.9366 17.9361 10.7913 17.9927C10.1726 18.2327 9.47063 17.9401 9.22329 17.3381C8.97596 16.7361 9.27663 16.0534 9.89596 15.8127C9.98396 15.7787 10.1733 15.6927 10.422 15.5814C10.5886 15.5061 10.7833 15.4187 10.992 15.3267C11.2176 15.2258 11.4452 15.1293 11.6746 15.0374C11.7768 14.9963 11.8807 14.9593 11.986 14.9267C12.0578 14.9049 12.1308 14.8871 12.2046 14.8734C12.2751 14.861 12.3464 14.8543 12.418 14.8534C12.4893 14.8521 12.6846 14.8534 12.9086 14.9421C13.0896 15.0136 13.2511 15.1269 13.38 15.2727C13.4266 15.3261 13.462 15.3741 13.4806 15.4007C13.5206 15.4574 13.5573 15.5167 13.5853 15.5634C13.6446 15.6614 13.714 15.7867 13.7873 15.9207C13.8753 16.0834 14.1373 16.6061 14.2633 16.8601C14.2753 16.8846 14.2961 16.9036 14.3215 16.9134C14.3469 16.9232 14.3751 16.9231 14.4004 16.9129C14.4257 16.9028 14.4463 16.8835 14.4579 16.8588C14.4696 16.8342 14.4715 16.8061 14.4633 16.7801L14.078 15.5114C13.9753 15.1687 13.872 14.8247 13.7873 14.5501C13.7402 14.3978 13.6915 14.246 13.6413 14.0947C13.6382 14.0854 13.638 14.0839 13.6406 14.0901C13.39 13.4887 13.6873 12.8047 14.3053 12.5614C14.9226 12.3174 15.626 12.6074 15.8766 13.2081L16.46 15.1894C16.4733 15.2367 16.52 15.2667 16.5686 15.2601C16.5816 15.2582 16.594 15.2535 16.6051 15.2465C16.6162 15.2395 16.6256 15.2302 16.6329 15.2192C16.6401 15.2083 16.645 15.1959 16.6471 15.183C16.6492 15.17 16.6486 15.1568 16.6453 15.1441C16.597 14.9425 16.5724 14.736 16.572 14.5287C16.572 13.4447 17.048 12.7034 18.052 12.2527C18.8346 11.9021 19.7633 11.7961 20.5293 12.1807C21.4026 12.6201 22 13.5067 22 14.5287ZM24 8.00008V9.33341C24 9.51023 24.0702 9.67979 24.1952 9.80482C24.3202 9.92984 24.4898 10.0001 24.6666 10.0001C24.8434 10.0001 25.013 9.92984 25.138 9.80482C25.2631 9.67979 25.3333 9.51023 25.3333 9.33341V7.66675C25.3333 7.40153 25.2279 7.14718 25.0404 6.95964C24.8529 6.7721 24.5985 6.66675 24.3333 6.66675H22.6666C22.4898 6.66675 22.3202 6.73699 22.1952 6.86201C22.0702 6.98703 22 7.1566 22 7.33341C22 7.51023 22.0702 7.67979 22.1952 7.80482C22.3202 7.92984 22.4898 8.00008 22.6666 8.00008H24ZM7.99996 8.00008H9.33329C9.5101 8.00008 9.67967 7.92984 9.8047 7.80482C9.92972 7.67979 9.99996 7.51023 9.99996 7.33341C9.99996 7.1566 9.92972 6.98703 9.8047 6.86201C9.67967 6.73699 9.5101 6.66675 9.33329 6.66675H7.66663C7.40141 6.66675 7.14706 6.7721 6.95952 6.95964C6.77198 7.14718 6.66663 7.40153 6.66663 7.66675V9.33341C6.66663 9.51023 6.73686 9.67979 6.86189 9.80482C6.98691 9.92984 7.15648 10.0001 7.33329 10.0001C7.5101 10.0001 7.67967 9.92984 7.8047 9.80482C7.92972 9.67979 7.99996 9.51023 7.99996 9.33341V8.00008ZM24 24.0001V22.6667C24 22.4899 24.0702 22.3204 24.1952 22.1953C24.3202 22.0703 24.4898 22.0001 24.6666 22.0001C24.8434 22.0001 25.013 22.0703 25.138 22.1953C25.2631 22.3204 25.3333 22.4899 25.3333 22.6667V24.3334C25.3333 24.5986 25.2279 24.853 25.0404 25.0405C24.8529 25.2281 24.5985 25.3334 24.3333 25.3334H22.6666C22.4898 25.3334 22.3202 25.2632 22.1952 25.1382C22.0702 25.0131 22 24.8436 22 24.6667C22 24.4899 22.0702 24.3204 22.1952 24.1953C22.3202 24.0703 22.4898 24.0001 22.6666 24.0001H24ZM7.99996 24.0001H9.33329C9.5101 24.0001 9.67967 24.0703 9.8047 24.1953C9.92972 24.3204 9.99996 24.4899 9.99996 24.6667C9.99996 24.8436 9.92972 25.0131 9.8047 25.1382C9.67967 25.2632 9.5101 25.3334 9.33329 25.3334H7.66663C7.40141 25.3334 7.14706 25.2281 6.95952 25.0405C6.77198 24.853 6.66663 24.5986 6.66663 24.3334V22.6667C6.66663 22.4899 6.73686 22.3204 6.86189 22.1953C6.98691 22.0703 7.15648 22.0001 7.33329 22.0001C7.5101 22.0001 7.67967 22.0703 7.8047 22.1953C7.92972 22.3204 7.99996 22.4899 7.99996 22.6667V24.0001Z" fill="#144278"/>
</svg>
