<svg width="32" height="32" viewBox="0 0 32 32" fill="none" xmlns="http://www.w3.org/2000/svg">
<path d="M15.3334 5.33341C14.0957 5.33341 12.9087 5.82508 12.0335 6.70025C11.1584 7.57542 10.6667 8.7624 10.6667 10.0001C10.6667 11.2378 11.1584 12.4247 12.0335 13.2999C12.9087 14.1751 14.0957 14.6667 15.3334 14.6667C16.571 14.6667 17.758 14.1751 18.6332 13.2999C19.5084 12.4247 20 11.2378 20 10.0001C20 8.7624 19.5084 7.57542 18.6332 6.70025C17.758 5.82508 16.571 5.33341 15.3334 5.33341ZM8.00002 10.0001C8.00002 8.05516 8.77264 6.1899 10.1479 4.81463C11.5232 3.43937 13.3884 2.66675 15.3334 2.66675C17.2783 2.66675 19.1435 3.43937 20.5188 4.81463C21.8941 6.1899 22.6667 8.05516 22.6667 10.0001C22.6667 11.945 21.8941 13.8103 20.5188 15.1855C19.1435 16.5608 17.2783 17.3334 15.3334 17.3334C13.3884 17.3334 11.5232 16.5608 10.1479 15.1855C8.77264 13.8103 8.00002 11.945 8.00002 10.0001ZM25.3107 17.3094L26.1147 18.3734C27.3384 19.9942 28.0002 21.9699 27.9994 24.0008C27.9987 26.0316 27.3356 28.0068 26.1107 29.6267L25.3067 30.6907L23.18 29.0827L23.984 28.0187C24.8591 26.8616 25.3328 25.4506 25.3332 23.9999C25.3337 22.5491 24.861 21.1378 23.9867 19.9801L23.1827 18.9161L25.3107 17.3094ZM10.6667 21.3334C9.2522 21.3334 7.89564 21.8953 6.89545 22.8955C5.89526 23.8957 5.33335 25.2523 5.33335 26.6667H17.4V29.3334H2.66669V26.6667C2.66669 24.545 3.50954 22.5102 5.00983 21.0099C6.51012 19.5096 8.54496 18.6667 10.6667 18.6667H17.3334V21.3334H10.6667ZM21.5867 20.1201L22.3907 21.1854C23.0027 21.9957 23.3336 22.9835 23.3334 23.999C23.3332 25.0144 23.0017 26.0021 22.3894 26.8121L21.584 27.8761L19.4574 26.2681L20.2627 25.2041C20.5252 24.8568 20.6672 24.4334 20.6672 23.9981C20.6672 23.5628 20.5252 23.1393 20.2627 22.7921L19.46 21.7281L21.5867 20.1201Z" fill="#144278"/>
</svg>
