<svg width="32" height="32" viewBox="0 0 32 32" fill="none" xmlns="http://www.w3.org/2000/svg">
<path d="M16.0002 10C16.5471 10 17.0627 9.92188 17.5471 9.76562C18.0314 9.60938 18.5158 9.4375 19.0002 9.25C19.4845 9.0625 19.965 8.89062 20.4415 8.73438C20.9181 8.57812 21.4376 8.5 22.0001 8.5V10C21.6564 10 21.3282 10.0352 21.0157 10.1055C20.7033 10.1758 20.3986 10.2695 20.1017 10.3867C19.8048 10.5039 19.5001 10.625 19.1877 10.75C18.8752 10.875 18.5588 10.9961 18.2385 11.1133C17.9181 11.2305 17.5705 11.3203 17.1955 11.3828C16.8205 11.4453 16.4221 11.4844 16.0002 11.5C15.5705 11.5 15.1721 11.4648 14.8049 11.3945C14.4377 11.3242 14.0901 11.2305 13.762 11.1133C13.4338 10.9961 13.1214 10.875 12.8245 10.75C12.5276 10.625 12.2229 10.5039 11.9104 10.3867C11.5979 10.2695 11.2894 10.1797 10.9847 10.1172C10.68 10.0547 10.3519 10.0156 10.0003 10V8.5C10.5394 8.5 11.055 8.57812 11.5472 8.73438C12.0393 8.89062 12.5237 9.0625 13.0003 9.25C13.4768 9.4375 13.9612 9.60938 14.4534 9.76562C14.9455 9.92188 15.4612 10 16.0002 10ZM28 10.7852C28 12.168 27.8984 13.5742 27.6953 15.0039C27.4922 16.4336 27.1953 17.8516 26.8047 19.2578C26.4141 20.6641 25.9219 22.0273 25.3282 23.3477C24.7344 24.668 24.0587 25.9141 23.3009 27.0859C23.1134 27.3672 22.8751 27.5898 22.586 27.7539C22.297 27.918 21.9806 28 21.6368 28C21.2072 28 20.8204 27.8789 20.4767 27.6367C20.133 27.3945 19.8947 27.0664 19.7619 26.6523L17.676 20.418C17.4025 20.4492 17.1252 20.4688 16.8439 20.4766C16.5627 20.4844 16.2815 20.4922 16.0002 20.5C15.719 20.5 15.4377 20.4961 15.1565 20.4883C14.8752 20.4805 14.5979 20.457 14.3245 20.418L12.2386 26.6523C12.1057 27.0586 11.8675 27.3828 11.5237 27.625C11.18 27.8672 10.7933 27.9922 10.3636 28C10.0198 28 9.70344 27.918 9.41439 27.7539C9.12533 27.5898 8.88705 27.3672 8.69956 27.0859C7.93394 25.9219 7.25817 24.6797 6.67225 23.3594C6.08632 22.0391 5.59805 20.6758 5.20743 19.2695C4.81681 17.8633 4.51603 16.4453 4.3051 15.0156C4.09417 13.5859 3.99261 12.1758 4.00042 10.7852C4.00042 9.91016 4.13323 9.06641 4.39885 8.25391C4.66447 7.44141 5.05118 6.71875 5.55899 6.08594C6.06679 5.45312 6.69178 4.94922 7.43395 4.57422C8.17613 4.19922 9.02377 4.00781 9.97688 4C10.5316 4 11.0511 4.07812 11.5354 4.23438C12.0198 4.39062 12.5042 4.5625 12.9885 4.75C13.4729 4.9375 13.9534 5.10938 14.4299 5.26562C14.9065 5.42188 15.4299 5.5 16.0002 5.5C16.5549 5.5 17.0744 5.42188 17.5588 5.26562C18.0431 5.10938 18.5275 4.9375 19.0119 4.75C19.4962 4.5625 19.9767 4.39062 20.4533 4.23438C20.9298 4.07812 21.4532 4 22.0235 4C22.9767 4 23.8243 4.1875 24.5665 4.5625C25.3086 4.9375 25.9336 5.44141 26.4414 6.07422C26.9492 6.70703 27.336 7.42969 27.6016 8.24219C27.8672 9.05469 28 9.90234 28 10.7852ZM26.5 10.8086C26.5 10.082 26.4024 9.39844 26.2071 8.75781C26.0118 8.11719 25.7188 7.55469 25.3282 7.07031C24.9376 6.58594 24.4454 6.20312 23.8516 5.92188C23.2579 5.64062 22.5743 5.5 21.8009 5.5C21.3478 5.5 20.9142 5.57812 20.5001 5.73438C20.0861 5.89062 19.6486 6.0625 19.1877 6.25C18.7267 6.4375 18.2424 6.60938 17.7346 6.76562C17.2268 6.92188 16.6486 7 16.0002 7C15.3518 7 14.7737 6.92188 14.2659 6.76562C13.7581 6.60938 13.2737 6.4375 12.8128 6.25C12.3518 6.0625 11.9065 5.89062 11.4769 5.73438C11.0472 5.57812 10.5706 5.5 10.0472 5.5C9.28939 5.5 8.62534 5.64844 8.05504 5.94531C7.48473 6.24219 7.01208 6.63672 6.63709 7.12891C6.2621 7.62109 5.97695 8.18359 5.78164 8.81641C5.58633 9.44922 5.49258 10.1133 5.50039 10.8086C5.50039 11.5742 5.54336 12.3984 5.6293 13.2812C5.71523 14.1641 5.84804 15.0781 6.02773 16.0234C6.20741 16.9688 6.42225 17.9102 6.67225 18.8477C6.92224 19.7852 7.21521 20.707 7.55114 21.6133C7.88707 22.5195 8.25816 23.3633 8.6644 24.1445C9.07064 24.9258 9.50813 25.6367 9.97688 26.2773C10.0941 26.4258 10.2425 26.5 10.4222 26.5C10.5159 26.5 10.637 26.3594 10.7855 26.0781C10.9339 25.7969 11.0901 25.4297 11.2542 24.9766C11.4183 24.5234 11.594 24.0312 11.7815 23.5C11.969 22.9688 12.137 22.4492 12.2854 21.9414C12.4339 21.4336 12.5784 20.9727 12.719 20.5586C12.8596 20.1445 12.9534 19.8438 13.0003 19.6562C13.0628 19.4531 13.1799 19.2773 13.3518 19.1289C13.5237 18.9805 13.7268 18.9023 13.9612 18.8945C14.3049 18.8945 14.6448 18.9102 14.9807 18.9414C15.3166 18.9727 15.6565 18.9922 16.0002 19C16.344 19 16.6838 18.9844 17.0197 18.9531C17.3557 18.9219 17.6955 18.9023 18.0392 18.8945C18.2658 18.8945 18.465 18.9688 18.6369 19.1172C18.8088 19.2656 18.9298 19.4453 19.0002 19.6562C19.0627 19.8438 19.1564 20.1445 19.2814 20.5586C19.4064 20.9727 19.547 21.4297 19.7033 21.9297C19.8595 22.4297 20.0314 22.9531 20.2189 23.5C20.4064 24.0469 20.5783 24.5391 20.7345 24.9766C20.8908 25.4141 21.0509 25.7773 21.215 26.0664C21.379 26.3555 21.5001 26.5 21.5782 26.5C21.7579 26.5 21.9064 26.4258 22.0235 26.2773C22.4923 25.6523 22.9298 24.9414 23.336 24.1445C23.7423 23.3477 24.1094 22.5039 24.4376 21.6133C24.7657 20.7227 25.0586 19.8047 25.3165 18.8594C25.5743 17.9141 25.7891 16.9727 25.961 16.0352C26.1328 15.0977 26.2657 14.1836 26.3594 13.293C26.4532 12.4023 26.5 11.5742 26.5 10.8086Z" fill="#144278"/>
</svg>
