<svg width="20" height="20" viewBox="0 0 20 20" fill="none" xmlns="http://www.w3.org/2000/svg">
<path d="M3.375 17.5H2.5V12.6042L6.66667 11.75L9.08333 14.1667C9.63889 13.8472 10.1564 13.5036 10.6358 13.1358C11.1153 12.7681 11.5561 12.3825 11.9583 11.9792C12.3889 11.5625 12.7917 11.1111 13.1667 10.625C13.5417 10.1389 13.8819 9.625 14.1875 9.08333L11.8125 6.6875L12.5833 2.5H17.5V3.375C17.5 5.125 17.125 6.84722 16.375 8.54167C15.625 10.2361 14.5556 11.7778 13.1667 13.1667C11.7778 14.5556 10.2328 15.625 8.53167 16.375C6.83056 17.125 5.11167 17.5 3.375 17.5Z" fill="#4C4C4C"/>
</svg>
