<svg width="25" height="24" viewBox="0 0 25 24" fill="none" xmlns="http://www.w3.org/2000/svg">
<path d="M16.7189 16.1837C13.8157 19.0865 10.28 21.3266 7.39744 21.3266C6.10144 21.3266 4.96658 20.8745 4.05244 19.8699C3.52015 19.2772 3.18844 18.5842 3.18844 17.9015C3.18844 17.3992 3.37958 16.917 3.8613 16.5755L6.93544 14.3855C7.4073 14.064 7.79901 13.9033 8.16072 13.9033C8.62272 13.9033 9.02473 14.1647 9.48673 14.6165L10.1999 15.3197C10.2498 15.3703 10.3091 15.4105 10.3746 15.4381C10.44 15.4657 10.5103 15.4801 10.5813 15.4805C10.742 15.4805 10.883 15.4205 10.9932 15.3699C11.606 15.0386 12.6706 14.1245 13.6653 13.14C14.6497 12.1556 15.5639 11.091 15.8853 10.4683C15.9545 10.3454 15.9924 10.2073 15.9954 10.0663C15.9954 9.93603 15.9556 9.80489 15.845 9.69475L15.1422 8.96189C14.6896 8.49946 14.4286 8.09746 14.4286 7.63546C14.4286 7.27418 14.5893 6.88246 14.9206 6.41018L17.0806 3.36646C17.432 2.88432 17.924 2.67346 18.4666 2.67346C19.1296 2.67346 19.8226 2.97475 20.405 3.54775C21.3796 4.48203 21.8116 5.6366 21.8116 6.91203C21.8116 9.79503 19.6117 13.2909 16.7189 16.1837Z" fill="#B9D9FF"/>
</svg>
