<svg width="32" height="32" viewBox="0 0 32 32" fill="none" xmlns="http://www.w3.org/2000/svg">
<path d="M12 30.6666V27.9999H10.1666L8.86663 19.9999H12V18.4333C11.7777 18.5221 11.5608 18.5835 11.3493 18.6173C11.1377 18.651 10.9102 18.6675 10.6666 18.6666C8.4444 18.6666 6.55551 17.8888 4.99996 16.3333C3.4444 14.7777 2.66663 12.8888 2.66663 10.6666V9.33325C2.66663 7.11103 3.4444 5.22214 4.99996 3.66659C6.55551 2.11103 8.4444 1.33325 10.6666 1.33325C11.7777 1.33325 12.7222 1.72214 13.5 2.49992C14.2777 3.2777 14.6666 4.22214 14.6666 5.33325C14.6666 6.44436 14.2777 7.38881 13.5 8.16659C12.7222 8.94436 11.7777 9.33325 10.6666 9.33325H7.99996V6.66659H10.6666C11.0444 6.66659 11.3613 6.53859 11.6173 6.28259C11.8733 6.02659 12.0008 5.71014 12 5.33325C11.9991 4.95636 11.8711 4.63992 11.616 4.38392C11.3608 4.12792 11.0444 3.99992 10.6666 3.99992C9.19996 3.99992 7.9444 4.52214 6.89996 5.56659C5.85552 6.61103 5.33329 7.86659 5.33329 9.33325V10.6666C5.33329 12.1333 5.85552 13.3888 6.89996 14.4333C7.9444 15.4777 9.19996 15.9999 10.6666 15.9999C11.0444 15.9999 11.3613 15.8719 11.6173 15.6159C11.8733 15.3599 12.0008 15.0435 12 14.6666C11.9991 14.2897 11.8711 13.9733 11.616 13.7173C11.3608 13.4613 11.0444 13.3333 10.6666 13.3333H7.99996V10.6666H10.6666C11.7777 10.6666 12.7222 11.0555 13.5 11.8333C14.2777 12.611 14.6666 13.5555 14.6666 14.6666V19.9999H17.3333V14.6666C17.3333 13.5555 17.7222 12.611 18.5 11.8333C19.2777 11.0555 20.2222 10.6666 21.3333 10.6666H24V13.3333H21.3333C20.9555 13.3333 20.6391 13.4613 20.384 13.7173C20.1288 13.9733 20.0008 14.2897 20 14.6666C19.9991 15.0435 20.1271 15.3604 20.384 15.6173C20.6408 15.8741 20.9573 16.0017 21.3333 15.9999C22.8 15.9999 24.0555 15.4777 25.1 14.4333C26.1444 13.3888 26.6666 12.1333 26.6666 10.6666V9.33325C26.6666 7.86659 26.1444 6.61103 25.1 5.56659C24.0555 4.52214 22.8 3.99992 21.3333 3.99992C20.9555 3.99992 20.6391 4.12747 20.384 4.38259C20.1288 4.6377 20.0008 4.95459 20 5.33325C19.9991 5.71192 20.1271 6.02881 20.384 6.28392C20.6408 6.53903 20.9573 6.66659 21.3333 6.66659H24V9.33325H21.3333C20.2222 9.33325 19.2777 8.94436 18.5 8.16659C17.7222 7.38881 17.3333 6.44436 17.3333 5.33325C17.3333 4.22214 17.7222 3.2777 18.5 2.49992C19.2777 1.72214 20.2222 1.33325 21.3333 1.33325C23.5555 1.33325 25.4444 2.11103 27 3.66659C28.5555 5.22214 29.3333 7.11103 29.3333 9.33325V10.6666C29.3333 12.8888 28.5555 14.7777 27 16.3333C25.4444 17.8888 23.5555 18.6666 21.3333 18.6666C21.0888 18.6666 20.8608 18.6497 20.6493 18.6159C20.4377 18.5821 20.2213 18.5217 20 18.4346V19.9999H23.1333L21.8333 27.9999H20V30.6666H17.3333V27.9999H14.6666V30.6666H12Z" fill="#144278"/>
</svg>
